<?xml version="1.0" encoding="UTF-8" standalone="no"?><svg xmlns="http://www.w3.org/2000/svg" xmlns:xlink="http://www.w3.org/1999/xlink" clip-rule="evenodd" stroke-miterlimit="10" viewBox="0 0 1024 768"><desc>SVG generated by Keynote</desc><defs></defs><g transform="matrix(1.00, 0.00, -0.00, -1.00, 0.0, 768.0)"><g><clipPath id="clip0x6180012a47a0"><path d="M 0.0 768.0 L 1024.0 768.0 L 1024.0 0.0 L 0.0 0.0 Z M 0.0 768.0 "></path></clipPath><g clip-path="url(#clip0x6180012a47a0)"><image xlink:href="../../E6DA75BE-1612-4AD0-BDCC-13BDD2FF18A5/assets/C69F8A4BB357ABB1A0F95B8BFBB7E603.jpeg" width="2048.00" height="1536.00" transform="matrix(0.50, 0.00, -0.00, -0.50, 0.0, 768.0)"></image></g></g><text xml:space="preserve" font-family="GillSans,Gill Sans" font-size="84.0" fill="#FEFFFF" transform="matrix(1.00, 0.00, -0.00, -1.00, 169.0, 623.4)">X</text><text xml:space="preserve" font-family="GillSans,Gill Sans" font-size="84.0" fill="#FEFFFF" transform="matrix(1.00, 0.00, -0.00, -1.00, 228.4, 623.4)">-</text><text xml:space="preserve" font-family="GillSans,Gill Sans" font-size="84.0" fill="#FEFFFF" transform="matrix(1.00, 0.00, -0.00, -1.00, 255.6, 623.4)">p</text><text xml:space="preserve" font-family="GillSans,Gill Sans" font-size="84.0" fill="#FEFFFF" transform="matrix(1.00, 0.00, -0.00, -1.00, 297.6, 623.4)">l</text><text xml:space="preserve" font-family="GillSans,Gill Sans" font-size="84.0" fill="#FEFFFF" transform="matrix(1.00, 0.00, -0.00, -1.00, 316.0, 623.4)">a</text><text xml:space="preserve" font-family="GillSans,Gill Sans" font-size="84.0" fill="#FEFFFF" transform="matrix(1.00, 0.00, -0.00, -1.00, 351.9, 623.4)">t</text><text xml:space="preserve" font-family="GillSans,Gill Sans" font-size="84.0" fill="#FEFFFF" transform="matrix(1.00, 0.00, -0.00, -1.00, 379.8, 623.4)">f</text><text xml:space="preserve" font-family="GillSans,Gill Sans" font-size="84.0" fill="#FEFFFF" transform="matrix(1.00, 0.00, -0.00, -1.00, 400.0, 623.4)">o</text><text xml:space="preserve" font-family="GillSans,Gill Sans" font-size="84.0" fill="#FEFFFF" transform="matrix(1.00, 0.00, -0.00, -1.00, 446.4, 623.4)">r</text><text xml:space="preserve" font-family="GillSans,Gill Sans" font-size="84.0" fill="#FEFFFF" transform="matrix(1.00, 0.00, -0.00, -1.00, 479.6, 623.4)">m</text><text xml:space="preserve" font-family="GillSans,Gill Sans" font-size="84.0" fill="#FEFFFF" transform="matrix(1.00, 0.00, -0.00, -1.00, 544.4, 623.4)">-</text><text xml:space="preserve" font-family="GillSans,Gill Sans" font-size="84.0" fill="#FEFFFF" transform="matrix(1.00, 0.00, -0.00, -1.00, 571.5, 623.4)">e</text><text xml:space="preserve" font-family="GillSans,Gill Sans" font-size="84.0" fill="#FEFFFF" transform="matrix(1.00, 0.00, -0.00, -1.00, 611.8, 623.4)">x</text><text xml:space="preserve" font-family="GillSans,Gill Sans" font-size="84.0" fill="#FEFFFF" transform="matrix(1.00, 0.00, -0.00, -1.00, 653.8, 623.4)">a</text><text xml:space="preserve" font-family="GillSans,Gill Sans" font-size="84.0" fill="#FEFFFF" transform="matrix(1.00, 0.00, -0.00, -1.00, 689.6, 623.4)">m</text><text xml:space="preserve" font-family="GillSans,Gill Sans" font-size="84.0" fill="#FEFFFF" transform="matrix(1.00, 0.00, -0.00, -1.00, 754.4, 623.4)">p</text><text xml:space="preserve" font-family="GillSans,Gill Sans" font-size="84.0" fill="#FEFFFF" transform="matrix(1.00, 0.00, -0.00, -1.00, 796.4, 623.4)">l</text><text xml:space="preserve" font-family="GillSans,Gill Sans" font-size="84.0" fill="#FEFFFF" transform="matrix(1.00, 0.00, -0.00, -1.00, 814.8, 623.4)">e</text><text xml:space="preserve" font-family="GillSans,Gill Sans" font-size="70.4" fill="#FEFFFF" transform="matrix(1.00, 0.00, -0.00, -1.00, 129.0, 477.2)">•</text><text xml:space="preserve" font-family="GillSans,Gill Sans" font-size="41.2" fill="#FEFFFF" transform="matrix(1.00, 0.00, -0.00, -1.00, 173.1, 487.5)">A</text><text xml:space="preserve" font-family="GillSans,Gill Sans" font-size="41.2" fill="#FEFFFF" transform="matrix(1.00, 0.00, -0.00, -1.00, 200.6, 487.5)">u</text><text xml:space="preserve" font-family="GillSans,Gill Sans" font-size="41.2" fill="#FEFFFF" transform="matrix(1.00, 0.00, -0.00, -1.00, 221.1, 487.5)">t</text><text xml:space="preserve" font-family="GillSans,Gill Sans" font-size="41.2" fill="#FEFFFF" transform="matrix(1.00, 0.00, -0.00, -1.00, 234.8, 487.5)">o</text><text xml:space="preserve" font-family="GillSans,Gill Sans" font-size="41.2" fill="#FEFFFF" transform="matrix(1.00, 0.00, -0.00, -1.00, 257.5, 487.5)">m</text><text xml:space="preserve" font-family="GillSans,Gill Sans" font-size="41.2" fill="#FEFFFF" transform="matrix(1.00, 0.00, -0.00, -1.00, 289.3, 487.5)">a</text><text xml:space="preserve" font-family="GillSans,Gill Sans" font-size="41.2" fill="#FEFFFF" transform="matrix(1.00, 0.00, -0.00, -1.00, 306.8, 487.5)">t</text><text xml:space="preserve" font-family="GillSans,Gill Sans" font-size="41.2" fill="#FEFFFF" transform="matrix(1.00, 0.00, -0.00, -1.00, 320.5, 487.5)">e</text><text xml:space="preserve" font-family="GillSans,Gill Sans" font-size="41.2" fill="#FEFFFF" transform="matrix(1.00, 0.00, -0.00, -1.00, 340.3, 487.5)"> </text><text xml:space="preserve" font-family="GillSans,Gill Sans" font-size="41.2" fill="#FEFFFF" transform="matrix(1.00, 0.00, -0.00, -1.00, 351.7, 487.5)">e</text><text xml:space="preserve" font-family="GillSans,Gill Sans" font-size="41.2" fill="#FEFFFF" transform="matrix(1.00, 0.00, -0.00, -1.00, 371.4, 487.5)">a</text><text xml:space="preserve" font-family="GillSans,Gill Sans" font-size="41.2" fill="#FEFFFF" transform="matrix(1.00, 0.00, -0.00, -1.00, 389.0, 487.5)">c</text><text xml:space="preserve" font-family="GillSans,Gill Sans" font-size="41.2" fill="#FEFFFF" transform="matrix(1.00, 0.00, -0.00, -1.00, 407.0, 487.5)">h</text><text xml:space="preserve" font-family="GillSans,Gill Sans" font-size="41.2" fill="#FEFFFF" transform="matrix(1.00, 0.00, -0.00, -1.00, 427.6, 487.5)"> </text><text xml:space="preserve" font-family="GillSans,Gill Sans" font-size="41.2" fill="#FEFFFF" transform="matrix(1.00, 0.00, -0.00, -1.00, 439.0, 487.5)">s</text><text xml:space="preserve" font-family="GillSans,Gill Sans" font-size="41.2" fill="#FEFFFF" transform="matrix(1.00, 0.00, -0.00, -1.00, 454.8, 487.5)">c</text><text xml:space="preserve" font-family="GillSans,Gill Sans" font-size="41.2" fill="#FEFFFF" transform="matrix(1.00, 0.00, -0.00, -1.00, 472.8, 487.5)">r</text><text xml:space="preserve" font-family="GillSans,Gill Sans" font-size="41.2" fill="#FEFFFF" transform="matrix(1.00, 0.00, -0.00, -1.00, 488.3, 487.5)">e</text><text xml:space="preserve" font-family="GillSans,Gill Sans" font-size="41.2" fill="#FEFFFF" transform="matrix(1.00, 0.00, -0.00, -1.00, 508.0, 487.5)">e</text><text xml:space="preserve" font-family="GillSans,Gill Sans" font-size="41.2" fill="#FEFFFF" transform="matrix(1.00, 0.00, -0.00, -1.00, 527.8, 487.5)">n</text><text xml:space="preserve" font-family="GillSans,Gill Sans" font-size="41.2" fill="#FEFFFF" transform="matrix(1.00, 0.00, -0.00, -1.00, 548.3, 487.5)">	</text><text xml:space="preserve" font-family="GillSans,Gill Sans" font-size="41.2" fill="#FEFFFF" transform="matrix(1.00, 0.00, -0.00, -1.00, 576.3, 487.5)">
</text><text xml:space="preserve" font-family="GillSans,Gill Sans" font-size="41.2" fill="#FEFFFF" transform="matrix(1.00, 0.00, -0.00, -1.00, 576.3, 487.5)"></text><text xml:space="preserve" font-family="GillSans,Gill Sans" font-size="70.4" fill="#FEFFFF" transform="matrix(1.00, 0.00, -0.00, -1.00, 129.0, 406.7)">•</text><text xml:space="preserve" font-family="GillSans,Gill Sans" font-size="41.2" fill="#FEFFFF" transform="matrix(1.00, 0.00, -0.00, -1.00, 173.1, 417.0)">U</text><text xml:space="preserve" font-family="GillSans,Gill Sans" font-size="41.2" fill="#FEFFFF" transform="matrix(1.00, 0.00, -0.00, -1.00, 202.2, 417.0)">s</text><text xml:space="preserve" font-family="GillSans,Gill Sans" font-size="41.2" fill="#FEFFFF" transform="matrix(1.00, 0.00, -0.00, -1.00, 218.1, 417.0)">e</text><text xml:space="preserve" font-family="GillSans,Gill Sans" font-size="41.2" fill="#FEFFFF" transform="matrix(1.00, 0.00, -0.00, -1.00, 237.8, 417.0)"> </text><text xml:space="preserve" font-family="GillSans,Gill Sans" font-size="41.2" fill="#FEFFFF" transform="matrix(1.00, 0.00, -0.00, -1.00, 249.2, 417.0)">o</text><text xml:space="preserve" font-family="GillSans,Gill Sans" font-size="41.2" fill="#FEFFFF" transform="matrix(1.00, 0.00, -0.00, -1.00, 271.9, 417.0)">n</text><text xml:space="preserve" font-family="GillSans,Gill Sans" font-size="41.2" fill="#FEFFFF" transform="matrix(1.00, 0.00, -0.00, -1.00, 292.5, 417.0)">l</text><text xml:space="preserve" font-family="GillSans,Gill Sans" font-size="41.2" fill="#FEFFFF" transform="matrix(1.00, 0.00, -0.00, -1.00, 301.1, 417.0)">y</text><text xml:space="preserve" font-family="GillSans,Gill Sans" font-size="41.2" fill="#FEFFFF" transform="matrix(1.00, 0.00, -0.00, -1.00, 319.2, 417.0)"> </text><text xml:space="preserve" font-family="GillSans,Gill Sans" font-size="41.2" fill="#FEFFFF" transform="matrix(1.00, 0.00, -0.00, -1.00, 330.6, 417.0)">c</text><text xml:space="preserve" font-family="GillSans,Gill Sans" font-size="41.2" fill="#FEFFFF" transform="matrix(1.00, 0.00, -0.00, -1.00, 348.6, 417.0)">u</text><text xml:space="preserve" font-family="GillSans,Gill Sans" font-size="41.2" fill="#FEFFFF" transform="matrix(1.00, 0.00, -0.00, -1.00, 369.2, 417.0)">s</text><text xml:space="preserve" font-family="GillSans,Gill Sans" font-size="41.2" fill="#FEFFFF" transform="matrix(1.00, 0.00, -0.00, -1.00, 385.0, 417.0)">t</text><text xml:space="preserve" font-family="GillSans,Gill Sans" font-size="41.2" fill="#FEFFFF" transform="matrix(1.00, 0.00, -0.00, -1.00, 398.7, 417.0)">o</text><text xml:space="preserve" font-family="GillSans,Gill Sans" font-size="41.2" fill="#FEFFFF" transform="matrix(1.00, 0.00, -0.00, -1.00, 421.4, 417.0)">m</text><text xml:space="preserve" font-family="GillSans,Gill Sans" font-size="41.2" fill="#FEFFFF" transform="matrix(1.00, 0.00, -0.00, -1.00, 453.2, 417.0)"> </text><text xml:space="preserve" font-family="GillSans,Gill Sans" font-size="41.2" fill="#FEFFFF" transform="matrix(1.00, 0.00, -0.00, -1.00, 464.6, 417.0)">s</text><text xml:space="preserve" font-family="GillSans,Gill Sans" font-size="41.2" fill="#FEFFFF" transform="matrix(1.00, 0.00, -0.00, -1.00, 480.4, 417.0)">t</text><text xml:space="preserve" font-family="GillSans,Gill Sans" font-size="41.2" fill="#FEFFFF" transform="matrix(1.00, 0.00, -0.00, -1.00, 494.1, 417.0)">e</text><text xml:space="preserve" font-family="GillSans,Gill Sans" font-size="41.2" fill="#FEFFFF" transform="matrix(1.00, 0.00, -0.00, -1.00, 513.8, 417.0)">p</text><text xml:space="preserve" font-family="GillSans,Gill Sans" font-size="41.2" fill="#FEFFFF" transform="matrix(1.00, 0.00, -0.00, -1.00, 534.4, 417.0)">s</text><text xml:space="preserve" font-family="GillSans,Gill Sans" font-size="41.2" fill="#FEFFFF" transform="matrix(1.00, 0.00, -0.00, -1.00, 550.2, 417.0)"> </text><text xml:space="preserve" font-family="GillSans,Gill Sans" font-size="41.2" fill="#FEFFFF" transform="matrix(1.00, 0.00, -0.00, -1.00, 561.7, 417.0)">w</text><text xml:space="preserve" font-family="GillSans,Gill Sans" font-size="41.2" fill="#FEFFFF" transform="matrix(1.00, 0.00, -0.00, -1.00, 591.3, 417.0)">h</text><text xml:space="preserve" font-family="GillSans,Gill Sans" font-size="41.2" fill="#FEFFFF" transform="matrix(1.00, 0.00, -0.00, -1.00, 611.9, 417.0)">i</text><text xml:space="preserve" font-family="GillSans,Gill Sans" font-size="41.2" fill="#FEFFFF" transform="matrix(1.00, 0.00, -0.00, -1.00, 620.9, 417.0)">c</text><text xml:space="preserve" font-family="GillSans,Gill Sans" font-size="41.2" fill="#FEFFFF" transform="matrix(1.00, 0.00, -0.00, -1.00, 638.9, 417.0)">h</text><text xml:space="preserve" font-family="GillSans,Gill Sans" font-size="41.2" fill="#FEFFFF" transform="matrix(1.00, 0.00, -0.00, -1.00, 659.5, 417.0)"> </text><text xml:space="preserve" font-family="GillSans,Gill Sans" font-size="41.2" fill="#FEFFFF" transform="matrix(1.00, 0.00, -0.00, -1.00, 670.9, 417.0)">o</text><text xml:space="preserve" font-family="GillSans,Gill Sans" font-size="41.2" fill="#FEFFFF" transform="matrix(1.00, 0.00, -0.00, -1.00, 693.6, 417.0)">n</text><text xml:space="preserve" font-family="GillSans,Gill Sans" font-size="41.2" fill="#FEFFFF" transform="matrix(1.00, 0.00, -0.00, -1.00, 714.2, 417.0)">l</text><text xml:space="preserve" font-family="GillSans,Gill Sans" font-size="41.2" fill="#FEFFFF" transform="matrix(1.00, 0.00, -0.00, -1.00, 722.9, 417.0)">y</text><text xml:space="preserve" font-family="GillSans,Gill Sans" font-size="41.2" fill="#FEFFFF" transform="matrix(1.00, 0.00, -0.00, -1.00, 740.9, 417.0)"> </text><text xml:space="preserve" font-family="GillSans,Gill Sans" font-size="41.2" fill="#FEFFFF" transform="matrix(1.00, 0.00, -0.00, -1.00, 752.3, 417.0)">u</text><text xml:space="preserve" font-family="GillSans,Gill Sans" font-size="41.2" fill="#FEFFFF" transform="matrix(1.00, 0.00, -0.00, -1.00, 772.9, 417.0)">s</text><text xml:space="preserve" font-family="GillSans,Gill Sans" font-size="41.2" fill="#FEFFFF" transform="matrix(1.00, 0.00, -0.00, -1.00, 788.7, 417.0)">e</text><text xml:space="preserve" font-family="GillSans,Gill Sans" font-size="41.2" fill="#FEFFFF" transform="matrix(1.00, 0.00, -0.00, -1.00, 808.4, 417.0)"> </text><text xml:space="preserve" font-family="GillSans,Gill Sans" font-size="41.2" fill="#FEFFFF" transform="matrix(1.00, 0.00, -0.00, -1.00, 819.9, 417.0)">p</text><text xml:space="preserve" font-family="GillSans,Gill Sans" font-size="41.2" fill="#FEFFFF" transform="matrix(1.00, 0.00, -0.00, -1.00, 840.4, 417.0)">a</text><text xml:space="preserve" font-family="GillSans,Gill Sans" font-size="41.2" fill="#FEFFFF" transform="matrix(1.00, 0.00, -0.00, -1.00, 858.0, 417.0)">g</text><text xml:space="preserve" font-family="GillSans,Gill Sans" font-size="41.2" fill="#FEFFFF" transform="matrix(1.00, 0.00, -0.00, -1.00, 875.6, 417.0)">e</text><text xml:space="preserve" font-family="GillSans,Gill Sans" font-size="41.2" fill="#FEFFFF" transform="matrix(1.00, 0.00, -0.00, -1.00, 895.3, 417.0)"> </text><text xml:space="preserve" font-family="GillSans,Gill Sans" font-size="41.2" fill="#FEFFFF" transform="matrix(1.00, 0.00, -0.00, -1.00, 173.1, 370.0)">o</text><text xml:space="preserve" font-family="GillSans,Gill Sans" font-size="41.2" fill="#FEFFFF" transform="matrix(1.00, 0.00, -0.00, -1.00, 195.8, 370.0)">b</text><text xml:space="preserve" font-family="GillSans,Gill Sans" font-size="41.2" fill="#FEFFFF" transform="matrix(1.00, 0.00, -0.00, -1.00, 216.4, 370.0)">j</text><text xml:space="preserve" font-family="GillSans,Gill Sans" font-size="41.2" fill="#FEFFFF" transform="matrix(1.00, 0.00, -0.00, -1.00, 225.4, 370.0)">e</text><text xml:space="preserve" font-family="GillSans,Gill Sans" font-size="41.2" fill="#FEFFFF" transform="matrix(1.00, 0.00, -0.00, -1.00, 245.1, 370.0)">c</text><text xml:space="preserve" font-family="GillSans,Gill Sans" font-size="41.2" fill="#FEFFFF" transform="matrix(1.00, 0.00, -0.00, -1.00, 263.2, 370.0)">t</text><text xml:space="preserve" font-family="GillSans,Gill Sans" font-size="41.2" fill="#FEFFFF" transform="matrix(1.00, 0.00, -0.00, -1.00, 276.9, 370.0)">s</text><text xml:space="preserve" font-family="GillSans,Gill Sans" font-size="41.2" fill="#FEFFFF" transform="matrix(1.00, 0.00, -0.00, -1.00, 292.7, 370.0)">	</text><text xml:space="preserve" font-family="GillSans,Gill Sans" font-size="41.2" fill="#FEFFFF" transform="matrix(1.00, 0.00, -0.00, -1.00, 320.7, 370.0)">
</text><text xml:space="preserve" font-family="GillSans,Gill Sans" font-size="41.2" fill="#FEFFFF" transform="matrix(1.00, 0.00, -0.00, -1.00, 320.7, 370.0)"></text><text xml:space="preserve" font-family="GillSans,Gill Sans" font-size="70.4" fill="#FEFFFF" transform="matrix(1.00, 0.00, -0.00, -1.00, 129.0, 289.2)">•</text><text xml:space="preserve" font-family="GillSans,Gill Sans" font-size="41.2" fill="#FEFFFF" transform="matrix(1.00, 0.00, -0.00, -1.00, 173.1, 299.4)">F</text><text xml:space="preserve" font-family="GillSans,Gill Sans" font-size="41.2" fill="#FEFFFF" transform="matrix(1.00, 0.00, -0.00, -1.00, 191.8, 299.4)">o</text><text xml:space="preserve" font-family="GillSans,Gill Sans" font-size="41.2" fill="#FEFFFF" transform="matrix(1.00, 0.00, -0.00, -1.00, 214.5, 299.4)">r</text><text xml:space="preserve" font-family="GillSans,Gill Sans" font-size="41.2" fill="#FEFFFF" transform="matrix(1.00, 0.00, -0.00, -1.00, 230.8, 299.4)"> </text><text xml:space="preserve" font-family="GillSans,Gill Sans" font-size="41.2" fill="#FEFFFF" transform="matrix(1.00, 0.00, -0.00, -1.00, 242.2, 299.4)">e</text><text xml:space="preserve" font-family="GillSans,Gill Sans" font-size="41.2" fill="#FEFFFF" transform="matrix(1.00, 0.00, -0.00, -1.00, 261.9, 299.4)">a</text><text xml:space="preserve" font-family="GillSans,Gill Sans" font-size="41.2" fill="#FEFFFF" transform="matrix(1.00, 0.00, -0.00, -1.00, 279.5, 299.4)">c</text><text xml:space="preserve" font-family="GillSans,Gill Sans" font-size="41.2" fill="#FEFFFF" transform="matrix(1.00, 0.00, -0.00, -1.00, 297.5, 299.4)">h</text><text xml:space="preserve" font-family="GillSans,Gill Sans" font-size="41.2" fill="#FEFFFF" transform="matrix(1.00, 0.00, -0.00, -1.00, 318.1, 299.4)"> </text><text xml:space="preserve" font-family="GillSans,Gill Sans" font-size="41.2" fill="#FEFFFF" transform="matrix(1.00, 0.00, -0.00, -1.00, 329.5, 299.4)">p</text><text xml:space="preserve" font-family="GillSans,Gill Sans" font-size="41.2" fill="#FEFFFF" transform="matrix(1.00, 0.00, -0.00, -1.00, 350.1, 299.4)">l</text><text xml:space="preserve" font-family="GillSans,Gill Sans" font-size="41.2" fill="#FEFFFF" transform="matrix(1.00, 0.00, -0.00, -1.00, 359.1, 299.4)">a</text><text xml:space="preserve" font-family="GillSans,Gill Sans" font-size="41.2" fill="#FEFFFF" transform="matrix(1.00, 0.00, -0.00, -1.00, 376.7, 299.4)">t</text><text xml:space="preserve" font-family="GillSans,Gill Sans" font-size="41.2" fill="#FEFFFF" transform="matrix(1.00, 0.00, -0.00, -1.00, 390.4, 299.4)">f</text><text xml:space="preserve" font-family="GillSans,Gill Sans" font-size="41.2" fill="#FEFFFF" transform="matrix(1.00, 0.00, -0.00, -1.00, 400.3, 299.4)">o</text><text xml:space="preserve" font-family="GillSans,Gill Sans" font-size="41.2" fill="#FEFFFF" transform="matrix(1.00, 0.00, -0.00, -1.00, 423.0, 299.4)">r</text><text xml:space="preserve" font-family="GillSans,Gill Sans" font-size="41.2" fill="#FEFFFF" transform="matrix(1.00, 0.00, -0.00, -1.00, 439.3, 299.4)">m</text><text xml:space="preserve" font-family="GillSans,Gill Sans" font-size="41.2" fill="#FEFFFF" transform="matrix(1.00, 0.00, -0.00, -1.00, 471.0, 299.4)">,</text><text xml:space="preserve" font-family="GillSans,Gill Sans" font-size="41.2" fill="#FEFFFF" transform="matrix(1.00, 0.00, -0.00, -1.00, 480.1, 299.4)">d</text><text xml:space="preserve" font-family="GillSans,Gill Sans" font-size="41.2" fill="#FEFFFF" transform="matrix(1.00, 0.00, -0.00, -1.00, 501.0, 299.4)">e</text><text xml:space="preserve" font-family="GillSans,Gill Sans" font-size="41.2" fill="#FEFFFF" transform="matrix(1.00, 0.00, -0.00, -1.00, 520.8, 299.4)">ﬁ</text><text xml:space="preserve" font-family="GillSans,Gill Sans" font-size="41.2" fill="#FEFFFF" transform="matrix(1.00, 0.00, -0.00, -1.00, 541.3, 299.4)">n</text><text xml:space="preserve" font-family="GillSans,Gill Sans" font-size="41.2" fill="#FEFFFF" transform="matrix(1.00, 0.00, -0.00, -1.00, 561.9, 299.4)">e</text><text xml:space="preserve" font-family="GillSans,Gill Sans" font-size="41.2" fill="#FEFFFF" transform="matrix(1.00, 0.00, -0.00, -1.00, 581.6, 299.4)"> </text><text xml:space="preserve" font-family="GillSans,Gill Sans" font-size="41.2" fill="#FEFFFF" transform="matrix(1.00, 0.00, -0.00, -1.00, 593.1, 299.4)">a</text><text xml:space="preserve" font-family="GillSans,Gill Sans" font-size="41.2" fill="#FEFFFF" transform="matrix(1.00, 0.00, -0.00, -1.00, 610.6, 299.4)"> </text><text xml:space="preserve" font-family="GillSans,Gill Sans" font-size="41.2" fill="#FEFFFF" transform="matrix(1.00, 0.00, -0.00, -1.00, 622.0, 299.4)">c</text><text xml:space="preserve" font-family="GillSans,Gill Sans" font-size="41.2" fill="#FEFFFF" transform="matrix(1.00, 0.00, -0.00, -1.00, 640.1, 299.4)">l</text><text xml:space="preserve" font-family="GillSans,Gill Sans" font-size="41.2" fill="#FEFFFF" transform="matrix(1.00, 0.00, -0.00, -1.00, 649.1, 299.4)">a</text><text xml:space="preserve" font-family="GillSans,Gill Sans" font-size="41.2" fill="#FEFFFF" transform="matrix(1.00, 0.00, -0.00, -1.00, 666.7, 299.4)">s</text><text xml:space="preserve" font-family="GillSans,Gill Sans" font-size="41.2" fill="#FEFFFF" transform="matrix(1.00, 0.00, -0.00, -1.00, 682.5, 299.4)">s</text><text xml:space="preserve" font-family="GillSans,Gill Sans" font-size="41.2" fill="#FEFFFF" transform="matrix(1.00, 0.00, -0.00, -1.00, 698.3, 299.4)"> </text><text xml:space="preserve" font-family="GillSans,Gill Sans" font-size="41.2" fill="#FEFFFF" transform="matrix(1.00, 0.00, -0.00, -1.00, 709.7, 299.4)">w</text><text xml:space="preserve" font-family="GillSans,Gill Sans" font-size="41.2" fill="#FEFFFF" transform="matrix(1.00, 0.00, -0.00, -1.00, 739.4, 299.4)">i</text><text xml:space="preserve" font-family="GillSans,Gill Sans" font-size="41.2" fill="#FEFFFF" transform="matrix(1.00, 0.00, -0.00, -1.00, 748.4, 299.4)">t</text><text xml:space="preserve" font-family="GillSans,Gill Sans" font-size="41.2" fill="#FEFFFF" transform="matrix(1.00, 0.00, -0.00, -1.00, 762.1, 299.4)">h</text><text xml:space="preserve" font-family="GillSans,Gill Sans" font-size="41.2" fill="#FEFFFF" transform="matrix(1.00, 0.00, -0.00, -1.00, 782.7, 299.4)"> </text><text xml:space="preserve" font-family="GillSans,Gill Sans" font-size="41.2" fill="#FEFFFF" transform="matrix(1.00, 0.00, -0.00, -1.00, 173.1, 252.4)">i</text><text xml:space="preserve" font-family="GillSans,Gill Sans" font-size="41.2" fill="#FEFFFF" transform="matrix(1.00, 0.00, -0.00, -1.00, 182.1, 252.4)">m</text><text xml:space="preserve" font-family="GillSans,Gill Sans" font-size="41.2" fill="#FEFFFF" transform="matrix(1.00, 0.00, -0.00, -1.00, 213.9, 252.4)">p</text><text xml:space="preserve" font-family="GillSans,Gill Sans" font-size="41.2" fill="#FEFFFF" transform="matrix(1.00, 0.00, -0.00, -1.00, 234.4, 252.4)">l</text><text xml:space="preserve" font-family="GillSans,Gill Sans" font-size="41.2" fill="#FEFFFF" transform="matrix(1.00, 0.00, -0.00, -1.00, 243.5, 252.4)">e</text><text xml:space="preserve" font-family="GillSans,Gill Sans" font-size="41.2" fill="#FEFFFF" transform="matrix(1.00, 0.00, -0.00, -1.00, 263.2, 252.4)">m</text><text xml:space="preserve" font-family="GillSans,Gill Sans" font-size="41.2" fill="#FEFFFF" transform="matrix(1.00, 0.00, -0.00, -1.00, 294.9, 252.4)">e</text><text xml:space="preserve" font-family="GillSans,Gill Sans" font-size="41.2" fill="#FEFFFF" transform="matrix(1.00, 0.00, -0.00, -1.00, 314.6, 252.4)">n</text><text xml:space="preserve" font-family="GillSans,Gill Sans" font-size="41.2" fill="#FEFFFF" transform="matrix(1.00, 0.00, -0.00, -1.00, 335.2, 252.4)">t</text><text xml:space="preserve" font-family="GillSans,Gill Sans" font-size="41.2" fill="#FEFFFF" transform="matrix(1.00, 0.00, -0.00, -1.00, 348.9, 252.4)">a</text><text xml:space="preserve" font-family="GillSans,Gill Sans" font-size="41.2" fill="#FEFFFF" transform="matrix(1.00, 0.00, -0.00, -1.00, 366.5, 252.4)">t</text><text xml:space="preserve" font-family="GillSans,Gill Sans" font-size="41.2" fill="#FEFFFF" transform="matrix(1.00, 0.00, -0.00, -1.00, 380.2, 252.4)">i</text><text xml:space="preserve" font-family="GillSans,Gill Sans" font-size="41.2" fill="#FEFFFF" transform="matrix(1.00, 0.00, -0.00, -1.00, 389.2, 252.4)">o</text><text xml:space="preserve" font-family="GillSans,Gill Sans" font-size="41.2" fill="#FEFFFF" transform="matrix(1.00, 0.00, -0.00, -1.00, 411.9, 252.4)">n</text><text xml:space="preserve" font-family="GillSans,Gill Sans" font-size="41.2" fill="#FEFFFF" transform="matrix(1.00, 0.00, -0.00, -1.00, 432.5, 252.4)">s</text><text xml:space="preserve" font-family="GillSans,Gill Sans" font-size="41.2" fill="#FEFFFF" transform="matrix(1.00, 0.00, -0.00, -1.00, 448.3, 252.4)"> </text><text xml:space="preserve" font-family="GillSans,Gill Sans" font-size="41.2" fill="#FEFFFF" transform="matrix(1.00, 0.00, -0.00, -1.00, 459.8, 252.4)">o</text><text xml:space="preserve" font-family="GillSans,Gill Sans" font-size="41.2" fill="#FEFFFF" transform="matrix(1.00, 0.00, -0.00, -1.00, 482.5, 252.4)">f</text><text xml:space="preserve" font-family="GillSans,Gill Sans" font-size="41.2" fill="#FEFFFF" transform="matrix(1.00, 0.00, -0.00, -1.00, 492.8, 252.4)"> </text><text xml:space="preserve" font-family="GillSans,Gill Sans" font-size="41.2" fill="#FEFFFF" transform="matrix(1.00, 0.00, -0.00, -1.00, 504.2, 252.4)">t</text><text xml:space="preserve" font-family="GillSans,Gill Sans" font-size="41.2" fill="#FEFFFF" transform="matrix(1.00, 0.00, -0.00, -1.00, 517.9, 252.4)">h</text><text xml:space="preserve" font-family="GillSans,Gill Sans" font-size="41.2" fill="#FEFFFF" transform="matrix(1.00, 0.00, -0.00, -1.00, 538.5, 252.4)">e</text><text xml:space="preserve" font-family="GillSans,Gill Sans" font-size="41.2" fill="#FEFFFF" transform="matrix(1.00, 0.00, -0.00, -1.00, 558.2, 252.4)"> </text><text xml:space="preserve" font-family="GillSans,Gill Sans" font-size="41.2" fill="#FEFFFF" transform="matrix(1.00, 0.00, -0.00, -1.00, 569.6, 252.4)">p</text><text xml:space="preserve" font-family="GillSans,Gill Sans" font-size="41.2" fill="#FEFFFF" transform="matrix(1.00, 0.00, -0.00, -1.00, 590.2, 252.4)">a</text><text xml:space="preserve" font-family="GillSans,Gill Sans" font-size="41.2" fill="#FEFFFF" transform="matrix(1.00, 0.00, -0.00, -1.00, 607.8, 252.4)">g</text><text xml:space="preserve" font-family="GillSans,Gill Sans" font-size="41.2" fill="#FEFFFF" transform="matrix(1.00, 0.00, -0.00, -1.00, 625.3, 252.4)">e</text><text xml:space="preserve" font-family="GillSans,Gill Sans" font-size="41.2" fill="#FEFFFF" transform="matrix(1.00, 0.00, -0.00, -1.00, 645.0, 252.4)">-</text><text xml:space="preserve" font-family="GillSans,Gill Sans" font-size="41.2" fill="#FEFFFF" transform="matrix(1.00, 0.00, -0.00, -1.00, 658.3, 252.4)">o</text><text xml:space="preserve" font-family="GillSans,Gill Sans" font-size="41.2" fill="#FEFFFF" transform="matrix(1.00, 0.00, -0.00, -1.00, 681.0, 252.4)">b</text><text xml:space="preserve" font-family="GillSans,Gill Sans" font-size="41.2" fill="#FEFFFF" transform="matrix(1.00, 0.00, -0.00, -1.00, 701.6, 252.4)">j</text><text xml:space="preserve" font-family="GillSans,Gill Sans" font-size="41.2" fill="#FEFFFF" transform="matrix(1.00, 0.00, -0.00, -1.00, 710.7, 252.4)">e</text><text xml:space="preserve" font-family="GillSans,Gill Sans" font-size="41.2" fill="#FEFFFF" transform="matrix(1.00, 0.00, -0.00, -1.00, 730.4, 252.4)">c</text><text xml:space="preserve" font-family="GillSans,Gill Sans" font-size="41.2" fill="#FEFFFF" transform="matrix(1.00, 0.00, -0.00, -1.00, 748.4, 252.4)">t</text><text xml:space="preserve" font-family="GillSans,Gill Sans" font-size="41.2" fill="#FEFFFF" transform="matrix(1.00, 0.00, -0.00, -1.00, 762.1, 252.4)"> </text><text xml:space="preserve" font-family="GillSans,Gill Sans" font-size="41.2" fill="#FEFFFF" transform="matrix(1.00, 0.00, -0.00, -1.00, 773.5, 252.4)">m</text><text xml:space="preserve" font-family="GillSans,Gill Sans" font-size="41.2" fill="#FEFFFF" transform="matrix(1.00, 0.00, -0.00, -1.00, 805.3, 252.4)">e</text><text xml:space="preserve" font-family="GillSans,Gill Sans" font-size="41.2" fill="#FEFFFF" transform="matrix(1.00, 0.00, -0.00, -1.00, 825.0, 252.4)">t</text><text xml:space="preserve" font-family="GillSans,Gill Sans" font-size="41.2" fill="#FEFFFF" transform="matrix(1.00, 0.00, -0.00, -1.00, 838.7, 252.4)">h</text><text xml:space="preserve" font-family="GillSans,Gill Sans" font-size="41.2" fill="#FEFFFF" transform="matrix(1.00, 0.00, -0.00, -1.00, 859.3, 252.4)">o</text><text xml:space="preserve" font-family="GillSans,Gill Sans" font-size="41.2" fill="#FEFFFF" transform="matrix(1.00, 0.00, -0.00, -1.00, 882.0, 252.4)">d</text><text xml:space="preserve" font-family="GillSans,Gill Sans" font-size="41.2" fill="#FEFFFF" transform="matrix(1.00, 0.00, -0.00, -1.00, 902.9, 252.4)">s</text><text xml:space="preserve" font-family="GillSans,Gill Sans" font-size="41.2" fill="#FEFFFF" transform="matrix(1.00, 0.00, -0.00, -1.00, 918.8, 252.4)">	</text><text xml:space="preserve" font-family="GillSans,Gill Sans" font-size="41.2" fill="#FEFFFF" transform="matrix(1.00, 0.00, -0.00, -1.00, 946.8, 252.4)">
</text><text xml:space="preserve" font-family="GillSans,Gill Sans" font-size="41.2" fill="#FEFFFF" transform="matrix(1.00, 0.00, -0.00, -1.00, 946.8, 252.4)"></text><text xml:space="preserve" font-family="GillSans,Gill Sans" font-size="70.4" fill="#FEFFFF" transform="matrix(1.00, 0.00, -0.00, -1.00, 129.0, 171.7)">•</text><text xml:space="preserve" font-family="GillSans,Gill Sans" font-size="41.2" fill="#FEFFFF" transform="matrix(1.00, 0.00, -0.00, -1.00, 173.1, 181.9)">C</text><text xml:space="preserve" font-family="GillSans,Gill Sans" font-size="41.2" fill="#FEFFFF" transform="matrix(1.00, 0.00, -0.00, -1.00, 202.2, 181.9)">u</text><text xml:space="preserve" font-family="GillSans,Gill Sans" font-size="41.2" fill="#FEFFFF" transform="matrix(1.00, 0.00, -0.00, -1.00, 222.8, 181.9)">c</text><text xml:space="preserve" font-family="GillSans,Gill Sans" font-size="41.2" fill="#FEFFFF" transform="matrix(1.00, 0.00, -0.00, -1.00, 240.8, 181.9)">u</text><text xml:space="preserve" font-family="GillSans,Gill Sans" font-size="41.2" fill="#FEFFFF" transform="matrix(1.00, 0.00, -0.00, -1.00, 261.4, 181.9)">m</text><text xml:space="preserve" font-family="GillSans,Gill Sans" font-size="41.2" fill="#FEFFFF" transform="matrix(1.00, 0.00, -0.00, -1.00, 293.2, 181.9)">b</text><text xml:space="preserve" font-family="GillSans,Gill Sans" font-size="41.2" fill="#FEFFFF" transform="matrix(1.00, 0.00, -0.00, -1.00, 313.7, 181.9)">e</text><text xml:space="preserve" font-family="GillSans,Gill Sans" font-size="41.2" fill="#FEFFFF" transform="matrix(1.00, 0.00, -0.00, -1.00, 333.5, 181.9)">r</text><text xml:space="preserve" font-family="GillSans,Gill Sans" font-size="41.2" fill="#FEFFFF" transform="matrix(1.00, 0.00, -0.00, -1.00, 349.8, 181.9)"> </text><text xml:space="preserve" font-family="GillSans,Gill Sans" font-size="41.2" fill="#FEFFFF" transform="matrix(1.00, 0.00, -0.00, -1.00, 361.2, 181.9)">p</text><text xml:space="preserve" font-family="GillSans,Gill Sans" font-size="41.2" fill="#FEFFFF" transform="matrix(1.00, 0.00, -0.00, -1.00, 381.8, 181.9)">r</text><text xml:space="preserve" font-family="GillSans,Gill Sans" font-size="41.2" fill="#FEFFFF" transform="matrix(1.00, 0.00, -0.00, -1.00, 397.0, 181.9)">o</text><text xml:space="preserve" font-family="GillSans,Gill Sans" font-size="41.2" fill="#FEFFFF" transform="matrix(1.00, 0.00, -0.00, -1.00, 419.7, 181.9)">ﬁ</text><text xml:space="preserve" font-family="GillSans,Gill Sans" font-size="41.2" fill="#FEFFFF" transform="matrix(1.00, 0.00, -0.00, -1.00, 440.3, 181.9)">l</text><text xml:space="preserve" font-family="GillSans,Gill Sans" font-size="41.2" fill="#FEFFFF" transform="matrix(1.00, 0.00, -0.00, -1.00, 449.4, 181.9)">e</text><text xml:space="preserve" font-family="GillSans,Gill Sans" font-size="41.2" fill="#FEFFFF" transform="matrix(1.00, 0.00, -0.00, -1.00, 469.1, 181.9)"> </text><text xml:space="preserve" font-family="GillSans,Gill Sans" font-size="41.2" fill="#FEFFFF" transform="matrix(1.00, 0.00, -0.00, -1.00, 480.5, 181.9)">(</text><text xml:space="preserve" font-family="GillSans,Gill Sans" font-size="41.2" fill="#FEFFFF" transform="matrix(1.00, 0.00, -0.00, -1.00, 493.8, 181.9)">c</text><text xml:space="preserve" font-family="GillSans,Gill Sans" font-size="41.2" fill="#FEFFFF" transform="matrix(1.00, 0.00, -0.00, -1.00, 511.8, 181.9)">o</text><text xml:space="preserve" font-family="GillSans,Gill Sans" font-size="41.2" fill="#FEFFFF" transform="matrix(1.00, 0.00, -0.00, -1.00, 534.5, 181.9)">n</text><text xml:space="preserve" font-family="GillSans,Gill Sans" font-size="41.2" fill="#FEFFFF" transform="matrix(1.00, 0.00, -0.00, -1.00, 555.1, 181.9)">ﬁ</text><text xml:space="preserve" font-family="GillSans,Gill Sans" font-size="41.2" fill="#FEFFFF" transform="matrix(1.00, 0.00, -0.00, -1.00, 575.7, 181.9)">g</text><text xml:space="preserve" font-family="GillSans,Gill Sans" font-size="41.2" fill="#FEFFFF" transform="matrix(1.00, 0.00, -0.00, -1.00, 593.3, 181.9)">/</text><text xml:space="preserve" font-family="GillSans,Gill Sans" font-size="41.2" fill="#FEFFFF" transform="matrix(1.00, 0.00, -0.00, -1.00, 604.8, 181.9)">c</text><text xml:space="preserve" font-family="GillSans,Gill Sans" font-size="41.2" fill="#FEFFFF" transform="matrix(1.00, 0.00, -0.00, -1.00, 622.8, 181.9)">u</text><text xml:space="preserve" font-family="GillSans,Gill Sans" font-size="41.2" fill="#FEFFFF" transform="matrix(1.00, 0.00, -0.00, -1.00, 643.4, 181.9)">c</text><text xml:space="preserve" font-family="GillSans,Gill Sans" font-size="41.2" fill="#FEFFFF" transform="matrix(1.00, 0.00, -0.00, -1.00, 661.4, 181.9)">u</text><text xml:space="preserve" font-family="GillSans,Gill Sans" font-size="41.2" fill="#FEFFFF" transform="matrix(1.00, 0.00, -0.00, -1.00, 682.0, 181.9)">m</text><text xml:space="preserve" font-family="GillSans,Gill Sans" font-size="41.2" fill="#FEFFFF" transform="matrix(1.00, 0.00, -0.00, -1.00, 713.8, 181.9)">b</text><text xml:space="preserve" font-family="GillSans,Gill Sans" font-size="41.2" fill="#FEFFFF" transform="matrix(1.00, 0.00, -0.00, -1.00, 734.3, 181.9)">e</text><text xml:space="preserve" font-family="GillSans,Gill Sans" font-size="41.2" fill="#FEFFFF" transform="matrix(1.00, 0.00, -0.00, -1.00, 754.1, 181.9)">r</text><text xml:space="preserve" font-family="GillSans,Gill Sans" font-size="41.2" fill="#FEFFFF" transform="matrix(1.00, 0.00, -0.00, -1.00, 766.2, 181.9)">.</text><text xml:space="preserve" font-family="GillSans,Gill Sans" font-size="41.2" fill="#FEFFFF" transform="matrix(1.00, 0.00, -0.00, -1.00, 775.3, 181.9)">y</text><text xml:space="preserve" font-family="GillSans,Gill Sans" font-size="41.2" fill="#FEFFFF" transform="matrix(1.00, 0.00, -0.00, -1.00, 793.3, 181.9)">m</text><text xml:space="preserve" font-family="GillSans,Gill Sans" font-size="41.2" fill="#FEFFFF" transform="matrix(1.00, 0.00, -0.00, -1.00, 825.0, 181.9)">l</text><text xml:space="preserve" font-family="GillSans,Gill Sans" font-size="41.2" fill="#FEFFFF" transform="matrix(1.00, 0.00, -0.00, -1.00, 834.1, 181.9)">)</text><text xml:space="preserve" font-family="GillSans,Gill Sans" font-size="41.2" fill="#FEFFFF" transform="matrix(1.00, 0.00, -0.00, -1.00, 847.4, 181.9)"> </text><text xml:space="preserve" font-family="GillSans,Gill Sans" font-size="41.2" fill="#FEFFFF" transform="matrix(1.00, 0.00, -0.00, -1.00, 858.8, 181.9)">f</text><text xml:space="preserve" font-family="GillSans,Gill Sans" font-size="41.2" fill="#FEFFFF" transform="matrix(1.00, 0.00, -0.00, -1.00, 868.7, 181.9)">o</text><text xml:space="preserve" font-family="GillSans,Gill Sans" font-size="41.2" fill="#FEFFFF" transform="matrix(1.00, 0.00, -0.00, -1.00, 891.4, 181.9)">r</text><text xml:space="preserve" font-family="GillSans,Gill Sans" font-size="41.2" fill="#FEFFFF" transform="matrix(1.00, 0.00, -0.00, -1.00, 907.7, 181.9)"> </text><text xml:space="preserve" font-family="GillSans,Gill Sans" font-size="41.2" fill="#FEFFFF" transform="matrix(1.00, 0.00, -0.00, -1.00, 173.1, 134.9)">e</text><text xml:space="preserve" font-family="GillSans,Gill Sans" font-size="41.2" fill="#FEFFFF" transform="matrix(1.00, 0.00, -0.00, -1.00, 192.8, 134.9)">a</text><text xml:space="preserve" font-family="GillSans,Gill Sans" font-size="41.2" fill="#FEFFFF" transform="matrix(1.00, 0.00, -0.00, -1.00, 210.4, 134.9)">c</text><text xml:space="preserve" font-family="GillSans,Gill Sans" font-size="41.2" fill="#FEFFFF" transform="matrix(1.00, 0.00, -0.00, -1.00, 228.4, 134.9)">h</text><text xml:space="preserve" font-family="GillSans,Gill Sans" font-size="41.2" fill="#FEFFFF" transform="matrix(1.00, 0.00, -0.00, -1.00, 249.0, 134.9)"> </text><text xml:space="preserve" font-family="GillSans,Gill Sans" font-size="41.2" fill="#FEFFFF" transform="matrix(1.00, 0.00, -0.00, -1.00, 260.4, 134.9)">p</text><text xml:space="preserve" font-family="GillSans,Gill Sans" font-size="41.2" fill="#FEFFFF" transform="matrix(1.00, 0.00, -0.00, -1.00, 281.0, 134.9)">l</text><text xml:space="preserve" font-family="GillSans,Gill Sans" font-size="41.2" fill="#FEFFFF" transform="matrix(1.00, 0.00, -0.00, -1.00, 290.0, 134.9)">a</text><text xml:space="preserve" font-family="GillSans,Gill Sans" font-size="41.2" fill="#FEFFFF" transform="matrix(1.00, 0.00, -0.00, -1.00, 307.6, 134.9)">t</text><text xml:space="preserve" font-family="GillSans,Gill Sans" font-size="41.2" fill="#FEFFFF" transform="matrix(1.00, 0.00, -0.00, -1.00, 321.3, 134.9)">f</text><text xml:space="preserve" font-family="GillSans,Gill Sans" font-size="41.2" fill="#FEFFFF" transform="matrix(1.00, 0.00, -0.00, -1.00, 331.2, 134.9)">o</text><text xml:space="preserve" font-family="GillSans,Gill Sans" font-size="41.2" fill="#FEFFFF" transform="matrix(1.00, 0.00, -0.00, -1.00, 353.9, 134.9)">r</text><text xml:space="preserve" font-family="GillSans,Gill Sans" font-size="41.2" fill="#FEFFFF" transform="matrix(1.00, 0.00, -0.00, -1.00, 370.2, 134.9)">m</text><text xml:space="preserve" font-family="GillSans,Gill Sans" font-size="36.0" fill="#FEFFFF" transform="matrix(1.00, 0.00, -0.00, -1.00, 218.2, 38.3)">h</text><text xml:space="preserve" font-family="GillSans,Gill Sans" font-size="36.0" fill="#FEFFFF" transform="matrix(1.00, 0.00, -0.00, -1.00, 236.2, 38.3)">t</text><text xml:space="preserve" font-family="GillSans,Gill Sans" font-size="36.0" fill="#FEFFFF" transform="matrix(1.00, 0.00, -0.00, -1.00, 248.2, 38.3)">t</text><text xml:space="preserve" font-family="GillSans,Gill Sans" font-size="36.0" fill="#FEFFFF" transform="matrix(1.00, 0.00, -0.00, -1.00, 260.2, 38.3)">p</text><text xml:space="preserve" font-family="GillSans,Gill Sans" font-size="36.0" fill="#FEFFFF" transform="matrix(1.00, 0.00, -0.00, -1.00, 278.2, 38.3)">s</text><text xml:space="preserve" font-family="GillSans,Gill Sans" font-size="36.0" fill="#FEFFFF" transform="matrix(1.00, 0.00, -0.00, -1.00, 292.0, 38.3)">:</text><text xml:space="preserve" font-family="GillSans,Gill Sans" font-size="36.0" fill="#FEFFFF" transform="matrix(1.00, 0.00, -0.00, -1.00, 299.9, 38.3)">/</text><text xml:space="preserve" font-family="GillSans,Gill Sans" font-size="36.0" fill="#FEFFFF" transform="matrix(1.00, 0.00, -0.00, -1.00, 310.0, 38.3)">/</text><text xml:space="preserve" font-family="GillSans,Gill Sans" font-size="36.0" fill="#FEFFFF" transform="matrix(1.00, 0.00, -0.00, -1.00, 320.1, 38.3)">g</text><text xml:space="preserve" font-family="GillSans,Gill Sans" font-size="36.0" fill="#FEFFFF" transform="matrix(1.00, 0.00, -0.00, -1.00, 335.5, 38.3)">i</text><text xml:space="preserve" font-family="GillSans,Gill Sans" font-size="36.0" fill="#FEFFFF" transform="matrix(1.00, 0.00, -0.00, -1.00, 343.4, 38.3)">t</text><text xml:space="preserve" font-family="GillSans,Gill Sans" font-size="36.0" fill="#FEFFFF" transform="matrix(1.00, 0.00, -0.00, -1.00, 355.4, 38.3)">h</text><text xml:space="preserve" font-family="GillSans,Gill Sans" font-size="36.0" fill="#FEFFFF" transform="matrix(1.00, 0.00, -0.00, -1.00, 373.4, 38.3)">u</text><text xml:space="preserve" font-family="GillSans,Gill Sans" font-size="36.0" fill="#FEFFFF" transform="matrix(1.00, 0.00, -0.00, -1.00, 391.4, 38.3)">b</text><text xml:space="preserve" font-family="GillSans,Gill Sans" font-size="36.0" fill="#FEFFFF" transform="matrix(1.00, 0.00, -0.00, -1.00, 409.0, 38.3)">.</text><text xml:space="preserve" font-family="GillSans,Gill Sans" font-size="36.0" fill="#FEFFFF" transform="matrix(1.00, 0.00, -0.00, -1.00, 416.9, 38.3)">c</text><text xml:space="preserve" font-family="GillSans,Gill Sans" font-size="36.0" fill="#FEFFFF" transform="matrix(1.00, 0.00, -0.00, -1.00, 432.7, 38.3)">o</text><text xml:space="preserve" font-family="GillSans,Gill Sans" font-size="36.0" fill="#FEFFFF" transform="matrix(1.00, 0.00, -0.00, -1.00, 452.6, 38.3)">m</text><text xml:space="preserve" font-family="GillSans,Gill Sans" font-size="36.0" fill="#FEFFFF" transform="matrix(1.00, 0.00, -0.00, -1.00, 480.3, 38.3)">/</text><text xml:space="preserve" font-family="GillSans,Gill Sans" font-size="36.0" fill="#FEFFFF" transform="matrix(1.00, 0.00, -0.00, -1.00, 490.4, 38.3)">c</text><text xml:space="preserve" font-family="GillSans,Gill Sans" font-size="36.0" fill="#FEFFFF" transform="matrix(1.00, 0.00, -0.00, -1.00, 506.2, 38.3)">a</text><text xml:space="preserve" font-family="GillSans,Gill Sans" font-size="36.0" fill="#FEFFFF" transform="matrix(1.00, 0.00, -0.00, -1.00, 521.5, 38.3)">l</text><text xml:space="preserve" font-family="GillSans,Gill Sans" font-size="36.0" fill="#FEFFFF" transform="matrix(1.00, 0.00, -0.00, -1.00, 529.4, 38.3)">a</text><text xml:space="preserve" font-family="GillSans,Gill Sans" font-size="36.0" fill="#FEFFFF" transform="matrix(1.00, 0.00, -0.00, -1.00, 544.8, 38.3)">b</text><text xml:space="preserve" font-family="GillSans,Gill Sans" font-size="36.0" fill="#FEFFFF" transform="matrix(1.00, 0.00, -0.00, -1.00, 562.8, 38.3)">a</text><text xml:space="preserve" font-family="GillSans,Gill Sans" font-size="36.0" fill="#FEFFFF" transform="matrix(1.00, 0.00, -0.00, -1.00, 578.1, 38.3)">s</text><text xml:space="preserve" font-family="GillSans,Gill Sans" font-size="36.0" fill="#FEFFFF" transform="matrix(1.00, 0.00, -0.00, -1.00, 592.0, 38.3)">h</text><text xml:space="preserve" font-family="GillSans,Gill Sans" font-size="36.0" fill="#FEFFFF" transform="matrix(1.00, 0.00, -0.00, -1.00, 610.0, 38.3)">/</text><text xml:space="preserve" font-family="GillSans,Gill Sans" font-size="36.0" fill="#FEFFFF" transform="matrix(1.00, 0.00, -0.00, -1.00, 620.1, 38.3)">x</text><text xml:space="preserve" font-family="GillSans,Gill Sans" font-size="36.0" fill="#FEFFFF" transform="matrix(1.00, 0.00, -0.00, -1.00, 638.1, 38.3)">-</text><text xml:space="preserve" font-family="GillSans,Gill Sans" font-size="36.0" fill="#FEFFFF" transform="matrix(1.00, 0.00, -0.00, -1.00, 649.7, 38.3)">p</text><text xml:space="preserve" font-family="GillSans,Gill Sans" font-size="36.0" fill="#FEFFFF" transform="matrix(1.00, 0.00, -0.00, -1.00, 667.7, 38.3)">l</text><text xml:space="preserve" font-family="GillSans,Gill Sans" font-size="36.0" fill="#FEFFFF" transform="matrix(1.00, 0.00, -0.00, -1.00, 675.6, 38.3)">a</text><text xml:space="preserve" font-family="GillSans,Gill Sans" font-size="36.0" fill="#FEFFFF" transform="matrix(1.00, 0.00, -0.00, -1.00, 691.0, 38.3)">t</text><text xml:space="preserve" font-family="GillSans,Gill Sans" font-size="36.0" fill="#FEFFFF" transform="matrix(1.00, 0.00, -0.00, -1.00, 703.0, 38.3)">f</text><text xml:space="preserve" font-family="GillSans,Gill Sans" font-size="36.0" fill="#FEFFFF" transform="matrix(1.00, 0.00, -0.00, -1.00, 711.6, 38.3)">o</text><text xml:space="preserve" font-family="GillSans,Gill Sans" font-size="36.0" fill="#FEFFFF" transform="matrix(1.00, 0.00, -0.00, -1.00, 731.5, 38.3)">r</text><text xml:space="preserve" font-family="GillSans,Gill Sans" font-size="36.0" fill="#FEFFFF" transform="matrix(1.00, 0.00, -0.00, -1.00, 745.7, 38.3)">m</text><text xml:space="preserve" font-family="GillSans,Gill Sans" font-size="36.0" fill="#FEFFFF" transform="matrix(1.00, 0.00, -0.00, -1.00, 773.5, 38.3)">-</text><text xml:space="preserve" font-family="GillSans,Gill Sans" font-size="36.0" fill="#FEFFFF" transform="matrix(1.00, 0.00, -0.00, -1.00, 785.1, 38.3)">e</text><text xml:space="preserve" font-family="GillSans,Gill Sans" font-size="36.0" fill="#FEFFFF" transform="matrix(1.00, 0.00, -0.00, -1.00, 802.4, 38.3)">x</text><text xml:space="preserve" font-family="GillSans,Gill Sans" font-size="36.0" fill="#FEFFFF" transform="matrix(1.00, 0.00, -0.00, -1.00, 820.4, 38.3)">a</text><text xml:space="preserve" font-family="GillSans,Gill Sans" font-size="36.0" fill="#FEFFFF" transform="matrix(1.00, 0.00, -0.00, -1.00, 835.7, 38.3)">m</text><text xml:space="preserve" font-family="GillSans,Gill Sans" font-size="36.0" fill="#FEFFFF" transform="matrix(1.00, 0.00, -0.00, -1.00, 863.5, 38.3)">p</text><text xml:space="preserve" font-family="GillSans,Gill Sans" font-size="36.0" fill="#FEFFFF" transform="matrix(1.00, 0.00, -0.00, -1.00, 881.5, 38.3)">l</text><text xml:space="preserve" font-family="GillSans,Gill Sans" font-size="36.0" fill="#FEFFFF" transform="matrix(1.00, 0.00, -0.00, -1.00, 889.4, 38.3)">e</text><g><clipPath id="clip0x6180012a5880"><path d="M 217.2 33.7 L 906.7 33.7 L 906.7 37.5 L 217.2 37.5 Z M 217.2 33.7 "></path></clipPath><g clip-path="url(#clip0x6180012a5880)"><path d="M 4.5 39.4 L 693.0 39.4 " fill="none" stroke="#FEFFFF" stroke-width="1.79" transform="matrix(1.00, 0.00, 0.00, -1.00, 213.7, 75.0)"></path></g></g></g></svg>