<?xml version="1.0" encoding="UTF-8" standalone="no"?><svg xmlns="http://www.w3.org/2000/svg" xmlns:xlink="http://www.w3.org/1999/xlink" clip-rule="evenodd" stroke-miterlimit="10" viewBox="0 0 1024 768"><desc>SVG generated by Keynote</desc><defs></defs><g transform="matrix(1.00, 0.00, -0.00, -1.00, 0.0, 768.0)"><g><clipPath id="clip0x6000024b94a0"><path d="M 0.0 768.0 L 1024.0 768.0 L 1024.0 0.0 L 0.0 0.0 Z M 0.0 768.0 "></path></clipPath><g clip-path="url(#clip0x6000024b94a0)"><image xlink:href="../../E6DA75BE-1612-4AD0-BDCC-13BDD2FF18A5/assets/C69F8A4BB357ABB1A0F95B8BFBB7E603.jpeg" width="2048.00" height="1536.00" transform="matrix(0.50, 0.00, -0.00, -0.50, 0.0, 768.0)"></image></g></g><text xml:space="preserve" font-family="GillSans,Gill Sans" font-size="84.0" fill="#FEFFFF" transform="matrix(1.00, 0.00, -0.00, -1.00, 266.7, 623.4)">C</text><text xml:space="preserve" font-family="GillSans,Gill Sans" font-size="84.0" fill="#FEFFFF" transform="matrix(1.00, 0.00, -0.00, -1.00, 326.2, 623.4)">u</text><text xml:space="preserve" font-family="GillSans,Gill Sans" font-size="84.0" fill="#FEFFFF" transform="matrix(1.00, 0.00, -0.00, -1.00, 368.2, 623.4)">c</text><text xml:space="preserve" font-family="GillSans,Gill Sans" font-size="84.0" fill="#FEFFFF" transform="matrix(1.00, 0.00, -0.00, -1.00, 405.0, 623.4)">u</text><text xml:space="preserve" font-family="GillSans,Gill Sans" font-size="84.0" fill="#FEFFFF" transform="matrix(1.00, 0.00, -0.00, -1.00, 447.0, 623.4)">m</text><text xml:space="preserve" font-family="GillSans,Gill Sans" font-size="84.0" fill="#FEFFFF" transform="matrix(1.00, 0.00, -0.00, -1.00, 511.8, 623.4)">b</text><text xml:space="preserve" font-family="GillSans,Gill Sans" font-size="84.0" fill="#FEFFFF" transform="matrix(1.00, 0.00, -0.00, -1.00, 553.8, 623.4)">e</text><text xml:space="preserve" font-family="GillSans,Gill Sans" font-size="84.0" fill="#FEFFFF" transform="matrix(1.00, 0.00, -0.00, -1.00, 594.0, 623.4)">r</text><text xml:space="preserve" font-family="GillSans,Gill Sans" font-size="84.0" fill="#FEFFFF" transform="matrix(1.00, 0.00, -0.00, -1.00, 618.9, 623.4)">.</text><text xml:space="preserve" font-family="GillSans,Gill Sans" font-size="84.0" fill="#FEFFFF" transform="matrix(1.00, 0.00, -0.00, -1.00, 637.3, 623.4)">y</text><text xml:space="preserve" font-family="GillSans,Gill Sans" font-size="84.0" fill="#FEFFFF" transform="matrix(1.00, 0.00, -0.00, -1.00, 674.1, 623.4)">m</text><text xml:space="preserve" font-family="GillSans,Gill Sans" font-size="84.0" fill="#FEFFFF" transform="matrix(1.00, 0.00, -0.00, -1.00, 738.9, 623.4)">l</text><text xml:space="preserve" font-family="GillSans,Gill Sans" font-size="67.5" fill="#FEFFFF" transform="matrix(1.00, 0.00, -0.00, -1.00, 129.0, 493.1)">•</text><text xml:space="preserve" font-family="GillSans,Gill Sans" font-size="39.5" fill="#FEFFFF" transform="matrix(1.00, 0.00, -0.00, -1.00, 171.3, 503.1)">C</text><text xml:space="preserve" font-family="GillSans,Gill Sans" font-size="39.5" fill="#FEFFFF" transform="matrix(1.00, 0.00, -0.00, -1.00, 199.3, 503.1)">u</text><text xml:space="preserve" font-family="GillSans,Gill Sans" font-size="39.5" fill="#FEFFFF" transform="matrix(1.00, 0.00, -0.00, -1.00, 219.0, 503.1)">c</text><text xml:space="preserve" font-family="GillSans,Gill Sans" font-size="39.5" fill="#FEFFFF" transform="matrix(1.00, 0.00, -0.00, -1.00, 236.3, 503.1)">u</text><text xml:space="preserve" font-family="GillSans,Gill Sans" font-size="39.5" fill="#FEFFFF" transform="matrix(1.00, 0.00, -0.00, -1.00, 256.0, 503.1)">m</text><text xml:space="preserve" font-family="GillSans,Gill Sans" font-size="39.5" fill="#FEFFFF" transform="matrix(1.00, 0.00, -0.00, -1.00, 286.5, 503.1)">b</text><text xml:space="preserve" font-family="GillSans,Gill Sans" font-size="39.5" fill="#FEFFFF" transform="matrix(1.00, 0.00, -0.00, -1.00, 306.2, 503.1)">e</text><text xml:space="preserve" font-family="GillSans,Gill Sans" font-size="39.5" fill="#FEFFFF" transform="matrix(1.00, 0.00, -0.00, -1.00, 325.1, 503.1)">r</text><text xml:space="preserve" font-family="GillSans,Gill Sans" font-size="39.5" fill="#FEFFFF" transform="matrix(1.00, 0.00, -0.00, -1.00, 340.7, 503.1)"> </text><text xml:space="preserve" font-family="GillSans,Gill Sans" font-size="39.5" fill="#FEFFFF" transform="matrix(1.00, 0.00, -0.00, -1.00, 351.7, 503.1)">l</text><text xml:space="preserve" font-family="GillSans,Gill Sans" font-size="39.5" fill="#FEFFFF" transform="matrix(1.00, 0.00, -0.00, -1.00, 360.4, 503.1)">e</text><text xml:space="preserve" font-family="GillSans,Gill Sans" font-size="39.5" fill="#FEFFFF" transform="matrix(1.00, 0.00, -0.00, -1.00, 379.3, 503.1)">t</text><text xml:space="preserve" font-family="GillSans,Gill Sans" font-size="39.5" fill="#FEFFFF" transform="matrix(1.00, 0.00, -0.00, -1.00, 392.4, 503.1)">s</text><text xml:space="preserve" font-family="GillSans,Gill Sans" font-size="39.5" fill="#FEFFFF" transform="matrix(1.00, 0.00, -0.00, -1.00, 407.6, 503.1)"> </text><text xml:space="preserve" font-family="GillSans,Gill Sans" font-size="39.5" fill="#FEFFFF" transform="matrix(1.00, 0.00, -0.00, -1.00, 418.6, 503.1)">y</text><text xml:space="preserve" font-family="GillSans,Gill Sans" font-size="39.5" fill="#FEFFFF" transform="matrix(1.00, 0.00, -0.00, -1.00, 435.1, 503.1)">o</text><text xml:space="preserve" font-family="GillSans,Gill Sans" font-size="39.5" fill="#FEFFFF" transform="matrix(1.00, 0.00, -0.00, -1.00, 456.9, 503.1)">u</text><text xml:space="preserve" font-family="GillSans,Gill Sans" font-size="39.5" fill="#FEFFFF" transform="matrix(1.00, 0.00, -0.00, -1.00, 476.6, 503.1)"> </text><text xml:space="preserve" font-family="GillSans,Gill Sans" font-size="39.5" fill="#FEFFFF" transform="matrix(1.00, 0.00, -0.00, -1.00, 487.6, 503.1)">s</text><text xml:space="preserve" font-family="GillSans,Gill Sans" font-size="39.5" fill="#FEFFFF" transform="matrix(1.00, 0.00, -0.00, -1.00, 502.7, 503.1)">t</text><text xml:space="preserve" font-family="GillSans,Gill Sans" font-size="39.5" fill="#FEFFFF" transform="matrix(1.00, 0.00, -0.00, -1.00, 515.9, 503.1)">o</text><text xml:space="preserve" font-family="GillSans,Gill Sans" font-size="39.5" fill="#FEFFFF" transform="matrix(1.00, 0.00, -0.00, -1.00, 537.7, 503.1)">r</text><text xml:space="preserve" font-family="GillSans,Gill Sans" font-size="39.5" fill="#FEFFFF" transform="matrix(1.00, 0.00, -0.00, -1.00, 552.5, 503.1)">e</text><text xml:space="preserve" font-family="GillSans,Gill Sans" font-size="39.5" fill="#FEFFFF" transform="matrix(1.00, 0.00, -0.00, -1.00, 571.4, 503.1)"> </text><text xml:space="preserve" font-family="GillSans,Gill Sans" font-size="39.5" fill="#FEFFFF" transform="matrix(1.00, 0.00, -0.00, -1.00, 582.4, 503.1)">a</text><text xml:space="preserve" font-family="GillSans,Gill Sans" font-size="39.5" fill="#FEFFFF" transform="matrix(1.00, 0.00, -0.00, -1.00, 599.2, 503.1)">n</text><text xml:space="preserve" font-family="GillSans,Gill Sans" font-size="39.5" fill="#FEFFFF" transform="matrix(1.00, 0.00, -0.00, -1.00, 619.0, 503.1)">d</text><text xml:space="preserve" font-family="GillSans,Gill Sans" font-size="39.5" fill="#FEFFFF" transform="matrix(1.00, 0.00, -0.00, -1.00, 639.1, 503.1)"> </text><text xml:space="preserve" font-family="GillSans,Gill Sans" font-size="39.5" fill="#FEFFFF" transform="matrix(1.00, 0.00, -0.00, -1.00, 650.0, 503.1)">r</text><text xml:space="preserve" font-family="GillSans,Gill Sans" font-size="39.5" fill="#FEFFFF" transform="matrix(1.00, 0.00, -0.00, -1.00, 664.9, 503.1)">e</text><text xml:space="preserve" font-family="GillSans,Gill Sans" font-size="39.5" fill="#FEFFFF" transform="matrix(1.00, 0.00, -0.00, -1.00, 683.8, 503.1)">u</text><text xml:space="preserve" font-family="GillSans,Gill Sans" font-size="39.5" fill="#FEFFFF" transform="matrix(1.00, 0.00, -0.00, -1.00, 703.5, 503.1)">s</text><text xml:space="preserve" font-family="GillSans,Gill Sans" font-size="39.5" fill="#FEFFFF" transform="matrix(1.00, 0.00, -0.00, -1.00, 718.7, 503.1)">e</text><text xml:space="preserve" font-family="GillSans,Gill Sans" font-size="39.5" fill="#FEFFFF" transform="matrix(1.00, 0.00, -0.00, -1.00, 737.6, 503.1)"> </text><text xml:space="preserve" font-family="GillSans,Gill Sans" font-size="39.5" fill="#FEFFFF" transform="matrix(1.00, 0.00, -0.00, -1.00, 748.6, 503.1)">c</text><text xml:space="preserve" font-family="GillSans,Gill Sans" font-size="39.5" fill="#FEFFFF" transform="matrix(1.00, 0.00, -0.00, -1.00, 765.9, 503.1)">o</text><text xml:space="preserve" font-family="GillSans,Gill Sans" font-size="39.5" fill="#FEFFFF" transform="matrix(1.00, 0.00, -0.00, -1.00, 787.7, 503.1)">m</text><text xml:space="preserve" font-family="GillSans,Gill Sans" font-size="39.5" fill="#FEFFFF" transform="matrix(1.00, 0.00, -0.00, -1.00, 818.1, 503.1)">m</text><text xml:space="preserve" font-family="GillSans,Gill Sans" font-size="39.5" fill="#FEFFFF" transform="matrix(1.00, 0.00, -0.00, -1.00, 848.5, 503.1)">o</text><text xml:space="preserve" font-family="GillSans,Gill Sans" font-size="39.5" fill="#FEFFFF" transform="matrix(1.00, 0.00, -0.00, -1.00, 870.3, 503.1)">n</text><text xml:space="preserve" font-family="GillSans,Gill Sans" font-size="39.5" fill="#FEFFFF" transform="matrix(1.00, 0.00, -0.00, -1.00, 890.0, 503.1)">l</text><text xml:space="preserve" font-family="GillSans,Gill Sans" font-size="39.5" fill="#FEFFFF" transform="matrix(1.00, 0.00, -0.00, -1.00, 898.3, 503.1)">y</text><text xml:space="preserve" font-family="GillSans,Gill Sans" font-size="39.5" fill="#FEFFFF" transform="matrix(1.00, 0.00, -0.00, -1.00, 915.6, 503.1)"> </text><text xml:space="preserve" font-family="GillSans,Gill Sans" font-size="39.5" fill="#FEFFFF" transform="matrix(1.00, 0.00, -0.00, -1.00, 171.3, 458.1)">u</text><text xml:space="preserve" font-family="GillSans,Gill Sans" font-size="39.5" fill="#FEFFFF" transform="matrix(1.00, 0.00, -0.00, -1.00, 191.0, 458.1)">s</text><text xml:space="preserve" font-family="GillSans,Gill Sans" font-size="39.5" fill="#FEFFFF" transform="matrix(1.00, 0.00, -0.00, -1.00, 206.2, 458.1)">e</text><text xml:space="preserve" font-family="GillSans,Gill Sans" font-size="39.5" fill="#FEFFFF" transform="matrix(1.00, 0.00, -0.00, -1.00, 225.1, 458.1)">d</text><text xml:space="preserve" font-family="GillSans,Gill Sans" font-size="39.5" fill="#FEFFFF" transform="matrix(1.00, 0.00, -0.00, -1.00, 245.3, 458.1)"> </text><text xml:space="preserve" font-family="GillSans,Gill Sans" font-size="39.5" fill="#FEFFFF" transform="matrix(1.00, 0.00, -0.00, -1.00, 256.2, 458.1)">c</text><text xml:space="preserve" font-family="GillSans,Gill Sans" font-size="39.5" fill="#FEFFFF" transform="matrix(1.00, 0.00, -0.00, -1.00, 273.5, 458.1)">u</text><text xml:space="preserve" font-family="GillSans,Gill Sans" font-size="39.5" fill="#FEFFFF" transform="matrix(1.00, 0.00, -0.00, -1.00, 293.2, 458.1)">c</text><text xml:space="preserve" font-family="GillSans,Gill Sans" font-size="39.5" fill="#FEFFFF" transform="matrix(1.00, 0.00, -0.00, -1.00, 310.5, 458.1)">u</text><text xml:space="preserve" font-family="GillSans,Gill Sans" font-size="39.5" fill="#FEFFFF" transform="matrix(1.00, 0.00, -0.00, -1.00, 330.3, 458.1)">m</text><text xml:space="preserve" font-family="GillSans,Gill Sans" font-size="39.5" fill="#FEFFFF" transform="matrix(1.00, 0.00, -0.00, -1.00, 360.7, 458.1)">b</text><text xml:space="preserve" font-family="GillSans,Gill Sans" font-size="39.5" fill="#FEFFFF" transform="matrix(1.00, 0.00, -0.00, -1.00, 380.5, 458.1)">e</text><text xml:space="preserve" font-family="GillSans,Gill Sans" font-size="39.5" fill="#FEFFFF" transform="matrix(1.00, 0.00, -0.00, -1.00, 399.4, 458.1)">r</text><text xml:space="preserve" font-family="GillSans,Gill Sans" font-size="39.5" fill="#FEFFFF" transform="matrix(1.00, 0.00, -0.00, -1.00, 415.0, 458.1)"> </text><text xml:space="preserve" font-family="GillSans,Gill Sans" font-size="39.5" fill="#FEFFFF" transform="matrix(1.00, 0.00, -0.00, -1.00, 426.0, 458.1)">c</text><text xml:space="preserve" font-family="GillSans,Gill Sans" font-size="39.5" fill="#FEFFFF" transform="matrix(1.00, 0.00, -0.00, -1.00, 443.3, 458.1)">o</text><text xml:space="preserve" font-family="GillSans,Gill Sans" font-size="39.5" fill="#FEFFFF" transform="matrix(1.00, 0.00, -0.00, -1.00, 465.0, 458.1)">m</text><text xml:space="preserve" font-family="GillSans,Gill Sans" font-size="39.5" fill="#FEFFFF" transform="matrix(1.00, 0.00, -0.00, -1.00, 495.5, 458.1)">m</text><text xml:space="preserve" font-family="GillSans,Gill Sans" font-size="39.5" fill="#FEFFFF" transform="matrix(1.00, 0.00, -0.00, -1.00, 525.9, 458.1)">a</text><text xml:space="preserve" font-family="GillSans,Gill Sans" font-size="39.5" fill="#FEFFFF" transform="matrix(1.00, 0.00, -0.00, -1.00, 542.7, 458.1)">n</text><text xml:space="preserve" font-family="GillSans,Gill Sans" font-size="39.5" fill="#FEFFFF" transform="matrix(1.00, 0.00, -0.00, -1.00, 562.5, 458.1)">d</text><text xml:space="preserve" font-family="GillSans,Gill Sans" font-size="39.5" fill="#FEFFFF" transform="matrix(1.00, 0.00, -0.00, -1.00, 582.6, 458.1)"> </text><text xml:space="preserve" font-family="GillSans,Gill Sans" font-size="39.5" fill="#FEFFFF" transform="matrix(1.00, 0.00, -0.00, -1.00, 593.6, 458.1)">l</text><text xml:space="preserve" font-family="GillSans,Gill Sans" font-size="39.5" fill="#FEFFFF" transform="matrix(1.00, 0.00, -0.00, -1.00, 602.2, 458.1)">i</text><text xml:space="preserve" font-family="GillSans,Gill Sans" font-size="39.5" fill="#FEFFFF" transform="matrix(1.00, 0.00, -0.00, -1.00, 610.9, 458.1)">n</text><text xml:space="preserve" font-family="GillSans,Gill Sans" font-size="39.5" fill="#FEFFFF" transform="matrix(1.00, 0.00, -0.00, -1.00, 630.6, 458.1)">e</text><text xml:space="preserve" font-family="GillSans,Gill Sans" font-size="39.5" fill="#FEFFFF" transform="matrix(1.00, 0.00, -0.00, -1.00, 649.5, 458.1)"> </text><text xml:space="preserve" font-family="GillSans,Gill Sans" font-size="39.5" fill="#FEFFFF" transform="matrix(1.00, 0.00, -0.00, -1.00, 660.5, 458.1)">a</text><text xml:space="preserve" font-family="GillSans,Gill Sans" font-size="39.5" fill="#FEFFFF" transform="matrix(1.00, 0.00, -0.00, -1.00, 677.3, 458.1)">r</text><text xml:space="preserve" font-family="GillSans,Gill Sans" font-size="39.5" fill="#FEFFFF" transform="matrix(1.00, 0.00, -0.00, -1.00, 693.0, 458.1)">g</text><text xml:space="preserve" font-family="GillSans,Gill Sans" font-size="39.5" fill="#FEFFFF" transform="matrix(1.00, 0.00, -0.00, -1.00, 709.8, 458.1)">u</text><text xml:space="preserve" font-family="GillSans,Gill Sans" font-size="39.5" fill="#FEFFFF" transform="matrix(1.00, 0.00, -0.00, -1.00, 729.6, 458.1)">m</text><text xml:space="preserve" font-family="GillSans,Gill Sans" font-size="39.5" fill="#FEFFFF" transform="matrix(1.00, 0.00, -0.00, -1.00, 760.0, 458.1)">e</text><text xml:space="preserve" font-family="GillSans,Gill Sans" font-size="39.5" fill="#FEFFFF" transform="matrix(1.00, 0.00, -0.00, -1.00, 778.9, 458.1)">n</text><text xml:space="preserve" font-family="GillSans,Gill Sans" font-size="39.5" fill="#FEFFFF" transform="matrix(1.00, 0.00, -0.00, -1.00, 798.6, 458.1)">t</text><text xml:space="preserve" font-family="GillSans,Gill Sans" font-size="39.5" fill="#FEFFFF" transform="matrix(1.00, 0.00, -0.00, -1.00, 811.8, 458.1)">s</text><text xml:space="preserve" font-family="GillSans,Gill Sans" font-size="39.5" fill="#FEFFFF" transform="matrix(1.00, 0.00, -0.00, -1.00, 827.0, 458.1)"> </text><text xml:space="preserve" font-family="GillSans,Gill Sans" font-size="39.5" fill="#FEFFFF" transform="matrix(1.00, 0.00, -0.00, -1.00, 837.9, 458.1)">f</text><text xml:space="preserve" font-family="GillSans,Gill Sans" font-size="39.5" fill="#FEFFFF" transform="matrix(1.00, 0.00, -0.00, -1.00, 847.4, 458.1)">o</text><text xml:space="preserve" font-family="GillSans,Gill Sans" font-size="39.5" fill="#FEFFFF" transform="matrix(1.00, 0.00, -0.00, -1.00, 869.2, 458.1)">r</text><text xml:space="preserve" font-family="GillSans,Gill Sans" font-size="39.5" fill="#FEFFFF" transform="matrix(1.00, 0.00, -0.00, -1.00, 884.8, 458.1)"> </text><text xml:space="preserve" font-family="GillSans,Gill Sans" font-size="39.5" fill="#FEFFFF" transform="matrix(1.00, 0.00, -0.00, -1.00, 895.8, 458.1)">a</text><text xml:space="preserve" font-family="GillSans,Gill Sans" font-size="39.5" fill="#FEFFFF" transform="matrix(1.00, 0.00, -0.00, -1.00, 912.6, 458.1)"> </text><text xml:space="preserve" font-family="GillSans,Gill Sans" font-size="39.5" fill="#FEFFFF" transform="matrix(1.00, 0.00, -0.00, -1.00, 171.3, 413.1)">p</text><text xml:space="preserve" font-family="GillSans,Gill Sans" font-size="39.5" fill="#FEFFFF" transform="matrix(1.00, 0.00, -0.00, -1.00, 191.0, 413.1)">r</text><text xml:space="preserve" font-family="GillSans,Gill Sans" font-size="39.5" fill="#FEFFFF" transform="matrix(1.00, 0.00, -0.00, -1.00, 205.7, 413.1)">o</text><text xml:space="preserve" font-family="GillSans,Gill Sans" font-size="39.5" fill="#FEFFFF" transform="matrix(1.00, 0.00, -0.00, -1.00, 227.5, 413.1)">j</text><text xml:space="preserve" font-family="GillSans,Gill Sans" font-size="39.5" fill="#FEFFFF" transform="matrix(1.00, 0.00, -0.00, -1.00, 236.1, 413.1)">e</text><text xml:space="preserve" font-family="GillSans,Gill Sans" font-size="39.5" fill="#FEFFFF" transform="matrix(1.00, 0.00, -0.00, -1.00, 255.0, 413.1)">c</text><text xml:space="preserve" font-family="GillSans,Gill Sans" font-size="39.5" fill="#FEFFFF" transform="matrix(1.00, 0.00, -0.00, -1.00, 272.3, 413.1)">t</text><text xml:space="preserve" font-family="GillSans,Gill Sans" font-size="39.5" fill="#FEFFFF" transform="matrix(1.00, 0.00, -0.00, -1.00, 285.5, 413.1)"> </text><text xml:space="preserve" font-family="GillSans,Gill Sans" font-size="39.5" fill="#FEFFFF" transform="matrix(1.00, 0.00, -0.00, -1.00, 296.4, 413.1)">i</text><text xml:space="preserve" font-family="GillSans,Gill Sans" font-size="39.5" fill="#FEFFFF" transform="matrix(1.00, 0.00, -0.00, -1.00, 305.1, 413.1)">n</text><text xml:space="preserve" font-family="GillSans,Gill Sans" font-size="39.5" fill="#FEFFFF" transform="matrix(1.00, 0.00, -0.00, -1.00, 324.8, 413.1)"> </text><text xml:space="preserve" font-family="GillSans,Gill Sans" font-size="39.5" fill="#FEFFFF" transform="matrix(1.00, 0.00, -0.00, -1.00, 335.8, 413.1)">a</text><text xml:space="preserve" font-family="GillSans,Gill Sans" font-size="39.5" fill="#FEFFFF" transform="matrix(1.00, 0.00, -0.00, -1.00, 352.6, 413.1)"> </text><text xml:space="preserve" font-family="GillSans,Gill Sans" font-size="39.5" fill="#FEFFFF" transform="matrix(1.00, 0.00, -0.00, -1.00, 363.6, 413.1)">c</text><text xml:space="preserve" font-family="GillSans,Gill Sans" font-size="39.5" fill="#FEFFFF" transform="matrix(1.00, 0.00, -0.00, -1.00, 380.9, 413.1)">u</text><text xml:space="preserve" font-family="GillSans,Gill Sans" font-size="39.5" fill="#FEFFFF" transform="matrix(1.00, 0.00, -0.00, -1.00, 400.6, 413.1)">c</text><text xml:space="preserve" font-family="GillSans,Gill Sans" font-size="39.5" fill="#FEFFFF" transform="matrix(1.00, 0.00, -0.00, -1.00, 417.9, 413.1)">u</text><text xml:space="preserve" font-family="GillSans,Gill Sans" font-size="39.5" fill="#FEFFFF" transform="matrix(1.00, 0.00, -0.00, -1.00, 437.7, 413.1)">m</text><text xml:space="preserve" font-family="GillSans,Gill Sans" font-size="39.5" fill="#FEFFFF" transform="matrix(1.00, 0.00, -0.00, -1.00, 468.1, 413.1)">b</text><text xml:space="preserve" font-family="GillSans,Gill Sans" font-size="39.5" fill="#FEFFFF" transform="matrix(1.00, 0.00, -0.00, -1.00, 487.8, 413.1)">e</text><text xml:space="preserve" font-family="GillSans,Gill Sans" font-size="39.5" fill="#FEFFFF" transform="matrix(1.00, 0.00, -0.00, -1.00, 506.8, 413.1)">r</text><text xml:space="preserve" font-family="GillSans,Gill Sans" font-size="39.5" fill="#FEFFFF" transform="matrix(1.00, 0.00, -0.00, -1.00, 518.4, 413.1)">.</text><text xml:space="preserve" font-family="GillSans,Gill Sans" font-size="39.5" fill="#FEFFFF" transform="matrix(1.00, 0.00, -0.00, -1.00, 527.1, 413.1)">y</text><text xml:space="preserve" font-family="GillSans,Gill Sans" font-size="39.5" fill="#FEFFFF" transform="matrix(1.00, 0.00, -0.00, -1.00, 544.4, 413.1)">m</text><text xml:space="preserve" font-family="GillSans,Gill Sans" font-size="39.5" fill="#FEFFFF" transform="matrix(1.00, 0.00, -0.00, -1.00, 574.8, 413.1)">l</text><text xml:space="preserve" font-family="GillSans,Gill Sans" font-size="39.5" fill="#FEFFFF" transform="matrix(1.00, 0.00, -0.00, -1.00, 583.5, 413.1)">/</text><text xml:space="preserve" font-family="GillSans,Gill Sans" font-size="39.5" fill="#FEFFFF" transform="matrix(1.00, 0.00, -0.00, -1.00, 594.6, 413.1)">y</text><text xml:space="preserve" font-family="GillSans,Gill Sans" font-size="39.5" fill="#FEFFFF" transform="matrix(1.00, 0.00, -0.00, -1.00, 611.9, 413.1)">a</text><text xml:space="preserve" font-family="GillSans,Gill Sans" font-size="39.5" fill="#FEFFFF" transform="matrix(1.00, 0.00, -0.00, -1.00, 628.7, 413.1)">m</text><text xml:space="preserve" font-family="GillSans,Gill Sans" font-size="39.5" fill="#FEFFFF" transform="matrix(1.00, 0.00, -0.00, -1.00, 659.1, 413.1)">l</text><text xml:space="preserve" font-family="GillSans,Gill Sans" font-size="39.5" fill="#FEFFFF" transform="matrix(1.00, 0.00, -0.00, -1.00, 667.8, 413.1)"> </text><text xml:space="preserve" font-family="GillSans,Gill Sans" font-size="39.5" fill="#FEFFFF" transform="matrix(1.00, 0.00, -0.00, -1.00, 678.8, 413.1)">ﬁ</text><text xml:space="preserve" font-family="GillSans,Gill Sans" font-size="39.5" fill="#FEFFFF" transform="matrix(1.00, 0.00, -0.00, -1.00, 698.5, 413.1)">l</text><text xml:space="preserve" font-family="GillSans,Gill Sans" font-size="39.5" fill="#FEFFFF" transform="matrix(1.00, 0.00, -0.00, -1.00, 707.2, 413.1)">e</text><text xml:space="preserve" font-family="GillSans,Gill Sans" font-size="39.5" fill="#FEFFFF" transform="matrix(1.00, 0.00, -0.00, -1.00, 726.9, 413.1)">.</text><text xml:space="preserve" font-family="GillSans,Gill Sans" font-size="39.5" fill="#FEFFFF" transform="matrix(1.00, 0.00, -0.00, -1.00, 735.5, 413.1)">	</text><text xml:space="preserve" font-family="GillSans,Gill Sans" font-size="39.5" fill="#FEFFFF" transform="matrix(1.00, 0.00, -0.00, -1.00, 763.5, 413.1)">
</text><text xml:space="preserve" font-family="GillSans,Gill Sans" font-size="39.5" fill="#FEFFFF" transform="matrix(1.00, 0.00, -0.00, -1.00, 763.5, 413.1)"></text><text xml:space="preserve" font-family="GillSans,Gill Sans" font-size="67.5" fill="#FEFFFF" transform="matrix(1.00, 0.00, -0.00, -1.00, 129.0, 335.5)">•</text><text xml:space="preserve" font-family="GillSans,Gill Sans" font-size="39.5" fill="#FEFFFF" transform="matrix(1.00, 0.00, -0.00, -1.00, 171.3, 345.5)">T</text><text xml:space="preserve" font-family="GillSans,Gill Sans" font-size="39.5" fill="#FEFFFF" transform="matrix(1.00, 0.00, -0.00, -1.00, 195.1, 345.5)">h</text><text xml:space="preserve" font-family="GillSans,Gill Sans" font-size="39.5" fill="#FEFFFF" transform="matrix(1.00, 0.00, -0.00, -1.00, 214.9, 345.5)">i</text><text xml:space="preserve" font-family="GillSans,Gill Sans" font-size="39.5" fill="#FEFFFF" transform="matrix(1.00, 0.00, -0.00, -1.00, 223.5, 345.5)">s</text><text xml:space="preserve" font-family="GillSans,Gill Sans" font-size="39.5" fill="#FEFFFF" transform="matrix(1.00, 0.00, -0.00, -1.00, 238.7, 345.5)"> </text><text xml:space="preserve" font-family="GillSans,Gill Sans" font-size="39.5" fill="#FEFFFF" transform="matrix(1.00, 0.00, -0.00, -1.00, 249.7, 345.5)">ﬁ</text><text xml:space="preserve" font-family="GillSans,Gill Sans" font-size="39.5" fill="#FEFFFF" transform="matrix(1.00, 0.00, -0.00, -1.00, 269.4, 345.5)">l</text><text xml:space="preserve" font-family="GillSans,Gill Sans" font-size="39.5" fill="#FEFFFF" transform="matrix(1.00, 0.00, -0.00, -1.00, 278.1, 345.5)">e</text><text xml:space="preserve" font-family="GillSans,Gill Sans" font-size="39.5" fill="#FEFFFF" transform="matrix(1.00, 0.00, -0.00, -1.00, 297.0, 345.5)"> </text><text xml:space="preserve" font-family="GillSans,Gill Sans" font-size="39.5" fill="#FEFFFF" transform="matrix(1.00, 0.00, -0.00, -1.00, 308.0, 345.5)">m</text><text xml:space="preserve" font-family="GillSans,Gill Sans" font-size="39.5" fill="#FEFFFF" transform="matrix(1.00, 0.00, -0.00, -1.00, 338.0, 345.5)">u</text><text xml:space="preserve" font-family="GillSans,Gill Sans" font-size="39.5" fill="#FEFFFF" transform="matrix(1.00, 0.00, -0.00, -1.00, 357.8, 345.5)">s</text><text xml:space="preserve" font-family="GillSans,Gill Sans" font-size="39.5" fill="#FEFFFF" transform="matrix(1.00, 0.00, -0.00, -1.00, 372.9, 345.5)">t</text><text xml:space="preserve" font-family="GillSans,Gill Sans" font-size="39.5" fill="#FEFFFF" transform="matrix(1.00, 0.00, -0.00, -1.00, 386.1, 345.5)"> </text><text xml:space="preserve" font-family="GillSans,Gill Sans" font-size="39.5" fill="#FEFFFF" transform="matrix(1.00, 0.00, -0.00, -1.00, 397.1, 345.5)">b</text><text xml:space="preserve" font-family="GillSans,Gill Sans" font-size="39.5" fill="#FEFFFF" transform="matrix(1.00, 0.00, -0.00, -1.00, 416.8, 345.5)">e</text><text xml:space="preserve" font-family="GillSans,Gill Sans" font-size="39.5" fill="#FEFFFF" transform="matrix(1.00, 0.00, -0.00, -1.00, 435.7, 345.5)"> </text><text xml:space="preserve" font-family="GillSans,Gill Sans" font-size="39.5" fill="#FEFFFF" transform="matrix(1.00, 0.00, -0.00, -1.00, 446.7, 345.5)">i</text><text xml:space="preserve" font-family="GillSans,Gill Sans" font-size="39.5" fill="#FEFFFF" transform="matrix(1.00, 0.00, -0.00, -1.00, 455.3, 345.5)">n</text><text xml:space="preserve" font-family="GillSans,Gill Sans" font-size="39.5" fill="#FEFFFF" transform="matrix(1.00, 0.00, -0.00, -1.00, 475.1, 345.5)"> </text><text xml:space="preserve" font-family="GillSans,Gill Sans" font-size="39.5" fill="#FEFFFF" transform="matrix(1.00, 0.00, -0.00, -1.00, 486.0, 345.5)">c</text><text xml:space="preserve" font-family="GillSans,Gill Sans" font-size="39.5" fill="#FEFFFF" transform="matrix(1.00, 0.00, -0.00, -1.00, 503.3, 345.5)">u</text><text xml:space="preserve" font-family="GillSans,Gill Sans" font-size="39.5" fill="#FEFFFF" transform="matrix(1.00, 0.00, -0.00, -1.00, 523.1, 345.5)">r</text><text xml:space="preserve" font-family="GillSans,Gill Sans" font-size="39.5" fill="#FEFFFF" transform="matrix(1.00, 0.00, -0.00, -1.00, 538.3, 345.5)">r</text><text xml:space="preserve" font-family="GillSans,Gill Sans" font-size="39.5" fill="#FEFFFF" transform="matrix(1.00, 0.00, -0.00, -1.00, 553.2, 345.5)">e</text><text xml:space="preserve" font-family="GillSans,Gill Sans" font-size="39.5" fill="#FEFFFF" transform="matrix(1.00, 0.00, -0.00, -1.00, 572.1, 345.5)">n</text><text xml:space="preserve" font-family="GillSans,Gill Sans" font-size="39.5" fill="#FEFFFF" transform="matrix(1.00, 0.00, -0.00, -1.00, 591.8, 345.5)">t</text><text xml:space="preserve" font-family="GillSans,Gill Sans" font-size="39.5" fill="#FEFFFF" transform="matrix(1.00, 0.00, -0.00, -1.00, 604.9, 345.5)"> </text><text xml:space="preserve" font-family="GillSans,Gill Sans" font-size="39.5" fill="#FEFFFF" transform="matrix(1.00, 0.00, -0.00, -1.00, 615.9, 345.5)">w</text><text xml:space="preserve" font-family="GillSans,Gill Sans" font-size="39.5" fill="#FEFFFF" transform="matrix(1.00, 0.00, -0.00, -1.00, 643.5, 345.5)">o</text><text xml:space="preserve" font-family="GillSans,Gill Sans" font-size="39.5" fill="#FEFFFF" transform="matrix(1.00, 0.00, -0.00, -1.00, 665.3, 345.5)">r</text><text xml:space="preserve" font-family="GillSans,Gill Sans" font-size="39.5" fill="#FEFFFF" transform="matrix(1.00, 0.00, -0.00, -1.00, 680.9, 345.5)">k</text><text xml:space="preserve" font-family="GillSans,Gill Sans" font-size="39.5" fill="#FEFFFF" transform="matrix(1.00, 0.00, -0.00, -1.00, 699.8, 345.5)">i</text><text xml:space="preserve" font-family="GillSans,Gill Sans" font-size="39.5" fill="#FEFFFF" transform="matrix(1.00, 0.00, -0.00, -1.00, 708.5, 345.5)">n</text><text xml:space="preserve" font-family="GillSans,Gill Sans" font-size="39.5" fill="#FEFFFF" transform="matrix(1.00, 0.00, -0.00, -1.00, 728.2, 345.5)">g</text><text xml:space="preserve" font-family="GillSans,Gill Sans" font-size="39.5" fill="#FEFFFF" transform="matrix(1.00, 0.00, -0.00, -1.00, 745.1, 345.5)"> </text><text xml:space="preserve" font-family="GillSans,Gill Sans" font-size="39.5" fill="#FEFFFF" transform="matrix(1.00, 0.00, -0.00, -1.00, 756.0, 345.5)">d</text><text xml:space="preserve" font-family="GillSans,Gill Sans" font-size="39.5" fill="#FEFFFF" transform="matrix(1.00, 0.00, -0.00, -1.00, 776.2, 345.5)">i</text><text xml:space="preserve" font-family="GillSans,Gill Sans" font-size="39.5" fill="#FEFFFF" transform="matrix(1.00, 0.00, -0.00, -1.00, 784.8, 345.5)">r</text><text xml:space="preserve" font-family="GillSans,Gill Sans" font-size="39.5" fill="#FEFFFF" transform="matrix(1.00, 0.00, -0.00, -1.00, 799.7, 345.5)">e</text><text xml:space="preserve" font-family="GillSans,Gill Sans" font-size="39.5" fill="#FEFFFF" transform="matrix(1.00, 0.00, -0.00, -1.00, 818.6, 345.5)">c</text><text xml:space="preserve" font-family="GillSans,Gill Sans" font-size="39.5" fill="#FEFFFF" transform="matrix(1.00, 0.00, -0.00, -1.00, 835.9, 345.5)">t</text><text xml:space="preserve" font-family="GillSans,Gill Sans" font-size="39.5" fill="#FEFFFF" transform="matrix(1.00, 0.00, -0.00, -1.00, 849.0, 345.5)">o</text><text xml:space="preserve" font-family="GillSans,Gill Sans" font-size="39.5" fill="#FEFFFF" transform="matrix(1.00, 0.00, -0.00, -1.00, 870.8, 345.5)">r</text><text xml:space="preserve" font-family="GillSans,Gill Sans" font-size="39.5" fill="#FEFFFF" transform="matrix(1.00, 0.00, -0.00, -1.00, 887.6, 345.5)">y</text><text xml:space="preserve" font-family="GillSans,Gill Sans" font-size="39.5" fill="#FEFFFF" transform="matrix(1.00, 0.00, -0.00, -1.00, 901.7, 345.5)">.</text><text xml:space="preserve" font-family="GillSans,Gill Sans" font-size="39.5" fill="#FEFFFF" transform="matrix(1.00, 0.00, -0.00, -1.00, 910.4, 345.5)">	</text><text xml:space="preserve" font-family="GillSans,Gill Sans" font-size="39.5" fill="#FEFFFF" transform="matrix(1.00, 0.00, -0.00, -1.00, 938.4, 345.5)">
</text><text xml:space="preserve" font-family="GillSans,Gill Sans" font-size="39.5" fill="#FEFFFF" transform="matrix(1.00, 0.00, -0.00, -1.00, 938.4, 345.5)"></text><text xml:space="preserve" font-family="GillSans,Gill Sans" font-size="67.5" fill="#FEFFFF" transform="matrix(1.00, 0.00, -0.00, -1.00, 129.0, 267.9)">•</text><text xml:space="preserve" font-family="GillSans,Gill Sans" font-size="39.5" fill="#FEFFFF" transform="matrix(1.00, 0.00, -0.00, -1.00, 171.3, 278.0)">y</text><text xml:space="preserve" font-family="GillSans,Gill Sans" font-size="39.5" fill="#FEFFFF" transform="matrix(1.00, 0.00, -0.00, -1.00, 187.8, 278.0)">o</text><text xml:space="preserve" font-family="GillSans,Gill Sans" font-size="39.5" fill="#FEFFFF" transform="matrix(1.00, 0.00, -0.00, -1.00, 209.6, 278.0)">u</text><text xml:space="preserve" font-family="GillSans,Gill Sans" font-size="39.5" fill="#FEFFFF" transform="matrix(1.00, 0.00, -0.00, -1.00, 229.3, 278.0)"> </text><text xml:space="preserve" font-family="GillSans,Gill Sans" font-size="39.5" fill="#FEFFFF" transform="matrix(1.00, 0.00, -0.00, -1.00, 240.3, 278.0)">c</text><text xml:space="preserve" font-family="GillSans,Gill Sans" font-size="39.5" fill="#FEFFFF" transform="matrix(1.00, 0.00, -0.00, -1.00, 257.6, 278.0)">o</text><text xml:space="preserve" font-family="GillSans,Gill Sans" font-size="39.5" fill="#FEFFFF" transform="matrix(1.00, 0.00, -0.00, -1.00, 279.3, 278.0)">u</text><text xml:space="preserve" font-family="GillSans,Gill Sans" font-size="39.5" fill="#FEFFFF" transform="matrix(1.00, 0.00, -0.00, -1.00, 299.1, 278.0)">l</text><text xml:space="preserve" font-family="GillSans,Gill Sans" font-size="39.5" fill="#FEFFFF" transform="matrix(1.00, 0.00, -0.00, -1.00, 307.7, 278.0)">d</text><text xml:space="preserve" font-family="GillSans,Gill Sans" font-size="39.5" fill="#FEFFFF" transform="matrix(1.00, 0.00, -0.00, -1.00, 327.9, 278.0)"> </text><text xml:space="preserve" font-family="GillSans,Gill Sans" font-size="39.5" fill="#FEFFFF" transform="matrix(1.00, 0.00, -0.00, -1.00, 338.8, 278.0)">s</text><text xml:space="preserve" font-family="GillSans,Gill Sans" font-size="39.5" fill="#FEFFFF" transform="matrix(1.00, 0.00, -0.00, -1.00, 354.0, 278.0)">e</text><text xml:space="preserve" font-family="GillSans,Gill Sans" font-size="39.5" fill="#FEFFFF" transform="matrix(1.00, 0.00, -0.00, -1.00, 372.9, 278.0)">e</text><text xml:space="preserve" font-family="GillSans,Gill Sans" font-size="39.5" fill="#FEFFFF" transform="matrix(1.00, 0.00, -0.00, -1.00, 391.8, 278.0)"> </text><text xml:space="preserve" font-family="GillSans,Gill Sans" font-size="39.5" fill="#FEFFFF" transform="matrix(1.00, 0.00, -0.00, -1.00, 402.8, 278.0)">c</text><text xml:space="preserve" font-family="GillSans,Gill Sans" font-size="39.5" fill="#FEFFFF" transform="matrix(1.00, 0.00, -0.00, -1.00, 420.1, 278.0)">u</text><text xml:space="preserve" font-family="GillSans,Gill Sans" font-size="39.5" fill="#FEFFFF" transform="matrix(1.00, 0.00, -0.00, -1.00, 439.8, 278.0)">c</text><text xml:space="preserve" font-family="GillSans,Gill Sans" font-size="39.5" fill="#FEFFFF" transform="matrix(1.00, 0.00, -0.00, -1.00, 457.1, 278.0)">u</text><text xml:space="preserve" font-family="GillSans,Gill Sans" font-size="39.5" fill="#FEFFFF" transform="matrix(1.00, 0.00, -0.00, -1.00, 476.9, 278.0)">m</text><text xml:space="preserve" font-family="GillSans,Gill Sans" font-size="39.5" fill="#FEFFFF" transform="matrix(1.00, 0.00, -0.00, -1.00, 507.3, 278.0)">b</text><text xml:space="preserve" font-family="GillSans,Gill Sans" font-size="39.5" fill="#FEFFFF" transform="matrix(1.00, 0.00, -0.00, -1.00, 527.0, 278.0)">e</text><text xml:space="preserve" font-family="GillSans,Gill Sans" font-size="39.5" fill="#FEFFFF" transform="matrix(1.00, 0.00, -0.00, -1.00, 545.9, 278.0)">r</text><text xml:space="preserve" font-family="GillSans,Gill Sans" font-size="39.5" fill="#FEFFFF" transform="matrix(1.00, 0.00, -0.00, -1.00, 561.6, 278.0)"> </text><text xml:space="preserve" font-family="GillSans,Gill Sans" font-size="39.5" fill="#FEFFFF" transform="matrix(1.00, 0.00, -0.00, -1.00, 572.5, 278.0)">c</text><text xml:space="preserve" font-family="GillSans,Gill Sans" font-size="39.5" fill="#FEFFFF" transform="matrix(1.00, 0.00, -0.00, -1.00, 589.8, 278.0)">o</text><text xml:space="preserve" font-family="GillSans,Gill Sans" font-size="39.5" fill="#FEFFFF" transform="matrix(1.00, 0.00, -0.00, -1.00, 611.6, 278.0)">m</text><text xml:space="preserve" font-family="GillSans,Gill Sans" font-size="39.5" fill="#FEFFFF" transform="matrix(1.00, 0.00, -0.00, -1.00, 642.0, 278.0)">m</text><text xml:space="preserve" font-family="GillSans,Gill Sans" font-size="39.5" fill="#FEFFFF" transform="matrix(1.00, 0.00, -0.00, -1.00, 672.5, 278.0)">a</text><text xml:space="preserve" font-family="GillSans,Gill Sans" font-size="39.5" fill="#FEFFFF" transform="matrix(1.00, 0.00, -0.00, -1.00, 689.3, 278.0)">n</text><text xml:space="preserve" font-family="GillSans,Gill Sans" font-size="39.5" fill="#FEFFFF" transform="matrix(1.00, 0.00, -0.00, -1.00, 709.1, 278.0)">d</text><text xml:space="preserve" font-family="GillSans,Gill Sans" font-size="39.5" fill="#FEFFFF" transform="matrix(1.00, 0.00, -0.00, -1.00, 729.2, 278.0)"> </text><text xml:space="preserve" font-family="GillSans,Gill Sans" font-size="39.5" fill="#FEFFFF" transform="matrix(1.00, 0.00, -0.00, -1.00, 740.1, 278.0)">l</text><text xml:space="preserve" font-family="GillSans,Gill Sans" font-size="39.5" fill="#FEFFFF" transform="matrix(1.00, 0.00, -0.00, -1.00, 748.8, 278.0)">i</text><text xml:space="preserve" font-family="GillSans,Gill Sans" font-size="39.5" fill="#FEFFFF" transform="matrix(1.00, 0.00, -0.00, -1.00, 757.5, 278.0)">n</text><text xml:space="preserve" font-family="GillSans,Gill Sans" font-size="39.5" fill="#FEFFFF" transform="matrix(1.00, 0.00, -0.00, -1.00, 777.2, 278.0)">e</text><text xml:space="preserve" font-family="GillSans,Gill Sans" font-size="39.5" fill="#FEFFFF" transform="matrix(1.00, 0.00, -0.00, -1.00, 796.1, 278.0)">s</text><text xml:space="preserve" font-family="GillSans,Gill Sans" font-size="39.5" fill="#FEFFFF" transform="matrix(1.00, 0.00, -0.00, -1.00, 811.3, 278.0)"> </text><text xml:space="preserve" font-family="GillSans,Gill Sans" font-size="39.5" fill="#FEFFFF" transform="matrix(1.00, 0.00, -0.00, -1.00, 822.3, 278.0)">b</text><text xml:space="preserve" font-family="GillSans,Gill Sans" font-size="39.5" fill="#FEFFFF" transform="matrix(1.00, 0.00, -0.00, -1.00, 841.6, 278.0)">y</text><text xml:space="preserve" font-family="GillSans,Gill Sans" font-size="39.5" fill="#FEFFFF" transform="matrix(1.00, 0.00, -0.00, -1.00, 858.9, 278.0)"> </text><text xml:space="preserve" font-family="GillSans,Gill Sans" font-size="39.5" fill="#FEFFFF" transform="matrix(1.00, 0.00, -0.00, -1.00, 171.3, 233.0)">“</text><text xml:space="preserve" font-family="GillSans,Gill Sans" font-size="39.5" fill="#3A87FD" transform="matrix(1.00, 0.00, -0.00, -1.00, 188.1, 233.0)">c</text><text xml:space="preserve" font-family="GillSans,Gill Sans" font-size="39.5" fill="#3A87FD" transform="matrix(1.00, 0.00, -0.00, -1.00, 205.4, 233.0)">u</text><text xml:space="preserve" font-family="GillSans,Gill Sans" font-size="39.5" fill="#3A87FD" transform="matrix(1.00, 0.00, -0.00, -1.00, 225.2, 233.0)">c</text><text xml:space="preserve" font-family="GillSans,Gill Sans" font-size="39.5" fill="#3A87FD" transform="matrix(1.00, 0.00, -0.00, -1.00, 242.5, 233.0)">u</text><text xml:space="preserve" font-family="GillSans,Gill Sans" font-size="39.5" fill="#3A87FD" transform="matrix(1.00, 0.00, -0.00, -1.00, 262.2, 233.0)">m</text><text xml:space="preserve" font-family="GillSans,Gill Sans" font-size="39.5" fill="#3A87FD" transform="matrix(1.00, 0.00, -0.00, -1.00, 292.7, 233.0)">b</text><text xml:space="preserve" font-family="GillSans,Gill Sans" font-size="39.5" fill="#3A87FD" transform="matrix(1.00, 0.00, -0.00, -1.00, 312.4, 233.0)">e</text><text xml:space="preserve" font-family="GillSans,Gill Sans" font-size="39.5" fill="#3A87FD" transform="matrix(1.00, 0.00, -0.00, -1.00, 331.3, 233.0)">r</text><text xml:space="preserve" font-family="GillSans,Gill Sans" font-size="39.5" fill="#3A87FD" transform="matrix(1.00, 0.00, -0.00, -1.00, 346.9, 233.0)"> </text><text xml:space="preserve" font-family="GillSans,Gill Sans" font-size="39.5" fill="#3A87FD" transform="matrix(1.00, 0.00, -0.00, -1.00, 357.9, 233.0)">-</text><text xml:space="preserve" font-family="GillSans,Gill Sans" font-size="39.5" fill="#3A87FD" transform="matrix(1.00, 0.00, -0.00, -1.00, 370.7, 233.0)">h</text><text xml:space="preserve" font-family="GillSans,Gill Sans" font-size="39.5" fill="#3A87FD" transform="matrix(1.00, 0.00, -0.00, -1.00, 390.4, 233.0)">e</text><text xml:space="preserve" font-family="GillSans,Gill Sans" font-size="39.5" fill="#3A87FD" transform="matrix(1.00, 0.00, -0.00, -1.00, 409.3, 233.0)">l</text><text xml:space="preserve" font-family="GillSans,Gill Sans" font-size="39.5" fill="#3A87FD" transform="matrix(1.00, 0.00, -0.00, -1.00, 418.0, 233.0)">p</text><text xml:space="preserve" font-family="GillSans,Gill Sans" font-size="39.5" fill="#FEFFFF" transform="matrix(1.00, 0.00, -0.00, -1.00, 437.7, 233.0)">”</text><text xml:space="preserve" font-family="GillSans,Gill Sans" font-size="39.5" fill="#FEFFFF" transform="matrix(1.00, 0.00, -0.00, -1.00, 454.6, 233.0)">	</text><text xml:space="preserve" font-family="GillSans,Gill Sans" font-size="39.5" fill="#FEFFFF" transform="matrix(1.00, 0.00, -0.00, -1.00, 482.6, 233.0)">
</text><text xml:space="preserve" font-family="GillSans,Gill Sans" font-size="39.5" fill="#FEFFFF" transform="matrix(1.00, 0.00, -0.00, -1.00, 482.6, 233.0)"></text><text xml:space="preserve" font-family="GillSans,Gill Sans" font-size="67.5" fill="#FEFFFF" transform="matrix(1.00, 0.00, -0.00, -1.00, 129.0, 155.4)">•</text><text xml:space="preserve" font-family="GillSans,Gill Sans" font-size="39.5" fill="#FEFFFF" transform="matrix(1.00, 0.00, -0.00, -1.00, 171.3, 165.4)">h</text><text xml:space="preserve" font-family="GillSans,Gill Sans" font-size="39.5" fill="#FEFFFF" transform="matrix(1.00, 0.00, -0.00, -1.00, 191.0, 165.4)">t</text><text xml:space="preserve" font-family="GillSans,Gill Sans" font-size="39.5" fill="#FEFFFF" transform="matrix(1.00, 0.00, -0.00, -1.00, 204.2, 165.4)">t</text><text xml:space="preserve" font-family="GillSans,Gill Sans" font-size="39.5" fill="#FEFFFF" transform="matrix(1.00, 0.00, -0.00, -1.00, 217.3, 165.4)">p</text><text xml:space="preserve" font-family="GillSans,Gill Sans" font-size="39.5" fill="#FEFFFF" transform="matrix(1.00, 0.00, -0.00, -1.00, 237.1, 165.4)">s</text><text xml:space="preserve" font-family="GillSans,Gill Sans" font-size="39.5" fill="#FEFFFF" transform="matrix(1.00, 0.00, -0.00, -1.00, 252.3, 165.4)">:</text><text xml:space="preserve" font-family="GillSans,Gill Sans" font-size="39.5" fill="#FEFFFF" transform="matrix(1.00, 0.00, -0.00, -1.00, 260.9, 165.4)">/</text><text xml:space="preserve" font-family="GillSans,Gill Sans" font-size="39.5" fill="#FEFFFF" transform="matrix(1.00, 0.00, -0.00, -1.00, 272.0, 165.4)">/</text><text xml:space="preserve" font-family="GillSans,Gill Sans" font-size="39.5" fill="#FEFFFF" transform="matrix(1.00, 0.00, -0.00, -1.00, 283.1, 165.4)">g</text><text xml:space="preserve" font-family="GillSans,Gill Sans" font-size="39.5" fill="#FEFFFF" transform="matrix(1.00, 0.00, -0.00, -1.00, 299.9, 165.4)">i</text><text xml:space="preserve" font-family="GillSans,Gill Sans" font-size="39.5" fill="#FEFFFF" transform="matrix(1.00, 0.00, -0.00, -1.00, 308.6, 165.4)">t</text><text xml:space="preserve" font-family="GillSans,Gill Sans" font-size="39.5" fill="#FEFFFF" transform="matrix(1.00, 0.00, -0.00, -1.00, 321.7, 165.4)">h</text><text xml:space="preserve" font-family="GillSans,Gill Sans" font-size="39.5" fill="#FEFFFF" transform="matrix(1.00, 0.00, -0.00, -1.00, 341.5, 165.4)">u</text><text xml:space="preserve" font-family="GillSans,Gill Sans" font-size="39.5" fill="#FEFFFF" transform="matrix(1.00, 0.00, -0.00, -1.00, 361.2, 165.4)">b</text><text xml:space="preserve" font-family="GillSans,Gill Sans" font-size="39.5" fill="#FEFFFF" transform="matrix(1.00, 0.00, -0.00, -1.00, 380.6, 165.4)">.</text><text xml:space="preserve" font-family="GillSans,Gill Sans" font-size="39.5" fill="#FEFFFF" transform="matrix(1.00, 0.00, -0.00, -1.00, 389.2, 165.4)">c</text><text xml:space="preserve" font-family="GillSans,Gill Sans" font-size="39.5" fill="#FEFFFF" transform="matrix(1.00, 0.00, -0.00, -1.00, 406.5, 165.4)">o</text><text xml:space="preserve" font-family="GillSans,Gill Sans" font-size="39.5" fill="#FEFFFF" transform="matrix(1.00, 0.00, -0.00, -1.00, 428.3, 165.4)">m</text><text xml:space="preserve" font-family="GillSans,Gill Sans" font-size="39.5" fill="#FEFFFF" transform="matrix(1.00, 0.00, -0.00, -1.00, 458.7, 165.4)">/</text><text xml:space="preserve" font-family="GillSans,Gill Sans" font-size="39.5" fill="#FEFFFF" transform="matrix(1.00, 0.00, -0.00, -1.00, 469.8, 165.4)">c</text><text xml:space="preserve" font-family="GillSans,Gill Sans" font-size="39.5" fill="#FEFFFF" transform="matrix(1.00, 0.00, -0.00, -1.00, 487.1, 165.4)">u</text><text xml:space="preserve" font-family="GillSans,Gill Sans" font-size="39.5" fill="#FEFFFF" transform="matrix(1.00, 0.00, -0.00, -1.00, 506.8, 165.4)">c</text><text xml:space="preserve" font-family="GillSans,Gill Sans" font-size="39.5" fill="#FEFFFF" transform="matrix(1.00, 0.00, -0.00, -1.00, 524.1, 165.4)">u</text><text xml:space="preserve" font-family="GillSans,Gill Sans" font-size="39.5" fill="#FEFFFF" transform="matrix(1.00, 0.00, -0.00, -1.00, 543.9, 165.4)">m</text><text xml:space="preserve" font-family="GillSans,Gill Sans" font-size="39.5" fill="#FEFFFF" transform="matrix(1.00, 0.00, -0.00, -1.00, 574.3, 165.4)">b</text><text xml:space="preserve" font-family="GillSans,Gill Sans" font-size="39.5" fill="#FEFFFF" transform="matrix(1.00, 0.00, -0.00, -1.00, 594.0, 165.4)">e</text><text xml:space="preserve" font-family="GillSans,Gill Sans" font-size="39.5" fill="#FEFFFF" transform="matrix(1.00, 0.00, -0.00, -1.00, 613.0, 165.4)">r</text><text xml:space="preserve" font-family="GillSans,Gill Sans" font-size="39.5" fill="#FEFFFF" transform="matrix(1.00, 0.00, -0.00, -1.00, 628.6, 165.4)">/</text><text xml:space="preserve" font-family="GillSans,Gill Sans" font-size="39.5" fill="#FEFFFF" transform="matrix(1.00, 0.00, -0.00, -1.00, 639.7, 165.4)">c</text><text xml:space="preserve" font-family="GillSans,Gill Sans" font-size="39.5" fill="#FEFFFF" transform="matrix(1.00, 0.00, -0.00, -1.00, 657.0, 165.4)">u</text><text xml:space="preserve" font-family="GillSans,Gill Sans" font-size="39.5" fill="#FEFFFF" transform="matrix(1.00, 0.00, -0.00, -1.00, 676.7, 165.4)">c</text><text xml:space="preserve" font-family="GillSans,Gill Sans" font-size="39.5" fill="#FEFFFF" transform="matrix(1.00, 0.00, -0.00, -1.00, 694.0, 165.4)">u</text><text xml:space="preserve" font-family="GillSans,Gill Sans" font-size="39.5" fill="#FEFFFF" transform="matrix(1.00, 0.00, -0.00, -1.00, 713.7, 165.4)">m</text><text xml:space="preserve" font-family="GillSans,Gill Sans" font-size="39.5" fill="#FEFFFF" transform="matrix(1.00, 0.00, -0.00, -1.00, 744.2, 165.4)">b</text><text xml:space="preserve" font-family="GillSans,Gill Sans" font-size="39.5" fill="#FEFFFF" transform="matrix(1.00, 0.00, -0.00, -1.00, 763.9, 165.4)">e</text><text xml:space="preserve" font-family="GillSans,Gill Sans" font-size="39.5" fill="#FEFFFF" transform="matrix(1.00, 0.00, -0.00, -1.00, 782.8, 165.4)">r</text><text xml:space="preserve" font-family="GillSans,Gill Sans" font-size="39.5" fill="#FEFFFF" transform="matrix(1.00, 0.00, -0.00, -1.00, 798.5, 165.4)">/</text><text xml:space="preserve" font-family="GillSans,Gill Sans" font-size="39.5" fill="#FEFFFF" transform="matrix(1.00, 0.00, -0.00, -1.00, 809.5, 165.4)">w</text><text xml:space="preserve" font-family="GillSans,Gill Sans" font-size="39.5" fill="#FEFFFF" transform="matrix(1.00, 0.00, -0.00, -1.00, 837.9, 165.4)">i</text><text xml:space="preserve" font-family="GillSans,Gill Sans" font-size="39.5" fill="#FEFFFF" transform="matrix(1.00, 0.00, -0.00, -1.00, 846.6, 165.4)">k</text><text xml:space="preserve" font-family="GillSans,Gill Sans" font-size="39.5" fill="#FEFFFF" transform="matrix(1.00, 0.00, -0.00, -1.00, 865.5, 165.4)">i</text><text xml:space="preserve" font-family="GillSans,Gill Sans" font-size="39.5" fill="#FEFFFF" transform="matrix(1.00, 0.00, -0.00, -1.00, 874.2, 165.4)">/</text><text xml:space="preserve" font-family="GillSans,Gill Sans" font-size="39.5" fill="#FEFFFF" transform="matrix(1.00, 0.00, -0.00, -1.00, 171.3, 120.4)">c</text><text xml:space="preserve" font-family="GillSans,Gill Sans" font-size="39.5" fill="#FEFFFF" transform="matrix(1.00, 0.00, -0.00, -1.00, 188.6, 120.4)">u</text><text xml:space="preserve" font-family="GillSans,Gill Sans" font-size="39.5" fill="#FEFFFF" transform="matrix(1.00, 0.00, -0.00, -1.00, 208.3, 120.4)">c</text><text xml:space="preserve" font-family="GillSans,Gill Sans" font-size="39.5" fill="#FEFFFF" transform="matrix(1.00, 0.00, -0.00, -1.00, 225.6, 120.4)">u</text><text xml:space="preserve" font-family="GillSans,Gill Sans" font-size="39.5" fill="#FEFFFF" transform="matrix(1.00, 0.00, -0.00, -1.00, 245.4, 120.4)">m</text><text xml:space="preserve" font-family="GillSans,Gill Sans" font-size="39.5" fill="#FEFFFF" transform="matrix(1.00, 0.00, -0.00, -1.00, 275.8, 120.4)">b</text><text xml:space="preserve" font-family="GillSans,Gill Sans" font-size="39.5" fill="#FEFFFF" transform="matrix(1.00, 0.00, -0.00, -1.00, 295.5, 120.4)">e</text><text xml:space="preserve" font-family="GillSans,Gill Sans" font-size="39.5" fill="#FEFFFF" transform="matrix(1.00, 0.00, -0.00, -1.00, 314.5, 120.4)">r</text><text xml:space="preserve" font-family="GillSans,Gill Sans" font-size="39.5" fill="#FEFFFF" transform="matrix(1.00, 0.00, -0.00, -1.00, 326.1, 120.4)">.</text><text xml:space="preserve" font-family="GillSans,Gill Sans" font-size="39.5" fill="#FEFFFF" transform="matrix(1.00, 0.00, -0.00, -1.00, 334.8, 120.4)">y</text><text xml:space="preserve" font-family="GillSans,Gill Sans" font-size="39.5" fill="#FEFFFF" transform="matrix(1.00, 0.00, -0.00, -1.00, 352.1, 120.4)">m</text><text xml:space="preserve" font-family="GillSans,Gill Sans" font-size="39.5" fill="#FEFFFF" transform="matrix(1.00, 0.00, -0.00, -1.00, 382.5, 120.4)">l</text></g></svg>