<?xml version="1.0" encoding="UTF-8" standalone="no"?><svg xmlns="http://www.w3.org/2000/svg" xmlns:xlink="http://www.w3.org/1999/xlink" clip-rule="evenodd" stroke-miterlimit="10" viewBox="0 0 1024 768"><desc>SVG generated by Keynote</desc><defs></defs><g transform="matrix(1.00, 0.00, -0.00, -1.00, 0.0, 768.0)"><g><clipPath id="clip0x6000012bfce0"><path d="M 0.0 768.0 L 1024.0 768.0 L 1024.0 0.0 L 0.0 0.0 Z M 0.0 768.0 "></path></clipPath><g clip-path="url(#clip0x6000012bfce0)"><image xlink:href="../../E6DA75BE-1612-4AD0-BDCC-13BDD2FF18A5/assets/C69F8A4BB357ABB1A0F95B8BFBB7E603.jpeg" width="2048.00" height="1536.00" transform="matrix(0.50, 0.00, -0.00, -0.50, 0.0, 768.0)"></image></g></g><text xml:space="preserve" font-family="GillSans,Gill Sans" font-size="64.0" fill="#FEFFFF" transform="matrix(1.00, 0.00, -0.00, -1.00, 158.5, 666.8)">C</text><text xml:space="preserve" font-family="GillSans,Gill Sans" font-size="64.0" fill="#FEFFFF" transform="matrix(1.00, 0.00, -0.00, -1.00, 203.8, 666.8)">r</text><text xml:space="preserve" font-family="GillSans,Gill Sans" font-size="64.0" fill="#FEFFFF" transform="matrix(1.00, 0.00, -0.00, -1.00, 227.5, 666.8)">o</text><text xml:space="preserve" font-family="GillSans,Gill Sans" font-size="64.0" fill="#FEFFFF" transform="matrix(1.00, 0.00, -0.00, -1.00, 262.8, 666.8)">s</text><text xml:space="preserve" font-family="GillSans,Gill Sans" font-size="64.0" fill="#FEFFFF" transform="matrix(1.00, 0.00, -0.00, -1.00, 287.4, 666.8)">s</text><text xml:space="preserve" font-family="GillSans,Gill Sans" font-size="64.0" fill="#FEFFFF" transform="matrix(1.00, 0.00, -0.00, -1.00, 312.1, 666.8)">-</text><text xml:space="preserve" font-family="GillSans,Gill Sans" font-size="64.0" fill="#FEFFFF" transform="matrix(1.00, 0.00, -0.00, -1.00, 332.8, 666.8)">P</text><text xml:space="preserve" font-family="GillSans,Gill Sans" font-size="64.0" fill="#FEFFFF" transform="matrix(1.00, 0.00, -0.00, -1.00, 365.4, 666.8)">l</text><text xml:space="preserve" font-family="GillSans,Gill Sans" font-size="64.0" fill="#FEFFFF" transform="matrix(1.00, 0.00, -0.00, -1.00, 379.4, 666.8)">a</text><text xml:space="preserve" font-family="GillSans,Gill Sans" font-size="64.0" fill="#FEFFFF" transform="matrix(1.00, 0.00, -0.00, -1.00, 406.7, 666.8)">t</text><text xml:space="preserve" font-family="GillSans,Gill Sans" font-size="64.0" fill="#FEFFFF" transform="matrix(1.00, 0.00, -0.00, -1.00, 428.0, 666.8)">f</text><text xml:space="preserve" font-family="GillSans,Gill Sans" font-size="64.0" fill="#FEFFFF" transform="matrix(1.00, 0.00, -0.00, -1.00, 443.4, 666.8)">o</text><text xml:space="preserve" font-family="GillSans,Gill Sans" font-size="64.0" fill="#FEFFFF" transform="matrix(1.00, 0.00, -0.00, -1.00, 478.7, 666.8)">r</text><text xml:space="preserve" font-family="GillSans,Gill Sans" font-size="64.0" fill="#FEFFFF" transform="matrix(1.00, 0.00, -0.00, -1.00, 504.0, 666.8)">m</text><text xml:space="preserve" font-family="GillSans,Gill Sans" font-size="64.0" fill="#FEFFFF" transform="matrix(1.00, 0.00, -0.00, -1.00, 553.4, 666.8)"> </text><text xml:space="preserve" font-family="GillSans,Gill Sans" font-size="64.0" fill="#FEFFFF" transform="matrix(1.00, 0.00, -0.00, -1.00, 564.7, 666.8)">A</text><text xml:space="preserve" font-family="GillSans,Gill Sans" font-size="64.0" fill="#FEFFFF" transform="matrix(1.00, 0.00, -0.00, -1.00, 607.4, 666.8)">c</text><text xml:space="preserve" font-family="GillSans,Gill Sans" font-size="64.0" fill="#FEFFFF" transform="matrix(1.00, 0.00, -0.00, -1.00, 635.5, 666.8)">c</text><text xml:space="preserve" font-family="GillSans,Gill Sans" font-size="64.0" fill="#FEFFFF" transform="matrix(1.00, 0.00, -0.00, -1.00, 663.5, 666.8)">e</text><text xml:space="preserve" font-family="GillSans,Gill Sans" font-size="64.0" fill="#FEFFFF" transform="matrix(1.00, 0.00, -0.00, -1.00, 694.2, 666.8)">p</text><text xml:space="preserve" font-family="GillSans,Gill Sans" font-size="64.0" fill="#FEFFFF" transform="matrix(1.00, 0.00, -0.00, -1.00, 726.2, 666.8)">t</text><text xml:space="preserve" font-family="GillSans,Gill Sans" font-size="64.0" fill="#FEFFFF" transform="matrix(1.00, 0.00, -0.00, -1.00, 747.5, 666.8)">a</text><text xml:space="preserve" font-family="GillSans,Gill Sans" font-size="64.0" fill="#FEFFFF" transform="matrix(1.00, 0.00, -0.00, -1.00, 774.8, 666.8)">n</text><text xml:space="preserve" font-family="GillSans,Gill Sans" font-size="64.0" fill="#FEFFFF" transform="matrix(1.00, 0.00, -0.00, -1.00, 806.8, 666.8)">c</text><text xml:space="preserve" font-family="GillSans,Gill Sans" font-size="64.0" fill="#FEFFFF" transform="matrix(1.00, 0.00, -0.00, -1.00, 834.8, 666.8)">e</text><text xml:space="preserve" font-family="GillSans,Gill Sans" font-size="64.0" fill="#FEFFFF" transform="matrix(1.00, 0.00, -0.00, -1.00, 865.5, 666.8)"> </text><text xml:space="preserve" font-family="GillSans,Gill Sans" font-size="64.0" fill="#FEFFFF" transform="matrix(1.00, 0.00, -0.00, -1.00, 232.4, 592.8)">T</text><text xml:space="preserve" font-family="GillSans,Gill Sans" font-size="64.0" fill="#FEFFFF" transform="matrix(1.00, 0.00, -0.00, -1.00, 261.5, 592.8)">e</text><text xml:space="preserve" font-family="GillSans,Gill Sans" font-size="64.0" fill="#FEFFFF" transform="matrix(1.00, 0.00, -0.00, -1.00, 292.1, 592.8)">s</text><text xml:space="preserve" font-family="GillSans,Gill Sans" font-size="64.0" fill="#FEFFFF" transform="matrix(1.00, 0.00, -0.00, -1.00, 316.8, 592.8)">t</text><text xml:space="preserve" font-family="GillSans,Gill Sans" font-size="64.0" fill="#FEFFFF" transform="matrix(1.00, 0.00, -0.00, -1.00, 338.1, 592.8)">i</text><text xml:space="preserve" font-family="GillSans,Gill Sans" font-size="64.0" fill="#FEFFFF" transform="matrix(1.00, 0.00, -0.00, -1.00, 352.1, 592.8)">n</text><text xml:space="preserve" font-family="GillSans,Gill Sans" font-size="64.0" fill="#FEFFFF" transform="matrix(1.00, 0.00, -0.00, -1.00, 384.1, 592.8)">g</text><text xml:space="preserve" font-family="GillSans,Gill Sans" font-size="64.0" fill="#FEFFFF" transform="matrix(1.00, 0.00, -0.00, -1.00, 411.4, 592.8)"> </text><text xml:space="preserve" font-family="GillSans,Gill Sans" font-size="64.0" fill="#FEFFFF" transform="matrix(1.00, 0.00, -0.00, -1.00, 429.2, 592.8)">B</text><text xml:space="preserve" font-family="GillSans,Gill Sans" font-size="64.0" fill="#FEFFFF" transform="matrix(1.00, 0.00, -0.00, -1.00, 465.2, 592.8)">e</text><text xml:space="preserve" font-family="GillSans,Gill Sans" font-size="64.0" fill="#FEFFFF" transform="matrix(1.00, 0.00, -0.00, -1.00, 495.9, 592.8)">s</text><text xml:space="preserve" font-family="GillSans,Gill Sans" font-size="64.0" fill="#FEFFFF" transform="matrix(1.00, 0.00, -0.00, -1.00, 520.5, 592.8)">t</text><text xml:space="preserve" font-family="GillSans,Gill Sans" font-size="64.0" fill="#FEFFFF" transform="matrix(1.00, 0.00, -0.00, -1.00, 541.8, 592.8)"> </text><text xml:space="preserve" font-family="GillSans,Gill Sans" font-size="64.0" fill="#FEFFFF" transform="matrix(1.00, 0.00, -0.00, -1.00, 559.6, 592.8)">P</text><text xml:space="preserve" font-family="GillSans,Gill Sans" font-size="64.0" fill="#FEFFFF" transform="matrix(1.00, 0.00, -0.00, -1.00, 592.2, 592.8)">r</text><text xml:space="preserve" font-family="GillSans,Gill Sans" font-size="64.0" fill="#FEFFFF" transform="matrix(1.00, 0.00, -0.00, -1.00, 617.5, 592.8)">a</text><text xml:space="preserve" font-family="GillSans,Gill Sans" font-size="64.0" fill="#FEFFFF" transform="matrix(1.00, 0.00, -0.00, -1.00, 644.8, 592.8)">c</text><text xml:space="preserve" font-family="GillSans,Gill Sans" font-size="64.0" fill="#FEFFFF" transform="matrix(1.00, 0.00, -0.00, -1.00, 672.8, 592.8)">t</text><text xml:space="preserve" font-family="GillSans,Gill Sans" font-size="64.0" fill="#FEFFFF" transform="matrix(1.00, 0.00, -0.00, -1.00, 694.2, 592.8)">i</text><text xml:space="preserve" font-family="GillSans,Gill Sans" font-size="64.0" fill="#FEFFFF" transform="matrix(1.00, 0.00, -0.00, -1.00, 708.2, 592.8)">c</text><text xml:space="preserve" font-family="GillSans,Gill Sans" font-size="64.0" fill="#FEFFFF" transform="matrix(1.00, 0.00, -0.00, -1.00, 736.2, 592.8)">e</text><text xml:space="preserve" font-family="GillSans,Gill Sans" font-size="64.0" fill="#FEFFFF" transform="matrix(1.00, 0.00, -0.00, -1.00, 766.9, 592.8)">s</text><text xml:space="preserve" font-family="GillSans,Gill Sans" font-size="54.7" fill="#FEFFFF" transform="matrix(1.00, 0.00, -0.00, -1.00, 29.0, 381.1)">•</text><text xml:space="preserve" font-family="GillSans,Gill Sans" font-size="32.0" fill="#FEFFFF" transform="matrix(1.00, 0.00, -0.00, -1.00, 74.0, 389.4)">P</text><text xml:space="preserve" font-family="GillSans,Gill Sans" font-size="32.0" fill="#FEFFFF" transform="matrix(1.00, 0.00, -0.00, -1.00, 90.3, 389.4)">a</text><text xml:space="preserve" font-family="GillSans,Gill Sans" font-size="32.0" fill="#FEFFFF" transform="matrix(1.00, 0.00, -0.00, -1.00, 104.0, 389.4)">g</text><text xml:space="preserve" font-family="GillSans,Gill Sans" font-size="32.0" fill="#FEFFFF" transform="matrix(1.00, 0.00, -0.00, -1.00, 117.6, 389.4)">e</text><text xml:space="preserve" font-family="GillSans,Gill Sans" font-size="32.0" fill="#FEFFFF" transform="matrix(1.00, 0.00, -0.00, -1.00, 132.9, 389.4)">-</text><text xml:space="preserve" font-family="GillSans,Gill Sans" font-size="32.0" fill="#FEFFFF" transform="matrix(1.00, 0.00, -0.00, -1.00, 143.3, 389.4)">O</text><text xml:space="preserve" font-family="GillSans,Gill Sans" font-size="32.0" fill="#FEFFFF" transform="matrix(1.00, 0.00, -0.00, -1.00, 169.6, 389.4)">b</text><text xml:space="preserve" font-family="GillSans,Gill Sans" font-size="32.0" fill="#FEFFFF" transform="matrix(1.00, 0.00, -0.00, -1.00, 185.6, 389.4)">j</text><text xml:space="preserve" font-family="GillSans,Gill Sans" font-size="32.0" fill="#FEFFFF" transform="matrix(1.00, 0.00, -0.00, -1.00, 192.7, 389.4)">e</text><text xml:space="preserve" font-family="GillSans,Gill Sans" font-size="32.0" fill="#FEFFFF" transform="matrix(1.00, 0.00, -0.00, -1.00, 208.0, 389.4)">c</text><text xml:space="preserve" font-family="GillSans,Gill Sans" font-size="32.0" fill="#FEFFFF" transform="matrix(1.00, 0.00, -0.00, -1.00, 222.0, 389.4)">t</text><text xml:space="preserve" font-family="GillSans,Gill Sans" font-size="32.0" fill="#FEFFFF" transform="matrix(1.00, 0.00, -0.00, -1.00, 232.7, 389.4)"> </text><text xml:space="preserve" font-family="GillSans,Gill Sans" font-size="32.0" fill="#FEFFFF" transform="matrix(1.00, 0.00, -0.00, -1.00, 241.5, 389.4)">P</text><text xml:space="preserve" font-family="GillSans,Gill Sans" font-size="32.0" fill="#FEFFFF" transform="matrix(1.00, 0.00, -0.00, -1.00, 257.8, 389.4)">a</text><text xml:space="preserve" font-family="GillSans,Gill Sans" font-size="32.0" fill="#FEFFFF" transform="matrix(1.00, 0.00, -0.00, -1.00, 271.5, 389.4)">t</text><text xml:space="preserve" font-family="GillSans,Gill Sans" font-size="32.0" fill="#FEFFFF" transform="matrix(1.00, 0.00, -0.00, -1.00, 282.2, 389.4)">t</text><text xml:space="preserve" font-family="GillSans,Gill Sans" font-size="32.0" fill="#FEFFFF" transform="matrix(1.00, 0.00, -0.00, -1.00, 292.8, 389.4)">e</text><text xml:space="preserve" font-family="GillSans,Gill Sans" font-size="32.0" fill="#FEFFFF" transform="matrix(1.00, 0.00, -0.00, -1.00, 308.1, 389.4)">r</text><text xml:space="preserve" font-family="GillSans,Gill Sans" font-size="32.0" fill="#FEFFFF" transform="matrix(1.00, 0.00, -0.00, -1.00, 320.8, 389.4)">n</text><text xml:space="preserve" font-family="GillSans,Gill Sans" font-size="32.0" fill="#FEFFFF" transform="matrix(1.00, 0.00, -0.00, -1.00, 336.8, 389.4)"> </text><text xml:space="preserve" font-family="GillSans,Gill Sans" font-size="32.0" fill="#FEFFFF" transform="matrix(1.00, 0.00, -0.00, -1.00, 345.7, 389.4)">(</text><text xml:space="preserve" font-family="GillSans,Gill Sans" font-size="32.0" fill="#FEFFFF" transform="matrix(1.00, 0.00, -0.00, -1.00, 356.0, 389.4)">P</text><text xml:space="preserve" font-family="GillSans,Gill Sans" font-size="32.0" fill="#FEFFFF" transform="matrix(1.00, 0.00, -0.00, -1.00, 372.3, 389.4)">O</text><text xml:space="preserve" font-family="GillSans,Gill Sans" font-size="32.0" fill="#FEFFFF" transform="matrix(1.00, 0.00, -0.00, -1.00, 398.7, 389.4)">P</text><text xml:space="preserve" font-family="GillSans,Gill Sans" font-size="32.0" fill="#FEFFFF" transform="matrix(1.00, 0.00, -0.00, -1.00, 415.0, 389.4)">)</text><text xml:space="preserve" font-family="GillSans,Gill Sans" font-size="32.0" fill="#FEFFFF" transform="matrix(1.00, 0.00, -0.00, -1.00, 425.4, 389.4)">	</text><text xml:space="preserve" font-family="GillSans,Gill Sans" font-size="32.0" fill="#FEFFFF" transform="matrix(1.00, 0.00, -0.00, -1.00, 453.4, 389.4)">
</text><text xml:space="preserve" font-family="GillSans,Gill Sans" font-size="32.0" fill="#FEFFFF" transform="matrix(1.00, 0.00, -0.00, -1.00, 453.4, 389.4)"></text><text xml:space="preserve" font-family="GillSans,Gill Sans" font-size="54.7" fill="#FEFFFF" transform="matrix(1.00, 0.00, -0.00, -1.00, 29.0, 321.1)">•</text><text xml:space="preserve" font-family="GillSans,Gill Sans" font-size="32.0" fill="#FEFFFF" transform="matrix(1.00, 0.00, -0.00, -1.00, 74.0, 329.4)">P</text><text xml:space="preserve" font-family="GillSans,Gill Sans" font-size="32.0" fill="#FEFFFF" transform="matrix(1.00, 0.00, -0.00, -1.00, 90.3, 329.4)">a</text><text xml:space="preserve" font-family="GillSans,Gill Sans" font-size="32.0" fill="#FEFFFF" transform="matrix(1.00, 0.00, -0.00, -1.00, 104.0, 329.4)">g</text><text xml:space="preserve" font-family="GillSans,Gill Sans" font-size="32.0" fill="#FEFFFF" transform="matrix(1.00, 0.00, -0.00, -1.00, 117.6, 329.4)">e</text><text xml:space="preserve" font-family="GillSans,Gill Sans" font-size="32.0" fill="#FEFFFF" transform="matrix(1.00, 0.00, -0.00, -1.00, 132.9, 329.4)"> </text><text xml:space="preserve" font-family="GillSans,Gill Sans" font-size="32.0" fill="#FEFFFF" transform="matrix(1.00, 0.00, -0.00, -1.00, 141.8, 329.4)">O</text><text xml:space="preserve" font-family="GillSans,Gill Sans" font-size="32.0" fill="#FEFFFF" transform="matrix(1.00, 0.00, -0.00, -1.00, 168.2, 329.4)">b</text><text xml:space="preserve" font-family="GillSans,Gill Sans" font-size="32.0" fill="#FEFFFF" transform="matrix(1.00, 0.00, -0.00, -1.00, 184.2, 329.4)">j</text><text xml:space="preserve" font-family="GillSans,Gill Sans" font-size="32.0" fill="#FEFFFF" transform="matrix(1.00, 0.00, -0.00, -1.00, 191.2, 329.4)">e</text><text xml:space="preserve" font-family="GillSans,Gill Sans" font-size="32.0" fill="#FEFFFF" transform="matrix(1.00, 0.00, -0.00, -1.00, 206.5, 329.4)">c</text><text xml:space="preserve" font-family="GillSans,Gill Sans" font-size="32.0" fill="#FEFFFF" transform="matrix(1.00, 0.00, -0.00, -1.00, 220.5, 329.4)">t</text><text xml:space="preserve" font-family="GillSans,Gill Sans" font-size="32.0" fill="#FEFFFF" transform="matrix(1.00, 0.00, -0.00, -1.00, 231.2, 329.4)">s</text><text xml:space="preserve" font-family="GillSans,Gill Sans" font-size="32.0" fill="#FEFFFF" transform="matrix(1.00, 0.00, -0.00, -1.00, 243.5, 329.4)">:</text><text xml:space="preserve" font-family="GillSans,Gill Sans" font-size="32.0" fill="#FEFFFF" transform="matrix(1.00, 0.00, -0.00, -1.00, 247.3, 329.4)"> </text><text xml:space="preserve" font-family="GillSans,Gill Sans" font-size="32.0" fill="#FEFFFF" transform="matrix(1.00, 0.00, -0.00, -1.00, 256.2, 329.4)">a</text><text xml:space="preserve" font-family="GillSans,Gill Sans" font-size="32.0" fill="#FEFFFF" transform="matrix(1.00, 0.00, -0.00, -1.00, 269.8, 329.4)">b</text><text xml:space="preserve" font-family="GillSans,Gill Sans" font-size="32.0" fill="#FEFFFF" transform="matrix(1.00, 0.00, -0.00, -1.00, 285.8, 329.4)">s</text><text xml:space="preserve" font-family="GillSans,Gill Sans" font-size="32.0" fill="#FEFFFF" transform="matrix(1.00, 0.00, -0.00, -1.00, 298.2, 329.4)">t</text><text xml:space="preserve" font-family="GillSans,Gill Sans" font-size="32.0" fill="#FEFFFF" transform="matrix(1.00, 0.00, -0.00, -1.00, 308.8, 329.4)">r</text><text xml:space="preserve" font-family="GillSans,Gill Sans" font-size="32.0" fill="#FEFFFF" transform="matrix(1.00, 0.00, -0.00, -1.00, 321.5, 329.4)">a</text><text xml:space="preserve" font-family="GillSans,Gill Sans" font-size="32.0" fill="#FEFFFF" transform="matrix(1.00, 0.00, -0.00, -1.00, 335.1, 329.4)">c</text><text xml:space="preserve" font-family="GillSans,Gill Sans" font-size="32.0" fill="#FEFFFF" transform="matrix(1.00, 0.00, -0.00, -1.00, 349.1, 329.4)">t</text><text xml:space="preserve" font-family="GillSans,Gill Sans" font-size="32.0" fill="#FEFFFF" transform="matrix(1.00, 0.00, -0.00, -1.00, 359.8, 329.4)"> </text><text xml:space="preserve" font-family="GillSans,Gill Sans" font-size="32.0" fill="#FEFFFF" transform="matrix(1.00, 0.00, -0.00, -1.00, 368.7, 329.4)">a</text><text xml:space="preserve" font-family="GillSans,Gill Sans" font-size="32.0" fill="#FEFFFF" transform="matrix(1.00, 0.00, -0.00, -1.00, 382.3, 329.4)"> </text><text xml:space="preserve" font-family="GillSans,Gill Sans" font-size="32.0" fill="#FEFFFF" transform="matrix(1.00, 0.00, -0.00, -1.00, 391.2, 329.4)">s</text><text xml:space="preserve" font-family="GillSans,Gill Sans" font-size="32.0" fill="#FEFFFF" transform="matrix(1.00, 0.00, -0.00, -1.00, 403.5, 329.4)">i</text><text xml:space="preserve" font-family="GillSans,Gill Sans" font-size="32.0" fill="#FEFFFF" transform="matrix(1.00, 0.00, -0.00, -1.00, 410.6, 329.4)">n</text><text xml:space="preserve" font-family="GillSans,Gill Sans" font-size="32.0" fill="#FEFFFF" transform="matrix(1.00, 0.00, -0.00, -1.00, 426.6, 329.4)">g</text><text xml:space="preserve" font-family="GillSans,Gill Sans" font-size="32.0" fill="#FEFFFF" transform="matrix(1.00, 0.00, -0.00, -1.00, 440.2, 329.4)">l</text><text xml:space="preserve" font-family="GillSans,Gill Sans" font-size="32.0" fill="#FEFFFF" transform="matrix(1.00, 0.00, -0.00, -1.00, 447.2, 329.4)">e</text><text xml:space="preserve" font-family="GillSans,Gill Sans" font-size="32.0" fill="#FEFFFF" transform="matrix(1.00, 0.00, -0.00, -1.00, 462.6, 329.4)"> </text><text xml:space="preserve" font-family="GillSans,Gill Sans" font-size="32.0" fill="#FEFFFF" transform="matrix(1.00, 0.00, -0.00, -1.00, 471.4, 329.4)">s</text><text xml:space="preserve" font-family="GillSans,Gill Sans" font-size="32.0" fill="#FEFFFF" transform="matrix(1.00, 0.00, -0.00, -1.00, 483.7, 329.4)">c</text><text xml:space="preserve" font-family="GillSans,Gill Sans" font-size="32.0" fill="#FEFFFF" transform="matrix(1.00, 0.00, -0.00, -1.00, 497.8, 329.4)">r</text><text xml:space="preserve" font-family="GillSans,Gill Sans" font-size="32.0" fill="#FEFFFF" transform="matrix(1.00, 0.00, -0.00, -1.00, 509.8, 329.4)">e</text><text xml:space="preserve" font-family="GillSans,Gill Sans" font-size="32.0" fill="#FEFFFF" transform="matrix(1.00, 0.00, -0.00, -1.00, 525.1, 329.4)">e</text><text xml:space="preserve" font-family="GillSans,Gill Sans" font-size="32.0" fill="#FEFFFF" transform="matrix(1.00, 0.00, -0.00, -1.00, 540.4, 329.4)">n</text><text xml:space="preserve" font-family="GillSans,Gill Sans" font-size="32.0" fill="#FEFFFF" transform="matrix(1.00, 0.00, -0.00, -1.00, 556.4, 329.4)">	</text><text xml:space="preserve" font-family="GillSans,Gill Sans" font-size="32.0" fill="#FEFFFF" transform="matrix(1.00, 0.00, -0.00, -1.00, 584.4, 329.4)">
</text><text xml:space="preserve" font-family="GillSans,Gill Sans" font-size="32.0" fill="#FEFFFF" transform="matrix(1.00, 0.00, -0.00, -1.00, 584.4, 329.4)"></text><text xml:space="preserve" font-family="GillSans,Gill Sans" font-size="54.7" fill="#FEFFFF" transform="matrix(1.00, 0.00, -0.00, -1.00, 29.0, 261.1)">•</text><text xml:space="preserve" font-family="GillSans,Gill Sans" font-size="32.0" fill="#FEFFFF" transform="matrix(1.00, 0.00, -0.00, -1.00, 74.0, 269.4)">C</text><text xml:space="preserve" font-family="GillSans,Gill Sans" font-size="32.0" fill="#FEFFFF" transform="matrix(1.00, 0.00, -0.00, -1.00, 96.7, 269.4)">r</text><text xml:space="preserve" font-family="GillSans,Gill Sans" font-size="32.0" fill="#FEFFFF" transform="matrix(1.00, 0.00, -0.00, -1.00, 108.5, 269.4)">o</text><text xml:space="preserve" font-family="GillSans,Gill Sans" font-size="32.0" fill="#FEFFFF" transform="matrix(1.00, 0.00, -0.00, -1.00, 126.2, 269.4)">s</text><text xml:space="preserve" font-family="GillSans,Gill Sans" font-size="32.0" fill="#FEFFFF" transform="matrix(1.00, 0.00, -0.00, -1.00, 138.5, 269.4)">s</text><text xml:space="preserve" font-family="GillSans,Gill Sans" font-size="32.0" fill="#FEFFFF" transform="matrix(1.00, 0.00, -0.00, -1.00, 150.8, 269.4)">-</text><text xml:space="preserve" font-family="GillSans,Gill Sans" font-size="32.0" fill="#FEFFFF" transform="matrix(1.00, 0.00, -0.00, -1.00, 161.1, 269.4)">p</text><text xml:space="preserve" font-family="GillSans,Gill Sans" font-size="32.0" fill="#FEFFFF" transform="matrix(1.00, 0.00, -0.00, -1.00, 177.1, 269.4)">l</text><text xml:space="preserve" font-family="GillSans,Gill Sans" font-size="32.0" fill="#FEFFFF" transform="matrix(1.00, 0.00, -0.00, -1.00, 184.2, 269.4)">a</text><text xml:space="preserve" font-family="GillSans,Gill Sans" font-size="32.0" fill="#FEFFFF" transform="matrix(1.00, 0.00, -0.00, -1.00, 197.8, 269.4)">t</text><text xml:space="preserve" font-family="GillSans,Gill Sans" font-size="32.0" fill="#FEFFFF" transform="matrix(1.00, 0.00, -0.00, -1.00, 208.5, 269.4)">f</text><text xml:space="preserve" font-family="GillSans,Gill Sans" font-size="32.0" fill="#FEFFFF" transform="matrix(1.00, 0.00, -0.00, -1.00, 216.2, 269.4)">o</text><text xml:space="preserve" font-family="GillSans,Gill Sans" font-size="32.0" fill="#FEFFFF" transform="matrix(1.00, 0.00, -0.00, -1.00, 233.8, 269.4)">r</text><text xml:space="preserve" font-family="GillSans,Gill Sans" font-size="32.0" fill="#FEFFFF" transform="matrix(1.00, 0.00, -0.00, -1.00, 246.5, 269.4)">m</text><text xml:space="preserve" font-family="GillSans,Gill Sans" font-size="32.0" fill="#FEFFFF" transform="matrix(1.00, 0.00, -0.00, -1.00, 271.2, 269.4)"> </text><text xml:space="preserve" font-family="GillSans,Gill Sans" font-size="32.0" fill="#FEFFFF" transform="matrix(1.00, 0.00, -0.00, -1.00, 280.0, 269.4)">C</text><text xml:space="preserve" font-family="GillSans,Gill Sans" font-size="32.0" fill="#FEFFFF" transform="matrix(1.00, 0.00, -0.00, -1.00, 302.7, 269.4)">o</text><text xml:space="preserve" font-family="GillSans,Gill Sans" font-size="32.0" fill="#FEFFFF" transform="matrix(1.00, 0.00, -0.00, -1.00, 320.3, 269.4)">r</text><text xml:space="preserve" font-family="GillSans,Gill Sans" font-size="32.0" fill="#FEFFFF" transform="matrix(1.00, 0.00, -0.00, -1.00, 332.4, 269.4)">e</text><text xml:space="preserve" font-family="GillSans,Gill Sans" font-size="32.0" fill="#FEFFFF" transform="matrix(1.00, 0.00, -0.00, -1.00, 347.7, 269.4)"> </text><text xml:space="preserve" font-family="GillSans,Gill Sans" font-size="32.0" fill="#FEFFFF" transform="matrix(1.00, 0.00, -0.00, -1.00, 356.6, 269.4)">I</text><text xml:space="preserve" font-family="GillSans,Gill Sans" font-size="32.0" fill="#FEFFFF" transform="matrix(1.00, 0.00, -0.00, -1.00, 364.6, 269.4)">d</text><text xml:space="preserve" font-family="GillSans,Gill Sans" font-size="32.0" fill="#FEFFFF" transform="matrix(1.00, 0.00, -0.00, -1.00, 380.9, 269.4)">e</text><text xml:space="preserve" font-family="GillSans,Gill Sans" font-size="32.0" fill="#FEFFFF" transform="matrix(1.00, 0.00, -0.00, -1.00, 396.2, 269.4)">a</text><text xml:space="preserve" font-family="GillSans,Gill Sans" font-size="32.0" fill="#FEFFFF" transform="matrix(1.00, 0.00, -0.00, -1.00, 409.9, 269.4)">	</text><text xml:space="preserve" font-family="GillSans,Gill Sans" font-size="32.0" fill="#FEFFFF" transform="matrix(1.00, 0.00, -0.00, -1.00, 437.9, 269.4)">
</text><text xml:space="preserve" font-family="GillSans,Gill Sans" font-size="32.0" fill="#FEFFFF" transform="matrix(1.00, 0.00, -0.00, -1.00, 437.9, 269.4)"></text><text xml:space="preserve" font-family="GillSans,Gill Sans" font-size="54.7" fill="#FEFFFF" transform="matrix(1.00, 0.00, -0.00, -1.00, 29.0, 201.1)">•</text><text xml:space="preserve" font-family="GillSans,Gill Sans" font-size="32.0" fill="#FEFFFF" transform="matrix(1.00, 0.00, -0.00, -1.00, 74.0, 209.4)">C</text><text xml:space="preserve" font-family="GillSans,Gill Sans" font-size="32.0" fill="#FEFFFF" transform="matrix(1.00, 0.00, -0.00, -1.00, 96.7, 209.4)">r</text><text xml:space="preserve" font-family="GillSans,Gill Sans" font-size="32.0" fill="#FEFFFF" transform="matrix(1.00, 0.00, -0.00, -1.00, 108.5, 209.4)">o</text><text xml:space="preserve" font-family="GillSans,Gill Sans" font-size="32.0" fill="#FEFFFF" transform="matrix(1.00, 0.00, -0.00, -1.00, 126.2, 209.4)">s</text><text xml:space="preserve" font-family="GillSans,Gill Sans" font-size="32.0" fill="#FEFFFF" transform="matrix(1.00, 0.00, -0.00, -1.00, 138.5, 209.4)">s</text><text xml:space="preserve" font-family="GillSans,Gill Sans" font-size="32.0" fill="#FEFFFF" transform="matrix(1.00, 0.00, -0.00, -1.00, 150.8, 209.4)">-</text><text xml:space="preserve" font-family="GillSans,Gill Sans" font-size="32.0" fill="#FEFFFF" transform="matrix(1.00, 0.00, -0.00, -1.00, 161.1, 209.4)">p</text><text xml:space="preserve" font-family="GillSans,Gill Sans" font-size="32.0" fill="#FEFFFF" transform="matrix(1.00, 0.00, -0.00, -1.00, 177.1, 209.4)">l</text><text xml:space="preserve" font-family="GillSans,Gill Sans" font-size="32.0" fill="#FEFFFF" transform="matrix(1.00, 0.00, -0.00, -1.00, 184.2, 209.4)">a</text><text xml:space="preserve" font-family="GillSans,Gill Sans" font-size="32.0" fill="#FEFFFF" transform="matrix(1.00, 0.00, -0.00, -1.00, 197.8, 209.4)">t</text><text xml:space="preserve" font-family="GillSans,Gill Sans" font-size="32.0" fill="#FEFFFF" transform="matrix(1.00, 0.00, -0.00, -1.00, 208.5, 209.4)">f</text><text xml:space="preserve" font-family="GillSans,Gill Sans" font-size="32.0" fill="#FEFFFF" transform="matrix(1.00, 0.00, -0.00, -1.00, 216.2, 209.4)">o</text><text xml:space="preserve" font-family="GillSans,Gill Sans" font-size="32.0" fill="#FEFFFF" transform="matrix(1.00, 0.00, -0.00, -1.00, 233.8, 209.4)">r</text><text xml:space="preserve" font-family="GillSans,Gill Sans" font-size="32.0" fill="#FEFFFF" transform="matrix(1.00, 0.00, -0.00, -1.00, 246.5, 209.4)">m</text><text xml:space="preserve" font-family="GillSans,Gill Sans" font-size="32.0" fill="#FEFFFF" transform="matrix(1.00, 0.00, -0.00, -1.00, 271.2, 209.4)"> </text><text xml:space="preserve" font-family="GillSans,Gill Sans" font-size="32.0" fill="#FEFFFF" transform="matrix(1.00, 0.00, -0.00, -1.00, 280.0, 209.4)">i</text><text xml:space="preserve" font-family="GillSans,Gill Sans" font-size="32.0" fill="#FEFFFF" transform="matrix(1.00, 0.00, -0.00, -1.00, 287.1, 209.4)">n</text><text xml:space="preserve" font-family="GillSans,Gill Sans" font-size="32.0" fill="#FEFFFF" transform="matrix(1.00, 0.00, -0.00, -1.00, 303.1, 209.4)"> </text><text xml:space="preserve" font-family="GillSans,Gill Sans" font-size="32.0" fill="#FEFFFF" transform="matrix(1.00, 0.00, -0.00, -1.00, 311.9, 209.4)">p</text><text xml:space="preserve" font-family="GillSans,Gill Sans" font-size="32.0" fill="#FEFFFF" transform="matrix(1.00, 0.00, -0.00, -1.00, 327.9, 209.4)">r</text><text xml:space="preserve" font-family="GillSans,Gill Sans" font-size="32.0" fill="#FEFFFF" transform="matrix(1.00, 0.00, -0.00, -1.00, 340.6, 209.4)">a</text><text xml:space="preserve" font-family="GillSans,Gill Sans" font-size="32.0" fill="#FEFFFF" transform="matrix(1.00, 0.00, -0.00, -1.00, 354.3, 209.4)">c</text><text xml:space="preserve" font-family="GillSans,Gill Sans" font-size="32.0" fill="#FEFFFF" transform="matrix(1.00, 0.00, -0.00, -1.00, 368.3, 209.4)">t</text><text xml:space="preserve" font-family="GillSans,Gill Sans" font-size="32.0" fill="#FEFFFF" transform="matrix(1.00, 0.00, -0.00, -1.00, 378.9, 209.4)">i</text><text xml:space="preserve" font-family="GillSans,Gill Sans" font-size="32.0" fill="#FEFFFF" transform="matrix(1.00, 0.00, -0.00, -1.00, 386.0, 209.4)">c</text><text xml:space="preserve" font-family="GillSans,Gill Sans" font-size="32.0" fill="#FEFFFF" transform="matrix(1.00, 0.00, -0.00, -1.00, 400.0, 209.4)">e</text></g></svg>