<?xml version="1.0" encoding="UTF-8" standalone="no"?><svg xmlns="http://www.w3.org/2000/svg" xmlns:xlink="http://www.w3.org/1999/xlink" clip-rule="evenodd" stroke-miterlimit="10" viewBox="0 0 1024 768"><desc>SVG generated by Keynote</desc><defs></defs><g transform="matrix(1.00, 0.00, -0.00, -1.00, 0.0, 768.0)"><g><clipPath id="clip0x6100010ad500"><path d="M 0.0 768.0 L 1024.0 768.0 L 1024.0 0.0 L 0.0 0.0 Z M 0.0 768.0 "></path></clipPath><g clip-path="url(#clip0x6100010ad500)"><image xlink:href="../../E6DA75BE-1612-4AD0-BDCC-13BDD2FF18A5/assets/C69F8A4BB357ABB1A0F95B8BFBB7E603.jpeg" width="2048.00" height="1536.00" transform="matrix(0.50, 0.00, -0.00, -0.50, 0.0, 768.0)"></image></g></g><text xml:space="preserve" font-family="GillSans,Gill Sans" font-size="84.0" fill="#FEFFFF" transform="matrix(1.00, 0.00, -0.00, -1.00, 331.7, 623.4)">C</text><text xml:space="preserve" font-family="GillSans,Gill Sans" font-size="84.0" fill="#FEFFFF" transform="matrix(1.00, 0.00, -0.00, -1.00, 391.2, 623.4)">u</text><text xml:space="preserve" font-family="GillSans,Gill Sans" font-size="84.0" fill="#FEFFFF" transform="matrix(1.00, 0.00, -0.00, -1.00, 433.2, 623.4)">c</text><text xml:space="preserve" font-family="GillSans,Gill Sans" font-size="84.0" fill="#FEFFFF" transform="matrix(1.00, 0.00, -0.00, -1.00, 470.0, 623.4)">u</text><text xml:space="preserve" font-family="GillSans,Gill Sans" font-size="84.0" fill="#FEFFFF" transform="matrix(1.00, 0.00, -0.00, -1.00, 512.0, 623.4)">m</text><text xml:space="preserve" font-family="GillSans,Gill Sans" font-size="84.0" fill="#FEFFFF" transform="matrix(1.00, 0.00, -0.00, -1.00, 576.8, 623.4)">b</text><text xml:space="preserve" font-family="GillSans,Gill Sans" font-size="84.0" fill="#FEFFFF" transform="matrix(1.00, 0.00, -0.00, -1.00, 618.8, 623.4)">e</text><text xml:space="preserve" font-family="GillSans,Gill Sans" font-size="84.0" fill="#FEFFFF" transform="matrix(1.00, 0.00, -0.00, -1.00, 659.0, 623.4)">r</text><text xml:space="preserve" font-family="GillSans,Gill Sans" font-size="71.8" fill="#FEFFFF" transform="matrix(1.00, 0.00, -0.00, -1.00, 129.0, 347.6)">•</text><text xml:space="preserve" font-family="GillSans,Gill Sans" font-size="42.0" fill="#FEFFFF" transform="matrix(1.00, 0.00, -0.00, -1.00, 174.0, 357.7)">A</text><text xml:space="preserve" font-family="GillSans,Gill Sans" font-size="42.0" fill="#FEFFFF" transform="matrix(1.00, 0.00, -0.00, -1.00, 202.0, 357.7)"> </text><text xml:space="preserve" font-family="GillSans,Gill Sans" font-size="42.0" fill="#FEFFFF" transform="matrix(1.00, 0.00, -0.00, -1.00, 213.7, 357.7)">t</text><text xml:space="preserve" font-family="GillSans,Gill Sans" font-size="42.0" fill="#FEFFFF" transform="matrix(1.00, 0.00, -0.00, -1.00, 227.7, 357.7)">o</text><text xml:space="preserve" font-family="GillSans,Gill Sans" font-size="42.0" fill="#FEFFFF" transform="matrix(1.00, 0.00, -0.00, -1.00, 250.8, 357.7)">o</text><text xml:space="preserve" font-family="GillSans,Gill Sans" font-size="42.0" fill="#FEFFFF" transform="matrix(1.00, 0.00, -0.00, -1.00, 274.0, 357.7)">l</text><text xml:space="preserve" font-family="GillSans,Gill Sans" font-size="42.0" fill="#FEFFFF" transform="matrix(1.00, 0.00, -0.00, -1.00, 283.2, 357.7)"> </text><text xml:space="preserve" font-family="GillSans,Gill Sans" font-size="42.0" fill="#FEFFFF" transform="matrix(1.00, 0.00, -0.00, -1.00, 294.9, 357.7)">t</text><text xml:space="preserve" font-family="GillSans,Gill Sans" font-size="42.0" fill="#FEFFFF" transform="matrix(1.00, 0.00, -0.00, -1.00, 308.9, 357.7)">h</text><text xml:space="preserve" font-family="GillSans,Gill Sans" font-size="42.0" fill="#FEFFFF" transform="matrix(1.00, 0.00, -0.00, -1.00, 329.9, 357.7)">a</text><text xml:space="preserve" font-family="GillSans,Gill Sans" font-size="42.0" fill="#FEFFFF" transform="matrix(1.00, 0.00, -0.00, -1.00, 347.8, 357.7)">t</text><text xml:space="preserve" font-family="GillSans,Gill Sans" font-size="42.0" fill="#FEFFFF" transform="matrix(1.00, 0.00, -0.00, -1.00, 361.8, 357.7)"> </text><text xml:space="preserve" font-family="GillSans,Gill Sans" font-size="42.0" fill="#FEFFFF" transform="matrix(1.00, 0.00, -0.00, -1.00, 373.4, 357.7)">e</text><text xml:space="preserve" font-family="GillSans,Gill Sans" font-size="42.0" fill="#FEFFFF" transform="matrix(1.00, 0.00, -0.00, -1.00, 393.5, 357.7)">x</text><text xml:space="preserve" font-family="GillSans,Gill Sans" font-size="42.0" fill="#FEFFFF" transform="matrix(1.00, 0.00, -0.00, -1.00, 413.3, 357.7)">e</text><text xml:space="preserve" font-family="GillSans,Gill Sans" font-size="42.0" fill="#FEFFFF" transform="matrix(1.00, 0.00, -0.00, -1.00, 433.4, 357.7)">c</text><text xml:space="preserve" font-family="GillSans,Gill Sans" font-size="42.0" fill="#FEFFFF" transform="matrix(1.00, 0.00, -0.00, -1.00, 451.8, 357.7)">u</text><text xml:space="preserve" font-family="GillSans,Gill Sans" font-size="42.0" fill="#FEFFFF" transform="matrix(1.00, 0.00, -0.00, -1.00, 472.8, 357.7)">t</text><text xml:space="preserve" font-family="GillSans,Gill Sans" font-size="42.0" fill="#FEFFFF" transform="matrix(1.00, 0.00, -0.00, -1.00, 486.8, 357.7)">e</text><text xml:space="preserve" font-family="GillSans,Gill Sans" font-size="42.0" fill="#FEFFFF" transform="matrix(1.00, 0.00, -0.00, -1.00, 506.9, 357.7)">s</text><text xml:space="preserve" font-family="GillSans,Gill Sans" font-size="42.0" fill="#FEFFFF" transform="matrix(1.00, 0.00, -0.00, -1.00, 523.1, 357.7)"> </text><text xml:space="preserve" font-family="GillSans,Gill Sans" font-size="42.0" fill="#FEFFFF" transform="matrix(1.00, 0.00, -0.00, -1.00, 534.7, 357.7)">p</text><text xml:space="preserve" font-family="GillSans,Gill Sans" font-size="42.0" fill="#FEFFFF" transform="matrix(1.00, 0.00, -0.00, -1.00, 555.7, 357.7)">l</text><text xml:space="preserve" font-family="GillSans,Gill Sans" font-size="42.0" fill="#FEFFFF" transform="matrix(1.00, 0.00, -0.00, -1.00, 564.9, 357.7)">a</text><text xml:space="preserve" font-family="GillSans,Gill Sans" font-size="42.0" fill="#FEFFFF" transform="matrix(1.00, 0.00, -0.00, -1.00, 582.8, 357.7)">i</text><text xml:space="preserve" font-family="GillSans,Gill Sans" font-size="42.0" fill="#FEFFFF" transform="matrix(1.00, 0.00, -0.00, -1.00, 592.1, 357.7)">n</text><text xml:space="preserve" font-family="GillSans,Gill Sans" font-size="42.0" fill="#FEFFFF" transform="matrix(1.00, 0.00, -0.00, -1.00, 613.1, 357.7)">-</text><text xml:space="preserve" font-family="GillSans,Gill Sans" font-size="42.0" fill="#FEFFFF" transform="matrix(1.00, 0.00, -0.00, -1.00, 626.6, 357.7)">t</text><text xml:space="preserve" font-family="GillSans,Gill Sans" font-size="42.0" fill="#FEFFFF" transform="matrix(1.00, 0.00, -0.00, -1.00, 640.6, 357.7)">e</text><text xml:space="preserve" font-family="GillSans,Gill Sans" font-size="42.0" fill="#FEFFFF" transform="matrix(1.00, 0.00, -0.00, -1.00, 660.8, 357.7)">x</text><text xml:space="preserve" font-family="GillSans,Gill Sans" font-size="42.0" fill="#FEFFFF" transform="matrix(1.00, 0.00, -0.00, -1.00, 681.8, 357.7)">t</text><text xml:space="preserve" font-family="GillSans,Gill Sans" font-size="42.0" fill="#FEFFFF" transform="matrix(1.00, 0.00, -0.00, -1.00, 695.7, 357.7)"> </text><text xml:space="preserve" font-family="GillSans,Gill Sans" font-size="42.0" fill="#FEFFFF" transform="matrix(1.00, 0.00, -0.00, -1.00, 707.4, 357.7)">f</text><text xml:space="preserve" font-family="GillSans,Gill Sans" font-size="42.0" fill="#FEFFFF" transform="matrix(1.00, 0.00, -0.00, -1.00, 717.9, 357.7)">u</text><text xml:space="preserve" font-family="GillSans,Gill Sans" font-size="42.0" fill="#FEFFFF" transform="matrix(1.00, 0.00, -0.00, -1.00, 738.9, 357.7)">n</text><text xml:space="preserve" font-family="GillSans,Gill Sans" font-size="42.0" fill="#FEFFFF" transform="matrix(1.00, 0.00, -0.00, -1.00, 759.9, 357.7)">c</text><text xml:space="preserve" font-family="GillSans,Gill Sans" font-size="42.0" fill="#FEFFFF" transform="matrix(1.00, 0.00, -0.00, -1.00, 778.3, 357.7)">t</text><text xml:space="preserve" font-family="GillSans,Gill Sans" font-size="42.0" fill="#FEFFFF" transform="matrix(1.00, 0.00, -0.00, -1.00, 792.3, 357.7)">i</text><text xml:space="preserve" font-family="GillSans,Gill Sans" font-size="42.0" fill="#FEFFFF" transform="matrix(1.00, 0.00, -0.00, -1.00, 801.5, 357.7)">o</text><text xml:space="preserve" font-family="GillSans,Gill Sans" font-size="42.0" fill="#FEFFFF" transform="matrix(1.00, 0.00, -0.00, -1.00, 824.7, 357.7)">n</text><text xml:space="preserve" font-family="GillSans,Gill Sans" font-size="42.0" fill="#FEFFFF" transform="matrix(1.00, 0.00, -0.00, -1.00, 845.7, 357.7)">a</text><text xml:space="preserve" font-family="GillSans,Gill Sans" font-size="42.0" fill="#FEFFFF" transform="matrix(1.00, 0.00, -0.00, -1.00, 863.6, 357.7)">l</text><text xml:space="preserve" font-family="GillSans,Gill Sans" font-size="42.0" fill="#FEFFFF" transform="matrix(1.00, 0.00, -0.00, -1.00, 872.8, 357.7)"> </text><text xml:space="preserve" font-family="GillSans,Gill Sans" font-size="42.0" fill="#FEFFFF" transform="matrix(1.00, 0.00, -0.00, -1.00, 174.0, 308.7)">d</text><text xml:space="preserve" font-family="GillSans,Gill Sans" font-size="42.0" fill="#FEFFFF" transform="matrix(1.00, 0.00, -0.00, -1.00, 195.4, 308.7)">e</text><text xml:space="preserve" font-family="GillSans,Gill Sans" font-size="42.0" fill="#FEFFFF" transform="matrix(1.00, 0.00, -0.00, -1.00, 215.5, 308.7)">s</text><text xml:space="preserve" font-family="GillSans,Gill Sans" font-size="42.0" fill="#FEFFFF" transform="matrix(1.00, 0.00, -0.00, -1.00, 231.7, 308.7)">c</text><text xml:space="preserve" font-family="GillSans,Gill Sans" font-size="42.0" fill="#FEFFFF" transform="matrix(1.00, 0.00, -0.00, -1.00, 250.1, 308.7)">r</text><text xml:space="preserve" font-family="GillSans,Gill Sans" font-size="42.0" fill="#FEFFFF" transform="matrix(1.00, 0.00, -0.00, -1.00, 266.7, 308.7)">i</text><text xml:space="preserve" font-family="GillSans,Gill Sans" font-size="42.0" fill="#FEFFFF" transform="matrix(1.00, 0.00, -0.00, -1.00, 275.9, 308.7)">p</text><text xml:space="preserve" font-family="GillSans,Gill Sans" font-size="42.0" fill="#FEFFFF" transform="matrix(1.00, 0.00, -0.00, -1.00, 296.9, 308.7)">t</text><text xml:space="preserve" font-family="GillSans,Gill Sans" font-size="42.0" fill="#FEFFFF" transform="matrix(1.00, 0.00, -0.00, -1.00, 310.9, 308.7)">i</text><text xml:space="preserve" font-family="GillSans,Gill Sans" font-size="42.0" fill="#FEFFFF" transform="matrix(1.00, 0.00, -0.00, -1.00, 320.1, 308.7)">o</text><text xml:space="preserve" font-family="GillSans,Gill Sans" font-size="42.0" fill="#FEFFFF" transform="matrix(1.00, 0.00, -0.00, -1.00, 343.3, 308.7)">n</text><text xml:space="preserve" font-family="GillSans,Gill Sans" font-size="42.0" fill="#FEFFFF" transform="matrix(1.00, 0.00, -0.00, -1.00, 364.3, 308.7)">s</text><text xml:space="preserve" font-family="GillSans,Gill Sans" font-size="42.0" fill="#FEFFFF" transform="matrix(1.00, 0.00, -0.00, -1.00, 380.4, 308.7)"> </text><text xml:space="preserve" font-family="GillSans,Gill Sans" font-size="42.0" fill="#FEFFFF" transform="matrix(1.00, 0.00, -0.00, -1.00, 392.1, 308.7)">a</text><text xml:space="preserve" font-family="GillSans,Gill Sans" font-size="42.0" fill="#FEFFFF" transform="matrix(1.00, 0.00, -0.00, -1.00, 410.0, 308.7)">s</text><text xml:space="preserve" font-family="GillSans,Gill Sans" font-size="42.0" fill="#FEFFFF" transform="matrix(1.00, 0.00, -0.00, -1.00, 426.2, 308.7)"> </text><text xml:space="preserve" font-family="GillSans,Gill Sans" font-size="42.0" fill="#FEFFFF" transform="matrix(1.00, 0.00, -0.00, -1.00, 437.8, 308.7)">a</text><text xml:space="preserve" font-family="GillSans,Gill Sans" font-size="42.0" fill="#FEFFFF" transform="matrix(1.00, 0.00, -0.00, -1.00, 455.7, 308.7)">u</text><text xml:space="preserve" font-family="GillSans,Gill Sans" font-size="42.0" fill="#FEFFFF" transform="matrix(1.00, 0.00, -0.00, -1.00, 476.7, 308.7)">t</text><text xml:space="preserve" font-family="GillSans,Gill Sans" font-size="42.0" fill="#FEFFFF" transform="matrix(1.00, 0.00, -0.00, -1.00, 490.7, 308.7)">o</text><text xml:space="preserve" font-family="GillSans,Gill Sans" font-size="42.0" fill="#FEFFFF" transform="matrix(1.00, 0.00, -0.00, -1.00, 513.9, 308.7)">m</text><text xml:space="preserve" font-family="GillSans,Gill Sans" font-size="42.0" fill="#FEFFFF" transform="matrix(1.00, 0.00, -0.00, -1.00, 546.3, 308.7)">a</text><text xml:space="preserve" font-family="GillSans,Gill Sans" font-size="42.0" fill="#FEFFFF" transform="matrix(1.00, 0.00, -0.00, -1.00, 564.2, 308.7)">t</text><text xml:space="preserve" font-family="GillSans,Gill Sans" font-size="42.0" fill="#FEFFFF" transform="matrix(1.00, 0.00, -0.00, -1.00, 578.2, 308.7)">e</text><text xml:space="preserve" font-family="GillSans,Gill Sans" font-size="42.0" fill="#FEFFFF" transform="matrix(1.00, 0.00, -0.00, -1.00, 598.3, 308.7)">d</text><text xml:space="preserve" font-family="GillSans,Gill Sans" font-size="42.0" fill="#FEFFFF" transform="matrix(1.00, 0.00, -0.00, -1.00, 619.7, 308.7)"> </text><text xml:space="preserve" font-family="GillSans,Gill Sans" font-size="42.0" fill="#FEFFFF" transform="matrix(1.00, 0.00, -0.00, -1.00, 631.4, 308.7)">t</text><text xml:space="preserve" font-family="GillSans,Gill Sans" font-size="42.0" fill="#FEFFFF" transform="matrix(1.00, 0.00, -0.00, -1.00, 645.3, 308.7)">e</text><text xml:space="preserve" font-family="GillSans,Gill Sans" font-size="42.0" fill="#FEFFFF" transform="matrix(1.00, 0.00, -0.00, -1.00, 665.5, 308.7)">s</text><text xml:space="preserve" font-family="GillSans,Gill Sans" font-size="42.0" fill="#FEFFFF" transform="matrix(1.00, 0.00, -0.00, -1.00, 681.6, 308.7)">t</text><text xml:space="preserve" font-family="GillSans,Gill Sans" font-size="42.0" fill="#FEFFFF" transform="matrix(1.00, 0.00, -0.00, -1.00, 695.6, 308.7)">s</text><text xml:space="preserve" font-family="GillSans,Gill Sans" font-size="42.0" fill="#FEFFFF" transform="matrix(1.00, 0.00, -0.00, -1.00, 711.7, 308.7)">.</text><text xml:space="preserve" font-family="GillSans,Gill Sans" font-size="42.0" fill="#FEFFFF" transform="matrix(1.00, 0.00, -0.00, -1.00, 716.8, 308.7)"> </text><text xml:space="preserve" font-family="GillSans,Gill Sans" font-size="42.0" fill="#FEFFFF" transform="matrix(1.00, 0.00, -0.00, -1.00, 728.4, 308.7)">	</text><text xml:space="preserve" font-family="GillSans,Gill Sans" font-size="42.0" fill="#FEFFFF" transform="matrix(1.00, 0.00, -0.00, -1.00, 756.4, 308.7)">
</text><text xml:space="preserve" font-family="GillSans,Gill Sans" font-size="42.0" fill="#FEFFFF" transform="matrix(1.00, 0.00, -0.00, -1.00, 756.4, 308.7)"></text><text xml:space="preserve" font-family="GillSans,Gill Sans" font-size="71.8" fill="#FEFFFF" transform="matrix(1.00, 0.00, -0.00, -1.00, 129.0, 225.6)">•</text><text xml:space="preserve" font-family="GillSans,Gill Sans" font-size="42.0" fill="#FEFFFF" transform="matrix(1.00, 0.00, -0.00, -1.00, 174.0, 235.7)">T</text><text xml:space="preserve" font-family="GillSans,Gill Sans" font-size="42.0" fill="#FEFFFF" transform="matrix(1.00, 0.00, -0.00, -1.00, 199.4, 235.7)">h</text><text xml:space="preserve" font-family="GillSans,Gill Sans" font-size="42.0" fill="#FEFFFF" transform="matrix(1.00, 0.00, -0.00, -1.00, 220.4, 235.7)">e</text><text xml:space="preserve" font-family="GillSans,Gill Sans" font-size="42.0" fill="#FEFFFF" transform="matrix(1.00, 0.00, -0.00, -1.00, 240.5, 235.7)"> </text><text xml:space="preserve" font-family="GillSans,Gill Sans" font-size="42.0" fill="#FEFFFF" transform="matrix(1.00, 0.00, -0.00, -1.00, 252.1, 235.7)">l</text><text xml:space="preserve" font-family="GillSans,Gill Sans" font-size="42.0" fill="#FEFFFF" transform="matrix(1.00, 0.00, -0.00, -1.00, 261.4, 235.7)">a</text><text xml:space="preserve" font-family="GillSans,Gill Sans" font-size="42.0" fill="#FEFFFF" transform="matrix(1.00, 0.00, -0.00, -1.00, 279.3, 235.7)">n</text><text xml:space="preserve" font-family="GillSans,Gill Sans" font-size="42.0" fill="#FEFFFF" transform="matrix(1.00, 0.00, -0.00, -1.00, 300.3, 235.7)">g</text><text xml:space="preserve" font-family="GillSans,Gill Sans" font-size="42.0" fill="#FEFFFF" transform="matrix(1.00, 0.00, -0.00, -1.00, 318.2, 235.7)">u</text><text xml:space="preserve" font-family="GillSans,Gill Sans" font-size="42.0" fill="#FEFFFF" transform="matrix(1.00, 0.00, -0.00, -1.00, 339.2, 235.7)">a</text><text xml:space="preserve" font-family="GillSans,Gill Sans" font-size="42.0" fill="#FEFFFF" transform="matrix(1.00, 0.00, -0.00, -1.00, 357.1, 235.7)">g</text><text xml:space="preserve" font-family="GillSans,Gill Sans" font-size="42.0" fill="#FEFFFF" transform="matrix(1.00, 0.00, -0.00, -1.00, 375.0, 235.7)">e</text><text xml:space="preserve" font-family="GillSans,Gill Sans" font-size="42.0" fill="#FEFFFF" transform="matrix(1.00, 0.00, -0.00, -1.00, 395.1, 235.7)"> </text><text xml:space="preserve" font-family="GillSans,Gill Sans" font-size="42.0" fill="#FEFFFF" transform="matrix(1.00, 0.00, -0.00, -1.00, 406.8, 235.7)">t</text><text xml:space="preserve" font-family="GillSans,Gill Sans" font-size="42.0" fill="#FEFFFF" transform="matrix(1.00, 0.00, -0.00, -1.00, 420.8, 235.7)">h</text><text xml:space="preserve" font-family="GillSans,Gill Sans" font-size="42.0" fill="#FEFFFF" transform="matrix(1.00, 0.00, -0.00, -1.00, 441.8, 235.7)">a</text><text xml:space="preserve" font-family="GillSans,Gill Sans" font-size="42.0" fill="#FEFFFF" transform="matrix(1.00, 0.00, -0.00, -1.00, 459.7, 235.7)">t</text><text xml:space="preserve" font-family="GillSans,Gill Sans" font-size="42.0" fill="#FEFFFF" transform="matrix(1.00, 0.00, -0.00, -1.00, 473.7, 235.7)"> </text><text xml:space="preserve" font-family="GillSans,Gill Sans" font-size="42.0" fill="#FEFFFF" transform="matrix(1.00, 0.00, -0.00, -1.00, 485.4, 235.7)">C</text><text xml:space="preserve" font-family="GillSans,Gill Sans" font-size="42.0" fill="#FEFFFF" transform="matrix(1.00, 0.00, -0.00, -1.00, 515.1, 235.7)">u</text><text xml:space="preserve" font-family="GillSans,Gill Sans" font-size="42.0" fill="#FEFFFF" transform="matrix(1.00, 0.00, -0.00, -1.00, 536.1, 235.7)">c</text><text xml:space="preserve" font-family="GillSans,Gill Sans" font-size="42.0" fill="#FEFFFF" transform="matrix(1.00, 0.00, -0.00, -1.00, 554.5, 235.7)">u</text><text xml:space="preserve" font-family="GillSans,Gill Sans" font-size="42.0" fill="#FEFFFF" transform="matrix(1.00, 0.00, -0.00, -1.00, 575.5, 235.7)">m</text><text xml:space="preserve" font-family="GillSans,Gill Sans" font-size="42.0" fill="#FEFFFF" transform="matrix(1.00, 0.00, -0.00, -1.00, 607.9, 235.7)">b</text><text xml:space="preserve" font-family="GillSans,Gill Sans" font-size="42.0" fill="#FEFFFF" transform="matrix(1.00, 0.00, -0.00, -1.00, 628.9, 235.7)">e</text><text xml:space="preserve" font-family="GillSans,Gill Sans" font-size="42.0" fill="#FEFFFF" transform="matrix(1.00, 0.00, -0.00, -1.00, 649.0, 235.7)">r</text><text xml:space="preserve" font-family="GillSans,Gill Sans" font-size="42.0" fill="#FEFFFF" transform="matrix(1.00, 0.00, -0.00, -1.00, 665.6, 235.7)"> </text><text xml:space="preserve" font-family="GillSans,Gill Sans" font-size="42.0" fill="#FEFFFF" transform="matrix(1.00, 0.00, -0.00, -1.00, 677.3, 235.7)">u</text><text xml:space="preserve" font-family="GillSans,Gill Sans" font-size="42.0" fill="#FEFFFF" transform="matrix(1.00, 0.00, -0.00, -1.00, 698.3, 235.7)">n</text><text xml:space="preserve" font-family="GillSans,Gill Sans" font-size="42.0" fill="#FEFFFF" transform="matrix(1.00, 0.00, -0.00, -1.00, 719.3, 235.7)">d</text><text xml:space="preserve" font-family="GillSans,Gill Sans" font-size="42.0" fill="#FEFFFF" transform="matrix(1.00, 0.00, -0.00, -1.00, 740.7, 235.7)">e</text><text xml:space="preserve" font-family="GillSans,Gill Sans" font-size="42.0" fill="#FEFFFF" transform="matrix(1.00, 0.00, -0.00, -1.00, 760.8, 235.7)">r</text><text xml:space="preserve" font-family="GillSans,Gill Sans" font-size="42.0" fill="#FEFFFF" transform="matrix(1.00, 0.00, -0.00, -1.00, 777.4, 235.7)">s</text><text xml:space="preserve" font-family="GillSans,Gill Sans" font-size="42.0" fill="#FEFFFF" transform="matrix(1.00, 0.00, -0.00, -1.00, 793.6, 235.7)">t</text><text xml:space="preserve" font-family="GillSans,Gill Sans" font-size="42.0" fill="#FEFFFF" transform="matrix(1.00, 0.00, -0.00, -1.00, 807.6, 235.7)">a</text><text xml:space="preserve" font-family="GillSans,Gill Sans" font-size="42.0" fill="#FEFFFF" transform="matrix(1.00, 0.00, -0.00, -1.00, 825.5, 235.7)">n</text><text xml:space="preserve" font-family="GillSans,Gill Sans" font-size="42.0" fill="#FEFFFF" transform="matrix(1.00, 0.00, -0.00, -1.00, 846.5, 235.7)">d</text><text xml:space="preserve" font-family="GillSans,Gill Sans" font-size="42.0" fill="#FEFFFF" transform="matrix(1.00, 0.00, -0.00, -1.00, 867.9, 235.7)">s</text><text xml:space="preserve" font-family="GillSans,Gill Sans" font-size="42.0" fill="#FEFFFF" transform="matrix(1.00, 0.00, -0.00, -1.00, 884.0, 235.7)"> </text><text xml:space="preserve" font-family="GillSans,Gill Sans" font-size="42.0" fill="#FEFFFF" transform="matrix(1.00, 0.00, -0.00, -1.00, 174.0, 186.7)">i</text><text xml:space="preserve" font-family="GillSans,Gill Sans" font-size="42.0" fill="#FEFFFF" transform="matrix(1.00, 0.00, -0.00, -1.00, 183.2, 186.7)">s</text><text xml:space="preserve" font-family="GillSans,Gill Sans" font-size="42.0" fill="#FEFFFF" transform="matrix(1.00, 0.00, -0.00, -1.00, 199.4, 186.7)"> </text><text xml:space="preserve" font-family="GillSans,Gill Sans" font-size="42.0" fill="#FEFFFF" transform="matrix(1.00, 0.00, -0.00, -1.00, 211.0, 186.7)">c</text><text xml:space="preserve" font-family="GillSans,Gill Sans" font-size="42.0" fill="#FEFFFF" transform="matrix(1.00, 0.00, -0.00, -1.00, 229.4, 186.7)">a</text><text xml:space="preserve" font-family="GillSans,Gill Sans" font-size="42.0" fill="#FEFFFF" transform="matrix(1.00, 0.00, -0.00, -1.00, 247.3, 186.7)">l</text><text xml:space="preserve" font-family="GillSans,Gill Sans" font-size="42.0" fill="#FEFFFF" transform="matrix(1.00, 0.00, -0.00, -1.00, 256.6, 186.7)">l</text><text xml:space="preserve" font-family="GillSans,Gill Sans" font-size="42.0" fill="#FEFFFF" transform="matrix(1.00, 0.00, -0.00, -1.00, 265.8, 186.7)">e</text><text xml:space="preserve" font-family="GillSans,Gill Sans" font-size="42.0" fill="#FEFFFF" transform="matrix(1.00, 0.00, -0.00, -1.00, 285.9, 186.7)">d</text><text xml:space="preserve" font-family="GillSans,Gill Sans" font-size="42.0" fill="#FEFFFF" transform="matrix(1.00, 0.00, -0.00, -1.00, 307.3, 186.7)"> </text><text xml:space="preserve" font-family="GillSans,Gill Sans" font-size="42.0" fill="#FEFFFF" transform="matrix(1.00, 0.00, -0.00, -1.00, 319.0, 186.7)">G</text><text xml:space="preserve" font-family="GillSans,Gill Sans" font-size="42.0" fill="#FEFFFF" transform="matrix(1.00, 0.00, -0.00, -1.00, 350.1, 186.7)">h</text><text xml:space="preserve" font-family="GillSans,Gill Sans" font-size="42.0" fill="#FEFFFF" transform="matrix(1.00, 0.00, -0.00, -1.00, 371.1, 186.7)">e</text><text xml:space="preserve" font-family="GillSans,Gill Sans" font-size="42.0" fill="#FEFFFF" transform="matrix(1.00, 0.00, -0.00, -1.00, 391.2, 186.7)">r</text><text xml:space="preserve" font-family="GillSans,Gill Sans" font-size="42.0" fill="#FEFFFF" transform="matrix(1.00, 0.00, -0.00, -1.00, 407.8, 186.7)">k</text><text xml:space="preserve" font-family="GillSans,Gill Sans" font-size="42.0" fill="#FEFFFF" transform="matrix(1.00, 0.00, -0.00, -1.00, 427.9, 186.7)">i</text><text xml:space="preserve" font-family="GillSans,Gill Sans" font-size="42.0" fill="#FEFFFF" transform="matrix(1.00, 0.00, -0.00, -1.00, 437.1, 186.7)">n</text><text xml:space="preserve" font-family="GillSans,Gill Sans" font-size="42.0" fill="#FEFFFF" transform="matrix(1.00, 0.00, -0.00, -1.00, 458.1, 186.7)">.</text><g><clipPath id="clip0x6080018a9540"><path d="M 406.0 585.0 L 618.0 585.0 L 618.0 424.0 L 406.0 424.0 Z M 406.0 584.5 "></path></clipPath><g clip-path="url(#clip0x6080018a9540)"><image xlink:href="../../E6DA75BE-1612-4AD0-BDCC-13BDD2FF18A5/assets/A271A919C7851B4561E7ED9B162987DB.jpeg" width="277.00" height="182.00" transform="matrix(0.88, 0.00, -0.00, -0.88, 390.2, 584.3)"></image></g></g><path d="M 0.0 0.2 L 0.0 160.2 L 212.0 160.2 L 212.0 0.2 L 0.0 0.2 Z M 0.0 0.2 " fill="none" stroke="#FFFFFF" stroke-width="2.00" transform="matrix(1.00, 0.00, 0.00, -1.00, 406.0, 584.5)"></path></g></svg>