<?xml version="1.0" encoding="UTF-8" standalone="no"?><svg xmlns="http://www.w3.org/2000/svg" xmlns:xlink="http://www.w3.org/1999/xlink" clip-rule="evenodd" stroke-miterlimit="10" viewBox="0 0 1024 768"><desc>SVG generated by Keynote</desc><defs></defs><g transform="matrix(1.00, 0.00, -0.00, -1.00, 0.0, 768.0)"><g><clipPath id="clip0x6100012a4440"><path d="M 0.0 768.0 L 1024.0 768.0 L 1024.0 0.0 L 0.0 0.0 Z M 0.0 768.0 "></path></clipPath><g clip-path="url(#clip0x6100012a4440)"><image xlink:href="../../E6DA75BE-1612-4AD0-BDCC-13BDD2FF18A5/assets/C69F8A4BB357ABB1A0F95B8BFBB7E603.jpeg" width="2048.00" height="1536.00" transform="matrix(0.50, 0.00, -0.00, -0.50, 0.0, 768.0)"></image></g></g><text xml:space="preserve" font-family="GillSans,Gill Sans" font-size="84.0" fill="#FEFFFF" transform="matrix(1.00, 0.00, -0.00, -1.00, 191.2, 623.4)">S</text><text xml:space="preserve" font-family="GillSans,Gill Sans" font-size="84.0" fill="#FEFFFF" transform="matrix(1.00, 0.00, -0.00, -1.00, 229.6, 623.4)">e</text><text xml:space="preserve" font-family="GillSans,Gill Sans" font-size="84.0" fill="#FEFFFF" transform="matrix(1.00, 0.00, -0.00, -1.00, 269.9, 623.4)">t</text><text xml:space="preserve" font-family="GillSans,Gill Sans" font-size="84.0" fill="#FEFFFF" transform="matrix(1.00, 0.00, -0.00, -1.00, 297.9, 623.4)"> </text><text xml:space="preserve" font-family="GillSans,Gill Sans" font-size="84.0" fill="#FEFFFF" transform="matrix(1.00, 0.00, -0.00, -1.00, 321.2, 623.4)">a</text><text xml:space="preserve" font-family="GillSans,Gill Sans" font-size="84.0" fill="#FEFFFF" transform="matrix(1.00, 0.00, -0.00, -1.00, 357.0, 623.4)">c</text><text xml:space="preserve" font-family="GillSans,Gill Sans" font-size="84.0" fill="#FEFFFF" transform="matrix(1.00, 0.00, -0.00, -1.00, 393.8, 623.4)">c</text><text xml:space="preserve" font-family="GillSans,Gill Sans" font-size="84.0" fill="#FEFFFF" transform="matrix(1.00, 0.00, -0.00, -1.00, 430.6, 623.4)">e</text><text xml:space="preserve" font-family="GillSans,Gill Sans" font-size="84.0" fill="#FEFFFF" transform="matrix(1.00, 0.00, -0.00, -1.00, 470.8, 623.4)">s</text><text xml:space="preserve" font-family="GillSans,Gill Sans" font-size="84.0" fill="#FEFFFF" transform="matrix(1.00, 0.00, -0.00, -1.00, 503.1, 623.4)">s</text><text xml:space="preserve" font-family="GillSans,Gill Sans" font-size="84.0" fill="#FEFFFF" transform="matrix(1.00, 0.00, -0.00, -1.00, 535.4, 623.4)">i</text><text xml:space="preserve" font-family="GillSans,Gill Sans" font-size="84.0" fill="#FEFFFF" transform="matrix(1.00, 0.00, -0.00, -1.00, 553.9, 623.4)">b</text><text xml:space="preserve" font-family="GillSans,Gill Sans" font-size="84.0" fill="#FEFFFF" transform="matrix(1.00, 0.00, -0.00, -1.00, 595.9, 623.4)">i</text><text xml:space="preserve" font-family="GillSans,Gill Sans" font-size="84.0" fill="#FEFFFF" transform="matrix(1.00, 0.00, -0.00, -1.00, 614.3, 623.4)">l</text><text xml:space="preserve" font-family="GillSans,Gill Sans" font-size="84.0" fill="#FEFFFF" transform="matrix(1.00, 0.00, -0.00, -1.00, 632.7, 623.4)">i</text><text xml:space="preserve" font-family="GillSans,Gill Sans" font-size="84.0" fill="#FEFFFF" transform="matrix(1.00, 0.00, -0.00, -1.00, 651.2, 623.4)">t</text><text xml:space="preserve" font-family="GillSans,Gill Sans" font-size="84.0" fill="#FEFFFF" transform="matrix(1.00, 0.00, -0.00, -1.00, 679.1, 623.4)">y</text><text xml:space="preserve" font-family="GillSans,Gill Sans" font-size="84.0" fill="#FEFFFF" transform="matrix(1.00, 0.00, -0.00, -1.00, 715.9, 623.4)"> </text><text xml:space="preserve" font-family="GillSans,Gill Sans" font-size="84.0" fill="#FEFFFF" transform="matrix(1.00, 0.00, -0.00, -1.00, 739.3, 623.4)">i</text><text xml:space="preserve" font-family="GillSans,Gill Sans" font-size="84.0" fill="#FEFFFF" transform="matrix(1.00, 0.00, -0.00, -1.00, 757.7, 623.4)">d</text><text xml:space="preserve" font-family="GillSans,Gill Sans" font-size="84.0" fill="#FEFFFF" transform="matrix(1.00, 0.00, -0.00, -1.00, 800.5, 623.4)">s</text><text xml:space="preserve" font-family="GillSans,Gill Sans" font-size="71.8" fill="#FEFFFF" transform="matrix(1.00, 0.00, -0.00, -1.00, 129.0, 401.6)">•</text><text xml:space="preserve" font-family="GillSans,Gill Sans" font-size="42.0" fill="#FEFFFF" transform="matrix(1.00, 0.00, -0.00, -1.00, 174.0, 411.7)">o</text><text xml:space="preserve" font-family="GillSans,Gill Sans" font-size="42.0" fill="#FEFFFF" transform="matrix(1.00, 0.00, -0.00, -1.00, 197.2, 411.7)">n</text><text xml:space="preserve" font-family="GillSans,Gill Sans" font-size="42.0" fill="#FEFFFF" transform="matrix(1.00, 0.00, -0.00, -1.00, 218.2, 411.7)"> </text><text xml:space="preserve" font-family="GillSans,Gill Sans" font-size="42.0" fill="#FEFFFF" transform="matrix(1.00, 0.00, -0.00, -1.00, 229.8, 411.7)">i</text><text xml:space="preserve" font-family="GillSans,Gill Sans" font-size="42.0" fill="#FEFFFF" transform="matrix(1.00, 0.00, -0.00, -1.00, 239.0, 411.7)">O</text><text xml:space="preserve" font-family="GillSans,Gill Sans" font-size="42.0" fill="#FEFFFF" transform="matrix(1.00, 0.00, -0.00, -1.00, 273.6, 411.7)">S</text><text xml:space="preserve" font-family="GillSans,Gill Sans" font-size="42.0" fill="#FEFFFF" transform="matrix(1.00, 0.00, -0.00, -1.00, 292.9, 411.7)">5</text><text xml:space="preserve" font-family="GillSans,Gill Sans" font-size="42.0" fill="#FEFFFF" transform="matrix(1.00, 0.00, -0.00, -1.00, 313.9, 411.7)">+</text><text xml:space="preserve" font-family="GillSans,Gill Sans" font-size="42.0" fill="#FEFFFF" transform="matrix(1.00, 0.00, -0.00, -1.00, 338.4, 411.7)"> </text><text xml:space="preserve" font-family="GillSans,Gill Sans" font-size="42.0" fill="#FEFFFF" transform="matrix(1.00, 0.00, -0.00, -1.00, 350.1, 411.7)">r</text><text xml:space="preserve" font-family="GillSans,Gill Sans" font-size="42.0" fill="#FEFFFF" transform="matrix(1.00, 0.00, -0.00, -1.00, 365.8, 411.7)">e</text><text xml:space="preserve" font-family="GillSans,Gill Sans" font-size="42.0" fill="#FEFFFF" transform="matrix(1.00, 0.00, -0.00, -1.00, 386.0, 411.7)">c</text><text xml:space="preserve" font-family="GillSans,Gill Sans" font-size="42.0" fill="#FEFFFF" transform="matrix(1.00, 0.00, -0.00, -1.00, 404.4, 411.7)">o</text><text xml:space="preserve" font-family="GillSans,Gill Sans" font-size="42.0" fill="#FEFFFF" transform="matrix(1.00, 0.00, -0.00, -1.00, 427.5, 411.7)">m</text><text xml:space="preserve" font-family="GillSans,Gill Sans" font-size="42.0" fill="#FEFFFF" transform="matrix(1.00, 0.00, -0.00, -1.00, 459.9, 411.7)">m</text><text xml:space="preserve" font-family="GillSans,Gill Sans" font-size="42.0" fill="#FEFFFF" transform="matrix(1.00, 0.00, -0.00, -1.00, 492.3, 411.7)">e</text><text xml:space="preserve" font-family="GillSans,Gill Sans" font-size="42.0" fill="#FEFFFF" transform="matrix(1.00, 0.00, -0.00, -1.00, 512.4, 411.7)">n</text><text xml:space="preserve" font-family="GillSans,Gill Sans" font-size="42.0" fill="#FEFFFF" transform="matrix(1.00, 0.00, -0.00, -1.00, 533.4, 411.7)">d</text><text xml:space="preserve" font-family="GillSans,Gill Sans" font-size="42.0" fill="#FEFFFF" transform="matrix(1.00, 0.00, -0.00, -1.00, 554.8, 411.7)">e</text><text xml:space="preserve" font-family="GillSans,Gill Sans" font-size="42.0" fill="#FEFFFF" transform="matrix(1.00, 0.00, -0.00, -1.00, 574.9, 411.7)">d</text><text xml:space="preserve" font-family="GillSans,Gill Sans" font-size="42.0" fill="#FEFFFF" transform="matrix(1.00, 0.00, -0.00, -1.00, 596.3, 411.7)"> </text><text xml:space="preserve" font-family="GillSans,Gill Sans" font-size="42.0" fill="#FEFFFF" transform="matrix(1.00, 0.00, -0.00, -1.00, 608.0, 411.7)">a</text><text xml:space="preserve" font-family="GillSans,Gill Sans" font-size="42.0" fill="#FEFFFF" transform="matrix(1.00, 0.00, -0.00, -1.00, 625.5, 411.7)">p</text><text xml:space="preserve" font-family="GillSans,Gill Sans" font-size="42.0" fill="#FEFFFF" transform="matrix(1.00, 0.00, -0.00, -1.00, 646.5, 411.7)">p</text><text xml:space="preserve" font-family="GillSans,Gill Sans" font-size="42.0" fill="#FEFFFF" transform="matrix(1.00, 0.00, -0.00, -1.00, 667.5, 411.7)">r</text><text xml:space="preserve" font-family="GillSans,Gill Sans" font-size="42.0" fill="#FEFFFF" transform="matrix(1.00, 0.00, -0.00, -1.00, 683.1, 411.7)">o</text><text xml:space="preserve" font-family="GillSans,Gill Sans" font-size="42.0" fill="#FEFFFF" transform="matrix(1.00, 0.00, -0.00, -1.00, 706.2, 411.7)">a</text><text xml:space="preserve" font-family="GillSans,Gill Sans" font-size="42.0" fill="#FEFFFF" transform="matrix(1.00, 0.00, -0.00, -1.00, 724.2, 411.7)">c</text><text xml:space="preserve" font-family="GillSans,Gill Sans" font-size="42.0" fill="#FEFFFF" transform="matrix(1.00, 0.00, -0.00, -1.00, 742.6, 411.7)">h</text><text xml:space="preserve" font-family="GillSans,Gill Sans" font-size="42.0" fill="#FEFFFF" transform="matrix(1.00, 0.00, -0.00, -1.00, 763.6, 411.7)"> </text><text xml:space="preserve" font-family="GillSans,Gill Sans" font-size="42.0" fill="#FEFFFF" transform="matrix(1.00, 0.00, -0.00, -1.00, 775.2, 411.7)">i</text><text xml:space="preserve" font-family="GillSans,Gill Sans" font-size="42.0" fill="#FEFFFF" transform="matrix(1.00, 0.00, -0.00, -1.00, 784.4, 411.7)">s</text><text xml:space="preserve" font-family="GillSans,Gill Sans" font-size="42.0" fill="#FEFFFF" transform="matrix(1.00, 0.00, -0.00, -1.00, 800.6, 411.7)"> </text><text xml:space="preserve" font-family="GillSans,Gill Sans" font-size="42.0" fill="#FEFFFF" transform="matrix(1.00, 0.00, -0.00, -1.00, 812.2, 411.7)">t</text><text xml:space="preserve" font-family="GillSans,Gill Sans" font-size="42.0" fill="#FEFFFF" transform="matrix(1.00, 0.00, -0.00, -1.00, 826.2, 411.7)">o</text><text xml:space="preserve" font-family="GillSans,Gill Sans" font-size="42.0" fill="#FEFFFF" transform="matrix(1.00, 0.00, -0.00, -1.00, 849.4, 411.7)"> </text><text xml:space="preserve" font-family="GillSans,Gill Sans" font-size="42.0" fill="#FEFFFF" transform="matrix(1.00, 0.00, -0.00, -1.00, 861.1, 411.7)">u</text><text xml:space="preserve" font-family="GillSans,Gill Sans" font-size="42.0" fill="#FEFFFF" transform="matrix(1.00, 0.00, -0.00, -1.00, 882.1, 411.7)">s</text><text xml:space="preserve" font-family="GillSans,Gill Sans" font-size="42.0" fill="#FEFFFF" transform="matrix(1.00, 0.00, -0.00, -1.00, 898.2, 411.7)">e</text><text xml:space="preserve" font-family="GillSans,Gill Sans" font-size="42.0" fill="#FEFFFF" transform="matrix(1.00, 0.00, -0.00, -1.00, 918.3, 411.7)"> </text><text xml:space="preserve" font-family="GillSans,Gill Sans" font-size="42.0" fill="#FEFFFF" transform="matrix(1.00, 0.00, -0.00, -1.00, 174.0, 362.7)">a</text><text xml:space="preserve" font-family="GillSans,Gill Sans" font-size="42.0" fill="#FEFFFF" transform="matrix(1.00, 0.00, -0.00, -1.00, 191.9, 362.7)">c</text><text xml:space="preserve" font-family="GillSans,Gill Sans" font-size="42.0" fill="#FEFFFF" transform="matrix(1.00, 0.00, -0.00, -1.00, 210.3, 362.7)">c</text><text xml:space="preserve" font-family="GillSans,Gill Sans" font-size="42.0" fill="#FEFFFF" transform="matrix(1.00, 0.00, -0.00, -1.00, 228.7, 362.7)">e</text><text xml:space="preserve" font-family="GillSans,Gill Sans" font-size="42.0" fill="#FEFFFF" transform="matrix(1.00, 0.00, -0.00, -1.00, 248.8, 362.7)">s</text><text xml:space="preserve" font-family="GillSans,Gill Sans" font-size="42.0" fill="#FEFFFF" transform="matrix(1.00, 0.00, -0.00, -1.00, 265.0, 362.7)">s</text><text xml:space="preserve" font-family="GillSans,Gill Sans" font-size="42.0" fill="#FEFFFF" transform="matrix(1.00, 0.00, -0.00, -1.00, 281.1, 362.7)">i</text><text xml:space="preserve" font-family="GillSans,Gill Sans" font-size="42.0" fill="#FEFFFF" transform="matrix(1.00, 0.00, -0.00, -1.00, 290.3, 362.7)">b</text><text xml:space="preserve" font-family="GillSans,Gill Sans" font-size="42.0" fill="#FEFFFF" transform="matrix(1.00, 0.00, -0.00, -1.00, 311.3, 362.7)">i</text><text xml:space="preserve" font-family="GillSans,Gill Sans" font-size="42.0" fill="#FEFFFF" transform="matrix(1.00, 0.00, -0.00, -1.00, 320.6, 362.7)">l</text><text xml:space="preserve" font-family="GillSans,Gill Sans" font-size="42.0" fill="#FEFFFF" transform="matrix(1.00, 0.00, -0.00, -1.00, 329.8, 362.7)">i</text><text xml:space="preserve" font-family="GillSans,Gill Sans" font-size="42.0" fill="#FEFFFF" transform="matrix(1.00, 0.00, -0.00, -1.00, 339.0, 362.7)">t</text><text xml:space="preserve" font-family="GillSans,Gill Sans" font-size="42.0" fill="#FEFFFF" transform="matrix(1.00, 0.00, -0.00, -1.00, 353.0, 362.7)">y</text><text xml:space="preserve" font-family="GillSans,Gill Sans" font-size="42.0" fill="#FEFFFF" transform="matrix(1.00, 0.00, -0.00, -1.00, 371.4, 362.7)">I</text><text xml:space="preserve" font-family="GillSans,Gill Sans" font-size="42.0" fill="#FEFFFF" transform="matrix(1.00, 0.00, -0.00, -1.00, 381.9, 362.7)">d</text><text xml:space="preserve" font-family="GillSans,Gill Sans" font-size="42.0" fill="#FEFFFF" transform="matrix(1.00, 0.00, -0.00, -1.00, 403.3, 362.7)">e</text><text xml:space="preserve" font-family="GillSans,Gill Sans" font-size="42.0" fill="#FEFFFF" transform="matrix(1.00, 0.00, -0.00, -1.00, 423.4, 362.7)">n</text><text xml:space="preserve" font-family="GillSans,Gill Sans" font-size="42.0" fill="#FEFFFF" transform="matrix(1.00, 0.00, -0.00, -1.00, 444.4, 362.7)">t</text><text xml:space="preserve" font-family="GillSans,Gill Sans" font-size="42.0" fill="#FEFFFF" transform="matrix(1.00, 0.00, -0.00, -1.00, 458.4, 362.7)">i</text><text xml:space="preserve" font-family="GillSans,Gill Sans" font-size="42.0" fill="#FEFFFF" transform="matrix(1.00, 0.00, -0.00, -1.00, 467.6, 362.7)">ﬁ</text><text xml:space="preserve" font-family="GillSans,Gill Sans" font-size="42.0" fill="#FEFFFF" transform="matrix(1.00, 0.00, -0.00, -1.00, 488.6, 362.7)">e</text><text xml:space="preserve" font-family="GillSans,Gill Sans" font-size="42.0" fill="#FEFFFF" transform="matrix(1.00, 0.00, -0.00, -1.00, 508.7, 362.7)">r</text><text xml:space="preserve" font-family="GillSans,Gill Sans" font-size="42.0" fill="#FEFFFF" transform="matrix(1.00, 0.00, -0.00, -1.00, 521.1, 362.7)">.</text><text xml:space="preserve" font-family="GillSans,Gill Sans" font-size="42.0" fill="#FEFFFF" transform="matrix(1.00, 0.00, -0.00, -1.00, 530.4, 362.7)">	</text><text xml:space="preserve" font-family="GillSans,Gill Sans" font-size="42.0" fill="#FEFFFF" transform="matrix(1.00, 0.00, -0.00, -1.00, 558.4, 362.7)">
</text><text xml:space="preserve" font-family="GillSans,Gill Sans" font-size="42.0" fill="#FEFFFF" transform="matrix(1.00, 0.00, -0.00, -1.00, 558.4, 362.7)"></text><text xml:space="preserve" font-family="GillSans,Gill Sans" font-size="71.8" fill="#FEFFFF" transform="matrix(1.00, 0.00, -0.00, -1.00, 129.0, 279.6)">•</text><text xml:space="preserve" font-family="GillSans,Gill Sans" font-size="42.0" fill="#FEFFFF" transform="matrix(1.00, 0.00, -0.00, -1.00, 174.0, 289.7)">e</text><text xml:space="preserve" font-family="GillSans,Gill Sans" font-size="42.0" fill="#FEFFFF" transform="matrix(1.00, 0.00, -0.00, -1.00, 195.0, 289.7)">.</text><text xml:space="preserve" font-family="GillSans,Gill Sans" font-size="42.0" fill="#FEFFFF" transform="matrix(1.00, 0.00, -0.00, -1.00, 204.2, 289.7)">g</text><text xml:space="preserve" font-family="GillSans,Gill Sans" font-size="42.0" fill="#FEFFFF" transform="matrix(1.00, 0.00, -0.00, -1.00, 222.1, 289.7)">.</text><text xml:space="preserve" font-family="GillSans,Gill Sans" font-size="42.0" fill="#FEFFFF" transform="matrix(1.00, 0.00, -0.00, -1.00, 227.1, 289.7)"> </text><text xml:space="preserve" font-family="Menlo-Regular,Menlo" font-size="36.0" fill="#000000" transform="matrix(1.00, 0.00, -0.00, -1.00, 238.8, 289.7)">[</text><text xml:space="preserve" font-family="Menlo-Regular,Menlo" font-size="36.0" fill="#000000" transform="matrix(1.00, 0.00, -0.00, -1.00, 260.4, 289.7)">l</text><text xml:space="preserve" font-family="Menlo-Regular,Menlo" font-size="36.0" fill="#000000" transform="matrix(1.00, 0.00, -0.00, -1.00, 282.1, 289.7)">a</text><text xml:space="preserve" font-family="Menlo-Regular,Menlo" font-size="36.0" fill="#000000" transform="matrix(1.00, 0.00, -0.00, -1.00, 303.8, 289.7)">n</text><text xml:space="preserve" font-family="Menlo-Regular,Menlo" font-size="36.0" fill="#000000" transform="matrix(1.00, 0.00, -0.00, -1.00, 325.5, 289.7)">g</text><text xml:space="preserve" font-family="Menlo-Regular,Menlo" font-size="36.0" fill="#000000" transform="matrix(1.00, 0.00, -0.00, -1.00, 347.2, 289.7)">u</text><text xml:space="preserve" font-family="Menlo-Regular,Menlo" font-size="36.0" fill="#000000" transform="matrix(1.00, 0.00, -0.00, -1.00, 368.8, 289.7)">a</text><text xml:space="preserve" font-family="Menlo-Regular,Menlo" font-size="36.0" fill="#000000" transform="matrix(1.00, 0.00, -0.00, -1.00, 390.5, 289.7)">g</text><text xml:space="preserve" font-family="Menlo-Regular,Menlo" font-size="36.0" fill="#000000" transform="matrix(1.00, 0.00, -0.00, -1.00, 412.2, 289.7)">e</text><text xml:space="preserve" font-family="Menlo-Regular,Menlo" font-size="36.0" fill="#000000" transform="matrix(1.00, 0.00, -0.00, -1.00, 433.9, 289.7)">B</text><text xml:space="preserve" font-family="Menlo-Regular,Menlo" font-size="36.0" fill="#000000" transform="matrix(1.00, 0.00, -0.00, -1.00, 455.5, 289.7)">u</text><text xml:space="preserve" font-family="Menlo-Regular,Menlo" font-size="36.0" fill="#000000" transform="matrix(1.00, 0.00, -0.00, -1.00, 477.2, 289.7)">t</text><text xml:space="preserve" font-family="Menlo-Regular,Menlo" font-size="36.0" fill="#000000" transform="matrix(1.00, 0.00, -0.00, -1.00, 498.9, 289.7)">t</text><text xml:space="preserve" font-family="Menlo-Regular,Menlo" font-size="36.0" fill="#000000" transform="matrix(1.00, 0.00, -0.00, -1.00, 520.6, 289.7)">o</text><text xml:space="preserve" font-family="Menlo-Regular,Menlo" font-size="36.0" fill="#000000" transform="matrix(1.00, 0.00, -0.00, -1.00, 542.2, 289.7)">n</text><text xml:space="preserve" font-family="Menlo-Regular,Menlo" font-size="36.0" fill="#000000" transform="matrix(1.00, 0.00, -0.00, -1.00, 563.9, 289.7)"> </text><text xml:space="preserve" font-family="Menlo-Regular,Menlo" font-size="36.0" fill="#3D1D81" transform="matrix(1.00, 0.00, -0.00, -1.00, 174.0, 247.5)">s</text><text xml:space="preserve" font-family="Menlo-Regular,Menlo" font-size="36.0" fill="#3D1D81" transform="matrix(1.00, 0.00, -0.00, -1.00, 195.7, 247.5)">e</text><text xml:space="preserve" font-family="Menlo-Regular,Menlo" font-size="36.0" fill="#3D1D81" transform="matrix(1.00, 0.00, -0.00, -1.00, 217.4, 247.5)">t</text><text xml:space="preserve" font-family="Menlo-Regular,Menlo" font-size="36.0" fill="#3D1D81" transform="matrix(1.00, 0.00, -0.00, -1.00, 239.0, 247.5)">A</text><text xml:space="preserve" font-family="Menlo-Regular,Menlo" font-size="36.0" fill="#3D1D81" transform="matrix(1.00, 0.00, -0.00, -1.00, 260.7, 247.5)">c</text><text xml:space="preserve" font-family="Menlo-Regular,Menlo" font-size="36.0" fill="#3D1D81" transform="matrix(1.00, 0.00, -0.00, -1.00, 282.4, 247.5)">c</text><text xml:space="preserve" font-family="Menlo-Regular,Menlo" font-size="36.0" fill="#3D1D81" transform="matrix(1.00, 0.00, -0.00, -1.00, 304.1, 247.5)">e</text><text xml:space="preserve" font-family="Menlo-Regular,Menlo" font-size="36.0" fill="#3D1D81" transform="matrix(1.00, 0.00, -0.00, -1.00, 325.7, 247.5)">s</text><text xml:space="preserve" font-family="Menlo-Regular,Menlo" font-size="36.0" fill="#3D1D81" transform="matrix(1.00, 0.00, -0.00, -1.00, 347.4, 247.5)">s</text><text xml:space="preserve" font-family="Menlo-Regular,Menlo" font-size="36.0" fill="#3D1D81" transform="matrix(1.00, 0.00, -0.00, -1.00, 369.1, 247.5)">i</text><text xml:space="preserve" font-family="Menlo-Regular,Menlo" font-size="36.0" fill="#3D1D81" transform="matrix(1.00, 0.00, -0.00, -1.00, 390.8, 247.5)">b</text><text xml:space="preserve" font-family="Menlo-Regular,Menlo" font-size="36.0" fill="#3D1D81" transform="matrix(1.00, 0.00, -0.00, -1.00, 412.5, 247.5)">i</text><text xml:space="preserve" font-family="Menlo-Regular,Menlo" font-size="36.0" fill="#3D1D81" transform="matrix(1.00, 0.00, -0.00, -1.00, 434.1, 247.5)">l</text><text xml:space="preserve" font-family="Menlo-Regular,Menlo" font-size="36.0" fill="#3D1D81" transform="matrix(1.00, 0.00, -0.00, -1.00, 455.8, 247.5)">i</text><text xml:space="preserve" font-family="Menlo-Regular,Menlo" font-size="36.0" fill="#3D1D81" transform="matrix(1.00, 0.00, -0.00, -1.00, 477.5, 247.5)">t</text><text xml:space="preserve" font-family="Menlo-Regular,Menlo" font-size="36.0" fill="#3D1D81" transform="matrix(1.00, 0.00, -0.00, -1.00, 499.2, 247.5)">y</text><text xml:space="preserve" font-family="Menlo-Regular,Menlo" font-size="36.0" fill="#3D1D81" transform="matrix(1.00, 0.00, -0.00, -1.00, 520.8, 247.5)">I</text><text xml:space="preserve" font-family="Menlo-Regular,Menlo" font-size="36.0" fill="#3D1D81" transform="matrix(1.00, 0.00, -0.00, -1.00, 542.5, 247.5)">d</text><text xml:space="preserve" font-family="Menlo-Regular,Menlo" font-size="36.0" fill="#3D1D81" transform="matrix(1.00, 0.00, -0.00, -1.00, 564.2, 247.5)">e</text><text xml:space="preserve" font-family="Menlo-Regular,Menlo" font-size="36.0" fill="#3D1D81" transform="matrix(1.00, 0.00, -0.00, -1.00, 585.9, 247.5)">n</text><text xml:space="preserve" font-family="Menlo-Regular,Menlo" font-size="36.0" fill="#3D1D81" transform="matrix(1.00, 0.00, -0.00, -1.00, 607.5, 247.5)">t</text><text xml:space="preserve" font-family="Menlo-Regular,Menlo" font-size="36.0" fill="#3D1D81" transform="matrix(1.00, 0.00, -0.00, -1.00, 629.2, 247.5)">i</text><text xml:space="preserve" font-family="Menlo-Regular,Menlo" font-size="36.0" fill="#3D1D81" transform="matrix(1.00, 0.00, -0.00, -1.00, 650.9, 247.5)">f</text><text xml:space="preserve" font-family="Menlo-Regular,Menlo" font-size="36.0" fill="#3D1D81" transform="matrix(1.00, 0.00, -0.00, -1.00, 672.6, 247.5)">i</text><text xml:space="preserve" font-family="Menlo-Regular,Menlo" font-size="36.0" fill="#3D1D81" transform="matrix(1.00, 0.00, -0.00, -1.00, 694.3, 247.5)">e</text><text xml:space="preserve" font-family="Menlo-Regular,Menlo" font-size="36.0" fill="#3D1D81" transform="matrix(1.00, 0.00, -0.00, -1.00, 715.9, 247.5)">r</text><text xml:space="preserve" font-family="Menlo-Regular,Menlo" font-size="36.0" fill="#000000" transform="matrix(1.00, 0.00, -0.00, -1.00, 737.5, 247.5)">:</text><text xml:space="preserve" font-family="Menlo-Regular,Menlo" font-size="36.0" fill="#D12E1B" transform="matrix(1.00, 0.00, -0.00, -1.00, 759.2, 247.5)">@</text><text xml:space="preserve" font-family="Menlo-Regular,Menlo" font-size="36.0" fill="#D12E1B" transform="matrix(1.00, 0.00, -0.00, -1.00, 780.9, 247.5)">"</text><text xml:space="preserve" font-family="Menlo-Regular,Menlo" font-size="36.0" fill="#D12E1B" transform="matrix(1.00, 0.00, -0.00, -1.00, 802.5, 247.5)">c</text><text xml:space="preserve" font-family="Menlo-Regular,Menlo" font-size="36.0" fill="#D12E1B" transform="matrix(1.00, 0.00, -0.00, -1.00, 824.2, 247.5)">h</text><text xml:space="preserve" font-family="Menlo-Regular,Menlo" font-size="36.0" fill="#D12E1B" transform="matrix(1.00, 0.00, -0.00, -1.00, 845.9, 247.5)">a</text><text xml:space="preserve" font-family="Menlo-Regular,Menlo" font-size="36.0" fill="#D12E1B" transform="matrix(1.00, 0.00, -0.00, -1.00, 867.6, 247.5)">n</text><text xml:space="preserve" font-family="Menlo-Regular,Menlo" font-size="36.0" fill="#D12E1B" transform="matrix(1.00, 0.00, -0.00, -1.00, 889.3, 247.5)">g</text><text xml:space="preserve" font-family="Menlo-Regular,Menlo" font-size="36.0" fill="#D12E1B" transform="matrix(1.00, 0.00, -0.00, -1.00, 174.0, 206.5)">e</text><text xml:space="preserve" font-family="Menlo-Regular,Menlo" font-size="36.0" fill="#D12E1B" transform="matrix(1.00, 0.00, -0.00, -1.00, 195.7, 206.5)"> </text><text xml:space="preserve" font-family="Menlo-Regular,Menlo" font-size="36.0" fill="#D12E1B" transform="matrix(1.00, 0.00, -0.00, -1.00, 217.4, 206.5)">l</text><text xml:space="preserve" font-family="Menlo-Regular,Menlo" font-size="36.0" fill="#D12E1B" transform="matrix(1.00, 0.00, -0.00, -1.00, 239.0, 206.5)">a</text><text xml:space="preserve" font-family="Menlo-Regular,Menlo" font-size="36.0" fill="#D12E1B" transform="matrix(1.00, 0.00, -0.00, -1.00, 260.7, 206.5)">n</text><text xml:space="preserve" font-family="Menlo-Regular,Menlo" font-size="36.0" fill="#D12E1B" transform="matrix(1.00, 0.00, -0.00, -1.00, 282.4, 206.5)">g</text><text xml:space="preserve" font-family="Menlo-Regular,Menlo" font-size="36.0" fill="#D12E1B" transform="matrix(1.00, 0.00, -0.00, -1.00, 304.1, 206.5)">u</text><text xml:space="preserve" font-family="Menlo-Regular,Menlo" font-size="36.0" fill="#D12E1B" transform="matrix(1.00, 0.00, -0.00, -1.00, 325.7, 206.5)">a</text><text xml:space="preserve" font-family="Menlo-Regular,Menlo" font-size="36.0" fill="#D12E1B" transform="matrix(1.00, 0.00, -0.00, -1.00, 347.4, 206.5)">g</text><text xml:space="preserve" font-family="Menlo-Regular,Menlo" font-size="36.0" fill="#D12E1B" transform="matrix(1.00, 0.00, -0.00, -1.00, 369.1, 206.5)">e</text><text xml:space="preserve" font-family="Menlo-Regular,Menlo" font-size="36.0" fill="#D12E1B" transform="matrix(1.00, 0.00, -0.00, -1.00, 390.8, 206.5)">"</text><text xml:space="preserve" font-family="Menlo-Regular,Menlo" font-size="36.0" fill="#000000" transform="matrix(1.00, 0.00, -0.00, -1.00, 412.4, 206.5)">]</text><text xml:space="preserve" font-family="Menlo-Regular,Menlo" font-size="36.0" fill="#000000" transform="matrix(1.00, 0.00, -0.00, -1.00, 434.1, 206.5)">;</text></g></svg>