<?xml version="1.0" encoding="UTF-8" standalone="no"?><svg xmlns="http://www.w3.org/2000/svg" xmlns:xlink="http://www.w3.org/1999/xlink" clip-rule="evenodd" stroke-miterlimit="10" viewBox="0 0 529 244"><desc>SVG generated by Keynote</desc><defs></defs><g transform="matrix(1.00, 0.00, -0.00, -1.00, 0.0, 244.0)"><text xml:space="preserve" font-family="GillSans,Gill Sans" font-size="54.7" fill="#FEFFFF" transform="matrix(1.00, 0.00, -0.00, -1.00, 0.0, 193.1)">•</text><text xml:space="preserve" font-family="GillSans,Gill Sans" font-size="32.0" fill="#FEFFFF" transform="matrix(1.00, 0.00, -0.00, -1.00, 45.0, 201.4)">P</text><text xml:space="preserve" font-family="GillSans,Gill Sans" font-size="32.0" fill="#FEFFFF" transform="matrix(1.00, 0.00, -0.00, -1.00, 61.3, 201.4)">a</text><text xml:space="preserve" font-family="GillSans,Gill Sans" font-size="32.0" fill="#FEFFFF" transform="matrix(1.00, 0.00, -0.00, -1.00, 75.0, 201.4)">g</text><text xml:space="preserve" font-family="GillSans,Gill Sans" font-size="32.0" fill="#FEFFFF" transform="matrix(1.00, 0.00, -0.00, -1.00, 88.6, 201.4)">e</text><text xml:space="preserve" font-family="GillSans,Gill Sans" font-size="32.0" fill="#FEFFFF" transform="matrix(1.00, 0.00, -0.00, -1.00, 103.9, 201.4)">-</text><text xml:space="preserve" font-family="GillSans,Gill Sans" font-size="32.0" fill="#FEFFFF" transform="matrix(1.00, 0.00, -0.00, -1.00, 114.3, 201.4)">O</text><text xml:space="preserve" font-family="GillSans,Gill Sans" font-size="32.0" fill="#FEFFFF" transform="matrix(1.00, 0.00, -0.00, -1.00, 140.6, 201.4)">b</text><text xml:space="preserve" font-family="GillSans,Gill Sans" font-size="32.0" fill="#FEFFFF" transform="matrix(1.00, 0.00, -0.00, -1.00, 156.6, 201.4)">j</text><text xml:space="preserve" font-family="GillSans,Gill Sans" font-size="32.0" fill="#FEFFFF" transform="matrix(1.00, 0.00, -0.00, -1.00, 163.7, 201.4)">e</text><text xml:space="preserve" font-family="GillSans,Gill Sans" font-size="32.0" fill="#FEFFFF" transform="matrix(1.00, 0.00, -0.00, -1.00, 179.0, 201.4)">c</text><text xml:space="preserve" font-family="GillSans,Gill Sans" font-size="32.0" fill="#FEFFFF" transform="matrix(1.00, 0.00, -0.00, -1.00, 193.0, 201.4)">t</text><text xml:space="preserve" font-family="GillSans,Gill Sans" font-size="32.0" fill="#FEFFFF" transform="matrix(1.00, 0.00, -0.00, -1.00, 203.7, 201.4)"> </text><text xml:space="preserve" font-family="GillSans,Gill Sans" font-size="32.0" fill="#FEFFFF" transform="matrix(1.00, 0.00, -0.00, -1.00, 212.5, 201.4)">P</text><text xml:space="preserve" font-family="GillSans,Gill Sans" font-size="32.0" fill="#FEFFFF" transform="matrix(1.00, 0.00, -0.00, -1.00, 228.8, 201.4)">a</text><text xml:space="preserve" font-family="GillSans,Gill Sans" font-size="32.0" fill="#FEFFFF" transform="matrix(1.00, 0.00, -0.00, -1.00, 242.5, 201.4)">t</text><text xml:space="preserve" font-family="GillSans,Gill Sans" font-size="32.0" fill="#FEFFFF" transform="matrix(1.00, 0.00, -0.00, -1.00, 253.2, 201.4)">t</text><text xml:space="preserve" font-family="GillSans,Gill Sans" font-size="32.0" fill="#FEFFFF" transform="matrix(1.00, 0.00, -0.00, -1.00, 263.8, 201.4)">e</text><text xml:space="preserve" font-family="GillSans,Gill Sans" font-size="32.0" fill="#FEFFFF" transform="matrix(1.00, 0.00, -0.00, -1.00, 279.1, 201.4)">r</text><text xml:space="preserve" font-family="GillSans,Gill Sans" font-size="32.0" fill="#FEFFFF" transform="matrix(1.00, 0.00, -0.00, -1.00, 291.8, 201.4)">n</text><text xml:space="preserve" font-family="GillSans,Gill Sans" font-size="32.0" fill="#FEFFFF" transform="matrix(1.00, 0.00, -0.00, -1.00, 307.8, 201.4)"> </text><text xml:space="preserve" font-family="GillSans,Gill Sans" font-size="32.0" fill="#FEFFFF" transform="matrix(1.00, 0.00, -0.00, -1.00, 316.7, 201.4)">(</text><text xml:space="preserve" font-family="GillSans,Gill Sans" font-size="32.0" fill="#FEFFFF" transform="matrix(1.00, 0.00, -0.00, -1.00, 327.0, 201.4)">P</text><text xml:space="preserve" font-family="GillSans,Gill Sans" font-size="32.0" fill="#FEFFFF" transform="matrix(1.00, 0.00, -0.00, -1.00, 343.3, 201.4)">O</text><text xml:space="preserve" font-family="GillSans,Gill Sans" font-size="32.0" fill="#FEFFFF" transform="matrix(1.00, 0.00, -0.00, -1.00, 369.7, 201.4)">P</text><text xml:space="preserve" font-family="GillSans,Gill Sans" font-size="32.0" fill="#FEFFFF" transform="matrix(1.00, 0.00, -0.00, -1.00, 386.0, 201.4)">)</text><text xml:space="preserve" font-family="GillSans,Gill Sans" font-size="32.0" fill="#FEFFFF" transform="matrix(1.00, 0.00, -0.00, -1.00, 396.4, 201.4)">	</text><text xml:space="preserve" font-family="GillSans,Gill Sans" font-size="32.0" fill="#FEFFFF" transform="matrix(1.00, 0.00, -0.00, -1.00, 424.4, 201.4)">
</text><text xml:space="preserve" font-family="GillSans,Gill Sans" font-size="32.0" fill="#FEFFFF" transform="matrix(1.00, 0.00, -0.00, -1.00, 424.4, 201.4)"></text><text xml:space="preserve" font-family="GillSans,Gill Sans" font-size="54.7" fill="#FEFFFF" transform="matrix(1.00, 0.00, -0.00, -1.00, 0.0, 133.1)">•</text><text xml:space="preserve" font-family="GillSans,Gill Sans" font-size="32.0" fill="#FEFFFF" transform="matrix(1.00, 0.00, -0.00, -1.00, 45.0, 141.4)">P</text><text xml:space="preserve" font-family="GillSans,Gill Sans" font-size="32.0" fill="#FEFFFF" transform="matrix(1.00, 0.00, -0.00, -1.00, 61.3, 141.4)">a</text><text xml:space="preserve" font-family="GillSans,Gill Sans" font-size="32.0" fill="#FEFFFF" transform="matrix(1.00, 0.00, -0.00, -1.00, 75.0, 141.4)">g</text><text xml:space="preserve" font-family="GillSans,Gill Sans" font-size="32.0" fill="#FEFFFF" transform="matrix(1.00, 0.00, -0.00, -1.00, 88.6, 141.4)">e</text><text xml:space="preserve" font-family="GillSans,Gill Sans" font-size="32.0" fill="#FEFFFF" transform="matrix(1.00, 0.00, -0.00, -1.00, 103.9, 141.4)"> </text><text xml:space="preserve" font-family="GillSans,Gill Sans" font-size="32.0" fill="#FEFFFF" transform="matrix(1.00, 0.00, -0.00, -1.00, 112.8, 141.4)">O</text><text xml:space="preserve" font-family="GillSans,Gill Sans" font-size="32.0" fill="#FEFFFF" transform="matrix(1.00, 0.00, -0.00, -1.00, 139.2, 141.4)">b</text><text xml:space="preserve" font-family="GillSans,Gill Sans" font-size="32.0" fill="#FEFFFF" transform="matrix(1.00, 0.00, -0.00, -1.00, 155.2, 141.4)">j</text><text xml:space="preserve" font-family="GillSans,Gill Sans" font-size="32.0" fill="#FEFFFF" transform="matrix(1.00, 0.00, -0.00, -1.00, 162.2, 141.4)">e</text><text xml:space="preserve" font-family="GillSans,Gill Sans" font-size="32.0" fill="#FEFFFF" transform="matrix(1.00, 0.00, -0.00, -1.00, 177.5, 141.4)">c</text><text xml:space="preserve" font-family="GillSans,Gill Sans" font-size="32.0" fill="#FEFFFF" transform="matrix(1.00, 0.00, -0.00, -1.00, 191.5, 141.4)">t</text><text xml:space="preserve" font-family="GillSans,Gill Sans" font-size="32.0" fill="#FEFFFF" transform="matrix(1.00, 0.00, -0.00, -1.00, 202.2, 141.4)">s</text><text xml:space="preserve" font-family="GillSans,Gill Sans" font-size="32.0" fill="#FEFFFF" transform="matrix(1.00, 0.00, -0.00, -1.00, 214.5, 141.4)">:</text><text xml:space="preserve" font-family="GillSans,Gill Sans" font-size="32.0" fill="#FEFFFF" transform="matrix(1.00, 0.00, -0.00, -1.00, 218.3, 141.4)"> </text><text xml:space="preserve" font-family="GillSans,Gill Sans" font-size="32.0" fill="#FEFFFF" transform="matrix(1.00, 0.00, -0.00, -1.00, 227.2, 141.4)">a</text><text xml:space="preserve" font-family="GillSans,Gill Sans" font-size="32.0" fill="#FEFFFF" transform="matrix(1.00, 0.00, -0.00, -1.00, 240.8, 141.4)">b</text><text xml:space="preserve" font-family="GillSans,Gill Sans" font-size="32.0" fill="#FEFFFF" transform="matrix(1.00, 0.00, -0.00, -1.00, 256.8, 141.4)">s</text><text xml:space="preserve" font-family="GillSans,Gill Sans" font-size="32.0" fill="#FEFFFF" transform="matrix(1.00, 0.00, -0.00, -1.00, 269.2, 141.4)">t</text><text xml:space="preserve" font-family="GillSans,Gill Sans" font-size="32.0" fill="#FEFFFF" transform="matrix(1.00, 0.00, -0.00, -1.00, 279.8, 141.4)">r</text><text xml:space="preserve" font-family="GillSans,Gill Sans" font-size="32.0" fill="#FEFFFF" transform="matrix(1.00, 0.00, -0.00, -1.00, 292.5, 141.4)">a</text><text xml:space="preserve" font-family="GillSans,Gill Sans" font-size="32.0" fill="#FEFFFF" transform="matrix(1.00, 0.00, -0.00, -1.00, 306.1, 141.4)">c</text><text xml:space="preserve" font-family="GillSans,Gill Sans" font-size="32.0" fill="#FEFFFF" transform="matrix(1.00, 0.00, -0.00, -1.00, 320.1, 141.4)">t</text><text xml:space="preserve" font-family="GillSans,Gill Sans" font-size="32.0" fill="#FEFFFF" transform="matrix(1.00, 0.00, -0.00, -1.00, 330.8, 141.4)"> </text><text xml:space="preserve" font-family="GillSans,Gill Sans" font-size="32.0" fill="#FEFFFF" transform="matrix(1.00, 0.00, -0.00, -1.00, 339.7, 141.4)">a</text><text xml:space="preserve" font-family="GillSans,Gill Sans" font-size="32.0" fill="#FEFFFF" transform="matrix(1.00, 0.00, -0.00, -1.00, 353.3, 141.4)"> </text><text xml:space="preserve" font-family="GillSans,Gill Sans" font-size="32.0" fill="#FEFFFF" transform="matrix(1.00, 0.00, -0.00, -1.00, 362.2, 141.4)">s</text><text xml:space="preserve" font-family="GillSans,Gill Sans" font-size="32.0" fill="#FEFFFF" transform="matrix(1.00, 0.00, -0.00, -1.00, 374.5, 141.4)">i</text><text xml:space="preserve" font-family="GillSans,Gill Sans" font-size="32.0" fill="#FEFFFF" transform="matrix(1.00, 0.00, -0.00, -1.00, 381.6, 141.4)">n</text><text xml:space="preserve" font-family="GillSans,Gill Sans" font-size="32.0" fill="#FEFFFF" transform="matrix(1.00, 0.00, -0.00, -1.00, 397.6, 141.4)">g</text><text xml:space="preserve" font-family="GillSans,Gill Sans" font-size="32.0" fill="#FEFFFF" transform="matrix(1.00, 0.00, -0.00, -1.00, 411.2, 141.4)">l</text><text xml:space="preserve" font-family="GillSans,Gill Sans" font-size="32.0" fill="#FEFFFF" transform="matrix(1.00, 0.00, -0.00, -1.00, 418.2, 141.4)">e</text><text xml:space="preserve" font-family="GillSans,Gill Sans" font-size="32.0" fill="#FEFFFF" transform="matrix(1.00, 0.00, -0.00, -1.00, 433.6, 141.4)"> </text><text xml:space="preserve" font-family="GillSans,Gill Sans" font-size="32.0" fill="#FEFFFF" transform="matrix(1.00, 0.00, -0.00, -1.00, 442.4, 141.4)">s</text><text xml:space="preserve" font-family="GillSans,Gill Sans" font-size="32.0" fill="#FEFFFF" transform="matrix(1.00, 0.00, -0.00, -1.00, 454.7, 141.4)">c</text><text xml:space="preserve" font-family="GillSans,Gill Sans" font-size="32.0" fill="#FEFFFF" transform="matrix(1.00, 0.00, -0.00, -1.00, 468.8, 141.4)">r</text><text xml:space="preserve" font-family="GillSans,Gill Sans" font-size="32.0" fill="#FEFFFF" transform="matrix(1.00, 0.00, -0.00, -1.00, 480.8, 141.4)">e</text><text xml:space="preserve" font-family="GillSans,Gill Sans" font-size="32.0" fill="#FEFFFF" transform="matrix(1.00, 0.00, -0.00, -1.00, 496.1, 141.4)">e</text><text xml:space="preserve" font-family="GillSans,Gill Sans" font-size="32.0" fill="#FEFFFF" transform="matrix(1.00, 0.00, -0.00, -1.00, 511.4, 141.4)">n</text><text xml:space="preserve" font-family="GillSans,Gill Sans" font-size="32.0" fill="#FEFFFF" transform="matrix(1.00, 0.00, -0.00, -1.00, 527.4, 141.4)">	</text><text xml:space="preserve" font-family="GillSans,Gill Sans" font-size="32.0" fill="#FEFFFF" transform="matrix(1.00, 0.00, -0.00, -1.00, 555.4, 141.4)">
</text><text xml:space="preserve" font-family="GillSans,Gill Sans" font-size="32.0" fill="#FEFFFF" transform="matrix(1.00, 0.00, -0.00, -1.00, 555.4, 141.4)"></text><text xml:space="preserve" font-family="GillSans,Gill Sans" font-size="54.7" fill="#FEFFFF" transform="matrix(1.00, 0.00, -0.00, -1.00, 0.0, 73.1)">•</text><text xml:space="preserve" font-family="GillSans,Gill Sans" font-size="32.0" fill="#FEFFFF" transform="matrix(1.00, 0.00, -0.00, -1.00, 45.0, 81.4)">C</text><text xml:space="preserve" font-family="GillSans,Gill Sans" font-size="32.0" fill="#FEFFFF" transform="matrix(1.00, 0.00, -0.00, -1.00, 67.7, 81.4)">r</text><text xml:space="preserve" font-family="GillSans,Gill Sans" font-size="32.0" fill="#FEFFFF" transform="matrix(1.00, 0.00, -0.00, -1.00, 79.5, 81.4)">o</text><text xml:space="preserve" font-family="GillSans,Gill Sans" font-size="32.0" fill="#FEFFFF" transform="matrix(1.00, 0.00, -0.00, -1.00, 97.2, 81.4)">s</text><text xml:space="preserve" font-family="GillSans,Gill Sans" font-size="32.0" fill="#FEFFFF" transform="matrix(1.00, 0.00, -0.00, -1.00, 109.5, 81.4)">s</text><text xml:space="preserve" font-family="GillSans,Gill Sans" font-size="32.0" fill="#FEFFFF" transform="matrix(1.00, 0.00, -0.00, -1.00, 121.8, 81.4)">-</text><text xml:space="preserve" font-family="GillSans,Gill Sans" font-size="32.0" fill="#FEFFFF" transform="matrix(1.00, 0.00, -0.00, -1.00, 132.1, 81.4)">p</text><text xml:space="preserve" font-family="GillSans,Gill Sans" font-size="32.0" fill="#FEFFFF" transform="matrix(1.00, 0.00, -0.00, -1.00, 148.1, 81.4)">l</text><text xml:space="preserve" font-family="GillSans,Gill Sans" font-size="32.0" fill="#FEFFFF" transform="matrix(1.00, 0.00, -0.00, -1.00, 155.2, 81.4)">a</text><text xml:space="preserve" font-family="GillSans,Gill Sans" font-size="32.0" fill="#FEFFFF" transform="matrix(1.00, 0.00, -0.00, -1.00, 168.8, 81.4)">t</text><text xml:space="preserve" font-family="GillSans,Gill Sans" font-size="32.0" fill="#FEFFFF" transform="matrix(1.00, 0.00, -0.00, -1.00, 179.5, 81.4)">f</text><text xml:space="preserve" font-family="GillSans,Gill Sans" font-size="32.0" fill="#FEFFFF" transform="matrix(1.00, 0.00, -0.00, -1.00, 187.2, 81.4)">o</text><text xml:space="preserve" font-family="GillSans,Gill Sans" font-size="32.0" fill="#FEFFFF" transform="matrix(1.00, 0.00, -0.00, -1.00, 204.8, 81.4)">r</text><text xml:space="preserve" font-family="GillSans,Gill Sans" font-size="32.0" fill="#FEFFFF" transform="matrix(1.00, 0.00, -0.00, -1.00, 217.5, 81.4)">m</text><text xml:space="preserve" font-family="GillSans,Gill Sans" font-size="32.0" fill="#FEFFFF" transform="matrix(1.00, 0.00, -0.00, -1.00, 242.2, 81.4)"> </text><text xml:space="preserve" font-family="GillSans,Gill Sans" font-size="32.0" fill="#FEFFFF" transform="matrix(1.00, 0.00, -0.00, -1.00, 251.0, 81.4)">C</text><text xml:space="preserve" font-family="GillSans,Gill Sans" font-size="32.0" fill="#FEFFFF" transform="matrix(1.00, 0.00, -0.00, -1.00, 273.7, 81.4)">o</text><text xml:space="preserve" font-family="GillSans,Gill Sans" font-size="32.0" fill="#FEFFFF" transform="matrix(1.00, 0.00, -0.00, -1.00, 291.3, 81.4)">r</text><text xml:space="preserve" font-family="GillSans,Gill Sans" font-size="32.0" fill="#FEFFFF" transform="matrix(1.00, 0.00, -0.00, -1.00, 303.4, 81.4)">e</text><text xml:space="preserve" font-family="GillSans,Gill Sans" font-size="32.0" fill="#FEFFFF" transform="matrix(1.00, 0.00, -0.00, -1.00, 318.7, 81.4)"> </text><text xml:space="preserve" font-family="GillSans,Gill Sans" font-size="32.0" fill="#FEFFFF" transform="matrix(1.00, 0.00, -0.00, -1.00, 327.6, 81.4)">I</text><text xml:space="preserve" font-family="GillSans,Gill Sans" font-size="32.0" fill="#FEFFFF" transform="matrix(1.00, 0.00, -0.00, -1.00, 335.6, 81.4)">d</text><text xml:space="preserve" font-family="GillSans,Gill Sans" font-size="32.0" fill="#FEFFFF" transform="matrix(1.00, 0.00, -0.00, -1.00, 351.9, 81.4)">e</text><text xml:space="preserve" font-family="GillSans,Gill Sans" font-size="32.0" fill="#FEFFFF" transform="matrix(1.00, 0.00, -0.00, -1.00, 367.2, 81.4)">a</text><text xml:space="preserve" font-family="GillSans,Gill Sans" font-size="32.0" fill="#FEFFFF" transform="matrix(1.00, 0.00, -0.00, -1.00, 380.9, 81.4)">	</text><text xml:space="preserve" font-family="GillSans,Gill Sans" font-size="32.0" fill="#FEFFFF" transform="matrix(1.00, 0.00, -0.00, -1.00, 408.9, 81.4)">
</text><text xml:space="preserve" font-family="GillSans,Gill Sans" font-size="32.0" fill="#FEFFFF" transform="matrix(1.00, 0.00, -0.00, -1.00, 408.9, 81.4)"></text><text xml:space="preserve" font-family="GillSans,Gill Sans" font-size="54.7" fill="#FEFFFF" transform="matrix(1.00, 0.00, -0.00, -1.00, 0.0, 13.1)">•</text><text xml:space="preserve" font-family="GillSans,Gill Sans" font-size="32.0" fill="#FEFFFF" transform="matrix(1.00, 0.00, -0.00, -1.00, 45.0, 21.4)">C</text><text xml:space="preserve" font-family="GillSans,Gill Sans" font-size="32.0" fill="#FEFFFF" transform="matrix(1.00, 0.00, -0.00, -1.00, 67.7, 21.4)">r</text><text xml:space="preserve" font-family="GillSans,Gill Sans" font-size="32.0" fill="#FEFFFF" transform="matrix(1.00, 0.00, -0.00, -1.00, 79.5, 21.4)">o</text><text xml:space="preserve" font-family="GillSans,Gill Sans" font-size="32.0" fill="#FEFFFF" transform="matrix(1.00, 0.00, -0.00, -1.00, 97.2, 21.4)">s</text><text xml:space="preserve" font-family="GillSans,Gill Sans" font-size="32.0" fill="#FEFFFF" transform="matrix(1.00, 0.00, -0.00, -1.00, 109.5, 21.4)">s</text><text xml:space="preserve" font-family="GillSans,Gill Sans" font-size="32.0" fill="#FEFFFF" transform="matrix(1.00, 0.00, -0.00, -1.00, 121.8, 21.4)">-</text><text xml:space="preserve" font-family="GillSans,Gill Sans" font-size="32.0" fill="#FEFFFF" transform="matrix(1.00, 0.00, -0.00, -1.00, 132.1, 21.4)">p</text><text xml:space="preserve" font-family="GillSans,Gill Sans" font-size="32.0" fill="#FEFFFF" transform="matrix(1.00, 0.00, -0.00, -1.00, 148.1, 21.4)">l</text><text xml:space="preserve" font-family="GillSans,Gill Sans" font-size="32.0" fill="#FEFFFF" transform="matrix(1.00, 0.00, -0.00, -1.00, 155.2, 21.4)">a</text><text xml:space="preserve" font-family="GillSans,Gill Sans" font-size="32.0" fill="#FEFFFF" transform="matrix(1.00, 0.00, -0.00, -1.00, 168.8, 21.4)">t</text><text xml:space="preserve" font-family="GillSans,Gill Sans" font-size="32.0" fill="#FEFFFF" transform="matrix(1.00, 0.00, -0.00, -1.00, 179.5, 21.4)">f</text><text xml:space="preserve" font-family="GillSans,Gill Sans" font-size="32.0" fill="#FEFFFF" transform="matrix(1.00, 0.00, -0.00, -1.00, 187.2, 21.4)">o</text><text xml:space="preserve" font-family="GillSans,Gill Sans" font-size="32.0" fill="#FEFFFF" transform="matrix(1.00, 0.00, -0.00, -1.00, 204.8, 21.4)">r</text><text xml:space="preserve" font-family="GillSans,Gill Sans" font-size="32.0" fill="#FEFFFF" transform="matrix(1.00, 0.00, -0.00, -1.00, 217.5, 21.4)">m</text><text xml:space="preserve" font-family="GillSans,Gill Sans" font-size="32.0" fill="#FEFFFF" transform="matrix(1.00, 0.00, -0.00, -1.00, 242.2, 21.4)"> </text><text xml:space="preserve" font-family="GillSans,Gill Sans" font-size="32.0" fill="#FEFFFF" transform="matrix(1.00, 0.00, -0.00, -1.00, 251.0, 21.4)">i</text><text xml:space="preserve" font-family="GillSans,Gill Sans" font-size="32.0" fill="#FEFFFF" transform="matrix(1.00, 0.00, -0.00, -1.00, 258.1, 21.4)">n</text><text xml:space="preserve" font-family="GillSans,Gill Sans" font-size="32.0" fill="#FEFFFF" transform="matrix(1.00, 0.00, -0.00, -1.00, 274.1, 21.4)"> </text><text xml:space="preserve" font-family="GillSans,Gill Sans" font-size="32.0" fill="#FEFFFF" transform="matrix(1.00, 0.00, -0.00, -1.00, 282.9, 21.4)">p</text><text xml:space="preserve" font-family="GillSans,Gill Sans" font-size="32.0" fill="#FEFFFF" transform="matrix(1.00, 0.00, -0.00, -1.00, 298.9, 21.4)">r</text><text xml:space="preserve" font-family="GillSans,Gill Sans" font-size="32.0" fill="#FEFFFF" transform="matrix(1.00, 0.00, -0.00, -1.00, 311.6, 21.4)">a</text><text xml:space="preserve" font-family="GillSans,Gill Sans" font-size="32.0" fill="#FEFFFF" transform="matrix(1.00, 0.00, -0.00, -1.00, 325.3, 21.4)">c</text><text xml:space="preserve" font-family="GillSans,Gill Sans" font-size="32.0" fill="#FEFFFF" transform="matrix(1.00, 0.00, -0.00, -1.00, 339.3, 21.4)">t</text><text xml:space="preserve" font-family="GillSans,Gill Sans" font-size="32.0" fill="#FEFFFF" transform="matrix(1.00, 0.00, -0.00, -1.00, 349.9, 21.4)">i</text><text xml:space="preserve" font-family="GillSans,Gill Sans" font-size="32.0" fill="#FEFFFF" transform="matrix(1.00, 0.00, -0.00, -1.00, 357.0, 21.4)">c</text><text xml:space="preserve" font-family="GillSans,Gill Sans" font-size="32.0" fill="#FEFFFF" transform="matrix(1.00, 0.00, -0.00, -1.00, 371.0, 21.4)">e</text></g></svg>