<?xml version="1.0" encoding="UTF-8" standalone="no"?><svg xmlns="http://www.w3.org/2000/svg" xmlns:xlink="http://www.w3.org/1999/xlink" clip-rule="evenodd" stroke-miterlimit="10" viewBox="0 0 456 550"><desc>SVG generated by Keynote</desc><defs><linearGradient id="gradSh1.0" x1="128.5" y1="-308.0" x2="128.5" y2="308.0" gradientUnits="userSpaceOnUse" gradientTransform="matrix(0.89, 0.00, 0.00, -0.89, 337.6, 276.4)"><stop offset="0.00000" stop-color="#909FCA"></stop><stop offset="0.00147" stop-color="#8F9FCA"></stop><stop offset="0.71774" stop-color="#6E7FAE"></stop><stop offset="0.73460" stop-color="#6D7FAE"></stop><stop offset="1.00000" stop-color="#6173A3"></stop></linearGradient><linearGradient id="gradSh2.1" x1="122.0" y1="-308.0" x2="122.0" y2="308.0" gradientUnits="userSpaceOnUse" gradientTransform="matrix(0.89, 0.00, 0.00, -0.89, 115.1, 276.4)"><stop offset="0.00000" stop-color="#CECECE"></stop><stop offset="0.00513" stop-color="#CDCDCD"></stop><stop offset="1.00000" stop-color="#A7A7A7"></stop></linearGradient></defs><g transform="matrix(1.00, 0.00, -0.00, -1.00, 0.0, 550.0)"><g><clipPath id="clip0x6100012b56c0"><path d="M 1.6 1.0 L 453.8 1.0 L 453.8 548.8 L 1.6 548.8 Z M 1.6 1.0 "></path></clipPath><g clip-path="url(#clip0x6100012b56c0)"><image xlink:href="EE63CF3E350C3F5F9E5AF152187D0E38.png" width="177.00" height="80.00" transform="matrix(0.89, 0.00, -0.00, -0.89, 17.4, 247.1)"></image><image xlink:href="../../6F2050DA-ED3D-4E36-9FF9-3E88F1DD9F57/assets/EE63CF3E350C3F5F9E5AF152187D0E38.png" width="177.00" height="80.00" transform="matrix(0.89, 0.00, -0.00, -0.89, 286.8, 247.1)"></image><image xlink:href="../../6F2050DA-ED3D-4E36-9FF9-3E88F1DD9F57/assets/EE63CF3E350C3F5F9E5AF152187D0E38.png" width="177.00" height="80.00" transform="matrix(0.89, 0.00, -0.00, -0.89, 17.4, 331.5)"></image><image xlink:href="../../6F2050DA-ED3D-4E36-9FF9-3E88F1DD9F57/assets/EE63CF3E350C3F5F9E5AF152187D0E38.png" width="177.00" height="80.00" transform="matrix(0.89, 0.00, -0.00, -0.89, 149.8, 446.5)"></image><image xlink:href="../../6F2050DA-ED3D-4E36-9FF9-3E88F1DD9F57/assets/EE63CF3E350C3F5F9E5AF152187D0E38.png" width="177.00" height="80.00" transform="matrix(0.89, 0.00, -0.00, -0.89, 286.8, 331.5)"></image><image xlink:href="36CCFFACC464502DB2B4D0A065BA5AF9.png" width="22.00" height="44.00" transform="matrix(0.89, 0.00, -0.00, -0.89, 85.8, 275.1)"></image><image xlink:href="../../6F2050DA-ED3D-4E36-9FF9-3E88F1DD9F57/assets/36CCFFACC464502DB2B4D0A065BA5AF9.png" width="22.00" height="44.00" transform="matrix(0.89, 0.00, -0.00, -0.89, 355.3, 275.1)"></image><image xlink:href="34F0A7B3DB2680A25048659A15869955.png" width="100.00" height="91.00" transform="matrix(0.89, 0.00, -0.00, -0.89, 117.3, 395.9)"></image><image xlink:href="AEF4C40A67C57AC037555310F9B19019.png" width="103.00" height="91.00" transform="matrix(0.89, 0.00, -0.00, -0.89, 250.9, 396.0)"></image><image xlink:href="3AE0A49347DE146EB0E9712C46BEF32A.png" width="199.00" height="58.00" transform="matrix(0.89, 0.00, -0.00, -0.89, 2.3, 381.7)"></image><image xlink:href="../../6F2050DA-ED3D-4E36-9FF9-3E88F1DD9F57/assets/3AE0A49347DE146EB0E9712C46BEF32A.png" width="199.00" height="58.00" transform="matrix(0.89, 0.00, -0.00, -0.89, 276.7, 381.7)"></image><image xlink:href="../../6F2050DA-ED3D-4E36-9FF9-3E88F1DD9F57/assets/EE63CF3E350C3F5F9E5AF152187D0E38.png" width="177.00" height="80.00" transform="matrix(0.89, 0.00, -0.00, -0.89, 149.8, 533.3)"></image><image xlink:href="0E963990835522FF1264EB80F25E5B4E.png" width="189.00" height="80.00" transform="matrix(0.89, 0.00, -0.00, -0.89, 143.9, 152.3)"></image><image xlink:href="../../6F2050DA-ED3D-4E36-9FF9-3E88F1DD9F57/assets/36CCFFACC464502DB2B4D0A065BA5AF9.png" width="22.00" height="44.00" transform="matrix(0.89, 0.00, -0.00, -0.89, 215.5, 473.9)"></image><image xlink:href="../../6F2050DA-ED3D-4E36-9FF9-3E88F1DD9F57/assets/EE63CF3E350C3F5F9E5AF152187D0E38.png" width="177.00" height="80.00" transform="matrix(0.89, 0.00, -0.00, -0.89, 7.4, 152.3)"></image><image xlink:href="../../6F2050DA-ED3D-4E36-9FF9-3E88F1DD9F57/assets/EE63CF3E350C3F5F9E5AF152187D0E38.png" width="177.00" height="80.00" transform="matrix(0.89, 0.00, -0.00, -0.89, 292.2, 152.3)"></image><image xlink:href="../../6F2050DA-ED3D-4E36-9FF9-3E88F1DD9F57/assets/EE63CF3E350C3F5F9E5AF152187D0E38.png" width="177.00" height="80.00" transform="matrix(0.89, 0.00, -0.00, -0.89, 7.4, 101.7)"></image><image xlink:href="../../6F2050DA-ED3D-4E36-9FF9-3E88F1DD9F57/assets/36CCFFACC464502DB2B4D0A065BA5AF9.png" width="22.00" height="44.00" transform="matrix(0.89, 0.00, -0.00, -0.89, 355.3, 187.0)"></image><image xlink:href="../../6F2050DA-ED3D-4E36-9FF9-3E88F1DD9F57/assets/36CCFFACC464502DB2B4D0A065BA5AF9.png" width="22.00" height="44.00" transform="matrix(0.89, 0.00, -0.00, -0.89, 85.8, 185.5)"></image><image xlink:href="825BE0E759925F488A5DED309A9F4705.png" width="258.00" height="618.00" transform="matrix(0.89, 0.00, -0.00, -0.89, 225.9, 547.5)"></image></g></g><g><clipPath id="clip0x6000012bd100"><path d="M 224.4 548.9 L 451.3 548.9 L 451.3 3.7 L 224.4 3.7 Z M 224.4 548.9 "></path></clipPath><g clip-path="url(#clip0x6000012bd100)"><g><clipPath id="clip0x6000012bcc20"><path d="M 223.7 3.3 L 451.5 3.3 L 451.5 548.8 L 223.7 548.8 Z M 223.7 3.3 "></path></clipPath><g clip-path="url(#clip0x6000012bcc20)"><path d="M 223.7 3.3 L 451.5 3.3 L 451.5 548.8 L 223.7 548.8 Z M 223.7 3.3 " fill="url(#gradSh1.0)"></path></g></g></g></g><g><clipPath id="clip0x6000010a5a00"><path d="M 1.6 1.0 L 453.8 1.0 L 453.8 548.8 L 1.6 548.8 Z M 1.6 1.0 "></path></clipPath><g clip-path="url(#clip0x6000010a5a00)"><image xlink:href="955E4C62B0191C3FF2136F035E6DED29.png" width="245.00" height="618.00" transform="matrix(0.89, 0.00, -0.00, -0.89, 9.1, 547.6)"></image></g></g><g><clipPath id="clip0x6080012b0d40"><path d="M 7.6 549.0 L 223.0 549.0 L 223.0 3.7 L 7.6 3.7 Z M 7.6 549.0 "></path></clipPath><g clip-path="url(#clip0x6080012b0d40)"><g><clipPath id="clip0x608001aa0c60"><path d="M 6.9 3.4 L 223.2 3.4 L 223.2 548.8 L 6.9 548.8 Z M 6.9 3.4 "></path></clipPath><g clip-path="url(#clip0x608001aa0c60)"><path d="M 6.9 3.4 L 223.2 3.4 L 223.2 548.8 L 6.9 548.8 Z M 6.9 3.4 " fill="url(#gradSh2.1)"></path></g></g></g></g><g><clipPath id="clip0x608001ca29a0"><path d="M 1.6 1.0 L 453.8 1.0 L 453.8 548.8 L 1.6 548.8 Z M 1.6 1.0 "></path></clipPath><g clip-path="url(#clip0x608001ca29a0)"><path d="M 35.1 240.9 L 155.7 240.9 C 160.1 240.9 163.7 237.3 163.7 232.9 L 163.7 198.2 C 163.7 193.8 160.1 190.3 155.7 190.3 L 35.1 190.3 C 30.7 190.3 27.1 193.8 27.1 198.2 C 27.1 198.2 27.1 198.2 27.1 198.2 L 27.1 232.9 C 27.1 237.3 30.7 240.9 35.1 240.9 C 35.1 240.9 35.1 240.9 35.1 240.9 Z M 35.1 240.9 " fill="#FEFFFF"></path><path d="M 62.3 360.9 L 198.3 360.9 C 203.3 360.9 207.3 364.9 207.3 369.9 L 207.3 409.0 C 207.3 414.0 203.3 418.0 198.3 418.0 L 62.3 418.0 C 57.3 418.0 53.3 414.0 53.3 409.0 C 53.3 409.0 53.3 409.0 53.3 409.0 L 53.3 369.9 C 53.3 364.9 57.3 360.9 62.3 360.9 C 62.3 360.9 62.3 360.9 62.3 360.9 Z M 62.3 360.9 " fill="none" stroke="#000000" stroke-width="1.00" stroke-linecap="round" stroke-linejoin="round" transform="matrix(0.89, 0.00, 0.00, -0.89, -20.1, 560.8)"></path><text xml:space="preserve" font-family="Helvetica,Helvetica" font-size="16.0" fill="#000000" transform="matrix(0.89, 0.00, -0.00, -0.89, 38.7, 211.2)">C</text><text xml:space="preserve" font-family="Helvetica,Helvetica" font-size="16.0" fill="#000000" transform="matrix(0.89, 0.00, -0.00, -0.89, 49.0, 211.2)">a</text><text xml:space="preserve" font-family="Helvetica,Helvetica" font-size="16.0" fill="#000000" transform="matrix(0.89, 0.00, -0.00, -0.89, 56.9, 211.2)">l</text><text xml:space="preserve" font-family="Helvetica,Helvetica" font-size="16.0" fill="#000000" transform="matrix(0.89, 0.00, -0.00, -0.89, 60.0, 211.2)">a</text><text xml:space="preserve" font-family="Helvetica,Helvetica" font-size="16.0" fill="#000000" transform="matrix(0.89, 0.00, -0.00, -0.89, 67.9, 211.2)">b</text><text xml:space="preserve" font-family="Helvetica,Helvetica" font-size="16.0" fill="#000000" transform="matrix(0.89, 0.00, -0.00, -0.89, 75.8, 211.2)">a</text><text xml:space="preserve" font-family="Helvetica,Helvetica" font-size="16.0" fill="#000000" transform="matrix(0.89, 0.00, -0.00, -0.89, 83.7, 211.2)">s</text><text xml:space="preserve" font-family="Helvetica,Helvetica" font-size="16.0" fill="#000000" transform="matrix(0.89, 0.00, -0.00, -0.89, 90.8, 211.2)">h</text><text xml:space="preserve" font-family="Helvetica,Helvetica" font-size="16.0" fill="#000000" transform="matrix(0.89, 0.00, -0.00, -0.89, 98.7, 211.2)"> </text><text xml:space="preserve" font-family="Helvetica,Helvetica" font-size="16.0" fill="#000000" transform="matrix(0.89, 0.00, -0.00, -0.89, 101.9, 211.2)">A</text><text xml:space="preserve" font-family="Helvetica,Helvetica" font-size="16.0" fill="#000000" transform="matrix(0.89, 0.00, -0.00, -0.89, 111.3, 211.2)">n</text><text xml:space="preserve" font-family="Helvetica,Helvetica" font-size="16.0" fill="#000000" transform="matrix(0.89, 0.00, -0.00, -0.89, 119.2, 211.2)">d</text><text xml:space="preserve" font-family="Helvetica,Helvetica" font-size="16.0" fill="#000000" transform="matrix(0.89, 0.00, -0.00, -0.89, 127.1, 211.2)">r</text><text xml:space="preserve" font-family="Helvetica,Helvetica" font-size="16.0" fill="#000000" transform="matrix(0.89, 0.00, -0.00, -0.89, 131.8, 211.2)">o</text><text xml:space="preserve" font-family="Helvetica,Helvetica" font-size="16.0" fill="#000000" transform="matrix(0.89, 0.00, -0.00, -0.89, 139.7, 211.2)">i</text><text xml:space="preserve" font-family="Helvetica,Helvetica" font-size="16.0" fill="#000000" transform="matrix(0.89, 0.00, -0.00, -0.89, 142.9, 211.2)">d</text><path d="M 304.6 240.9 L 425.2 240.9 C 429.6 240.9 433.2 237.3 433.2 232.9 L 433.2 198.2 C 433.2 193.8 429.6 190.3 425.2 190.3 L 304.6 190.3 C 300.2 190.3 296.6 193.8 296.6 198.2 C 296.6 198.2 296.6 198.2 296.6 198.2 L 296.6 232.9 C 296.6 237.3 300.2 240.9 304.6 240.9 C 304.6 240.9 304.6 240.9 304.6 240.9 Z M 304.6 240.9 " fill="#FEFFFF"></path><path d="M 366.2 360.9 L 502.3 360.9 C 507.2 360.9 511.3 364.9 511.3 369.9 L 511.3 409.0 C 511.3 414.0 507.2 418.0 502.3 418.0 L 366.2 418.0 C 361.2 418.0 357.2 414.0 357.2 409.0 C 357.2 409.0 357.2 409.0 357.2 409.0 L 357.2 369.9 C 357.2 364.9 361.2 360.9 366.2 360.9 C 366.2 360.9 366.2 360.9 366.2 360.9 Z M 366.2 360.9 " fill="none" stroke="#000000" stroke-width="1.00" stroke-linecap="round" stroke-linejoin="round" transform="matrix(0.89, 0.00, 0.00, -0.89, -20.1, 560.8)"></path><text xml:space="preserve" font-family="Helvetica,Helvetica" font-size="16.0" fill="#000000" transform="matrix(0.89, 0.00, -0.00, -0.89, 320.5, 211.2)">C</text><text xml:space="preserve" font-family="Helvetica,Helvetica" font-size="16.0" fill="#000000" transform="matrix(0.89, 0.00, -0.00, -0.89, 330.7, 211.2)">a</text><text xml:space="preserve" font-family="Helvetica,Helvetica" font-size="16.0" fill="#000000" transform="matrix(0.89, 0.00, -0.00, -0.89, 338.6, 211.2)">l</text><text xml:space="preserve" font-family="Helvetica,Helvetica" font-size="16.0" fill="#000000" transform="matrix(0.89, 0.00, -0.00, -0.89, 341.7, 211.2)">a</text><text xml:space="preserve" font-family="Helvetica,Helvetica" font-size="16.0" fill="#000000" transform="matrix(0.89, 0.00, -0.00, -0.89, 349.6, 211.2)">b</text><text xml:space="preserve" font-family="Helvetica,Helvetica" font-size="16.0" fill="#000000" transform="matrix(0.89, 0.00, -0.00, -0.89, 357.5, 211.2)">a</text><text xml:space="preserve" font-family="Helvetica,Helvetica" font-size="16.0" fill="#000000" transform="matrix(0.89, 0.00, -0.00, -0.89, 365.4, 211.2)">s</text><text xml:space="preserve" font-family="Helvetica,Helvetica" font-size="16.0" fill="#000000" transform="matrix(0.89, 0.00, -0.00, -0.89, 372.5, 211.2)">h</text><text xml:space="preserve" font-family="Helvetica,Helvetica" font-size="16.0" fill="#000000" transform="matrix(0.89, 0.00, -0.00, -0.89, 380.4, 211.2)"> </text><text xml:space="preserve" font-family="Helvetica,Helvetica" font-size="16.0" fill="#000000" transform="matrix(0.89, 0.00, -0.00, -0.89, 384.3, 211.2)">i</text><text xml:space="preserve" font-family="Helvetica,Helvetica" font-size="16.0" fill="#000000" transform="matrix(0.89, 0.00, -0.00, -0.89, 387.5, 211.2)">O</text><text xml:space="preserve" font-family="Helvetica,Helvetica" font-size="16.0" fill="#000000" transform="matrix(0.89, 0.00, -0.00, -0.89, 398.5, 211.2)">S</text><path d="M 35.1 325.3 L 155.7 325.3 C 160.1 325.3 163.7 321.7 163.7 317.3 L 163.7 282.6 C 163.7 278.2 160.1 274.6 155.7 274.6 L 35.1 274.6 C 30.7 274.6 27.1 278.2 27.1 282.6 C 27.1 282.6 27.1 282.6 27.1 282.6 L 27.1 317.3 C 27.1 321.7 30.7 325.3 35.1 325.3 C 35.1 325.3 35.1 325.3 35.1 325.3 Z M 35.1 325.3 " fill="#FEFFFF"></path><path d="M 62.3 265.7 L 198.3 265.7 C 203.3 265.7 207.3 269.7 207.3 274.7 L 207.3 313.8 C 207.3 318.8 203.3 322.8 198.3 322.8 L 62.3 322.8 C 57.3 322.8 53.3 318.8 53.3 313.8 C 53.3 313.8 53.3 313.8 53.3 313.8 L 53.3 274.7 C 53.3 269.7 57.3 265.7 62.3 265.7 C 62.3 265.7 62.3 265.7 62.3 265.7 Z M 62.3 265.7 " fill="none" stroke="#000000" stroke-width="1.00" stroke-linecap="round" stroke-linejoin="round" transform="matrix(0.89, 0.00, 0.00, -0.89, -20.1, 560.8)"></path><text xml:space="preserve" font-family="Helvetica,Helvetica" font-size="16.0" fill="#000000" transform="matrix(0.89, 0.00, -0.00, -0.89, 36.0, 295.6)">P</text><text xml:space="preserve" font-family="Helvetica,Helvetica" font-size="16.0" fill="#000000" transform="matrix(0.89, 0.00, -0.00, -0.89, 45.5, 295.6)">a</text><text xml:space="preserve" font-family="Helvetica,Helvetica" font-size="16.0" fill="#000000" transform="matrix(0.89, 0.00, -0.00, -0.89, 53.3, 295.6)">g</text><text xml:space="preserve" font-family="Helvetica,Helvetica" font-size="16.0" fill="#000000" transform="matrix(0.89, 0.00, -0.00, -0.89, 61.2, 295.6)">e</text><text xml:space="preserve" font-family="Helvetica,Helvetica" font-size="16.0" fill="#000000" transform="matrix(0.89, 0.00, -0.00, -0.89, 69.1, 295.6)"> </text><text xml:space="preserve" font-family="Helvetica,Helvetica" font-size="16.0" fill="#000000" transform="matrix(0.89, 0.00, -0.00, -0.89, 73.1, 295.6)">O</text><text xml:space="preserve" font-family="Helvetica,Helvetica" font-size="16.0" fill="#000000" transform="matrix(0.89, 0.00, -0.00, -0.89, 84.1, 295.6)">b</text><text xml:space="preserve" font-family="Helvetica,Helvetica" font-size="16.0" fill="#000000" transform="matrix(0.89, 0.00, -0.00, -0.89, 92.0, 295.6)">j</text><text xml:space="preserve" font-family="Helvetica,Helvetica" font-size="16.0" fill="#000000" transform="matrix(0.89, 0.00, -0.00, -0.89, 95.1, 295.6)">e</text><text xml:space="preserve" font-family="Helvetica,Helvetica" font-size="16.0" fill="#000000" transform="matrix(0.89, 0.00, -0.00, -0.89, 103.0, 295.6)">c</text><text xml:space="preserve" font-family="Helvetica,Helvetica" font-size="16.0" fill="#000000" transform="matrix(0.89, 0.00, -0.00, -0.89, 110.1, 295.6)">t</text><text xml:space="preserve" font-family="Helvetica,Helvetica" font-size="16.0" fill="#000000" transform="matrix(0.89, 0.00, -0.00, -0.89, 114.1, 295.6)"> </text><text xml:space="preserve" font-family="Helvetica,Helvetica" font-size="16.0" fill="#000000" transform="matrix(0.89, 0.00, -0.00, -0.89, 118.0, 295.6)">C</text><text xml:space="preserve" font-family="Helvetica,Helvetica" font-size="16.0" fill="#000000" transform="matrix(0.89, 0.00, -0.00, -0.89, 128.3, 295.6)">l</text><text xml:space="preserve" font-family="Helvetica,Helvetica" font-size="16.0" fill="#000000" transform="matrix(0.89, 0.00, -0.00, -0.89, 131.4, 295.6)">a</text><text xml:space="preserve" font-family="Helvetica,Helvetica" font-size="16.0" fill="#000000" transform="matrix(0.89, 0.00, -0.00, -0.89, 139.3, 295.6)">s</text><text xml:space="preserve" font-family="Helvetica,Helvetica" font-size="16.0" fill="#000000" transform="matrix(0.89, 0.00, -0.00, -0.89, 146.4, 295.6)">s</text><path d="M 167.5 440.3 L 288.2 440.3 C 292.6 440.3 296.1 436.7 296.1 432.3 L 296.1 397.6 C 296.1 393.2 292.6 389.6 288.2 389.6 L 167.5 389.6 C 163.1 389.6 159.6 393.2 159.6 397.6 C 159.6 397.6 159.6 397.6 159.6 397.6 L 159.6 432.3 C 159.6 436.7 163.1 440.3 167.5 440.3 C 167.5 440.3 167.5 440.3 167.5 440.3 Z M 167.5 440.3 " fill="#FEFFFF"></path><path d="M 211.6 136.0 L 347.7 136.0 C 352.7 136.0 356.7 140.0 356.7 145.0 L 356.7 184.1 C 356.7 189.1 352.7 193.1 347.7 193.1 L 211.6 193.1 C 206.7 193.1 202.6 189.1 202.6 184.1 C 202.6 184.1 202.6 184.1 202.6 184.1 L 202.6 145.0 C 202.6 140.0 206.7 136.0 211.6 136.0 C 211.6 136.0 211.6 136.0 211.6 136.0 Z M 211.6 136.0 " fill="none" stroke="#000000" stroke-width="1.00" stroke-linecap="round" stroke-linejoin="round" transform="matrix(0.89, 0.00, 0.00, -0.89, -20.1, 560.8)"></path><text xml:space="preserve" font-family="Helvetica,Helvetica" font-size="16.0" fill="#000000" transform="matrix(0.89, 0.00, -0.00, -0.89, 182.6, 410.6)">C</text><text xml:space="preserve" font-family="Helvetica,Helvetica" font-size="16.0" fill="#000000" transform="matrix(0.89, 0.00, -0.00, -0.89, 192.9, 410.6)">u</text><text xml:space="preserve" font-family="Helvetica,Helvetica" font-size="16.0" fill="#000000" transform="matrix(0.89, 0.00, -0.00, -0.89, 200.8, 410.6)">s</text><text xml:space="preserve" font-family="Helvetica,Helvetica" font-size="16.0" fill="#000000" transform="matrix(0.89, 0.00, -0.00, -0.89, 207.9, 410.6)">t</text><text xml:space="preserve" font-family="Helvetica,Helvetica" font-size="16.0" fill="#000000" transform="matrix(0.89, 0.00, -0.00, -0.89, 211.8, 410.6)">o</text><text xml:space="preserve" font-family="Helvetica,Helvetica" font-size="16.0" fill="#000000" transform="matrix(0.89, 0.00, -0.00, -0.89, 219.7, 410.6)">m</text><text xml:space="preserve" font-family="Helvetica,Helvetica" font-size="16.0" fill="#000000" transform="matrix(0.89, 0.00, -0.00, -0.89, 231.5, 410.6)"> </text><text xml:space="preserve" font-family="Helvetica,Helvetica" font-size="16.0" fill="#000000" transform="matrix(0.89, 0.00, -0.00, -0.89, 235.4, 410.6)">S</text><text xml:space="preserve" font-family="Helvetica,Helvetica" font-size="16.0" fill="#000000" transform="matrix(0.89, 0.00, -0.00, -0.89, 244.9, 410.6)">t</text><text xml:space="preserve" font-family="Helvetica,Helvetica" font-size="16.0" fill="#000000" transform="matrix(0.89, 0.00, -0.00, -0.89, 248.8, 410.6)">e</text><text xml:space="preserve" font-family="Helvetica,Helvetica" font-size="16.0" fill="#000000" transform="matrix(0.89, 0.00, -0.00, -0.89, 256.7, 410.6)">p</text><text xml:space="preserve" font-family="Helvetica,Helvetica" font-size="16.0" fill="#000000" transform="matrix(0.89, 0.00, -0.00, -0.89, 264.6, 410.6)">s</text><path d="M 304.6 325.3 L 425.2 325.3 C 429.6 325.3 433.2 321.7 433.2 317.3 L 433.2 282.6 C 433.2 278.2 429.6 274.6 425.2 274.6 L 304.6 274.6 C 300.2 274.6 296.6 278.2 296.6 282.6 C 296.6 282.6 296.6 282.6 296.6 282.6 L 296.6 317.3 C 296.6 321.7 300.2 325.3 304.6 325.3 C 304.6 325.3 304.6 325.3 304.6 325.3 Z M 304.6 325.3 " fill="#FEFFFF"></path><path d="M 366.2 265.7 L 502.3 265.7 C 507.2 265.7 511.3 269.7 511.3 274.7 L 511.3 313.8 C 511.3 318.8 507.2 322.8 502.3 322.8 L 366.2 322.8 C 361.2 322.8 357.2 318.8 357.2 313.8 C 357.2 313.8 357.2 313.8 357.2 313.8 L 357.2 274.7 C 357.2 269.7 361.2 265.7 366.2 265.7 C 366.2 265.7 366.2 265.7 366.2 265.7 Z M 366.2 265.7 " fill="none" stroke="#000000" stroke-width="1.00" stroke-linecap="round" stroke-linejoin="round" transform="matrix(0.89, 0.00, 0.00, -0.89, -20.1, 560.8)"></path><text xml:space="preserve" font-family="Helvetica,Helvetica" font-size="16.0" fill="#000000" transform="matrix(0.89, 0.00, -0.00, -0.89, 305.5, 295.6)">P</text><text xml:space="preserve" font-family="Helvetica,Helvetica" font-size="16.0" fill="#000000" transform="matrix(0.89, 0.00, -0.00, -0.89, 314.9, 295.6)">a</text><text xml:space="preserve" font-family="Helvetica,Helvetica" font-size="16.0" fill="#000000" transform="matrix(0.89, 0.00, -0.00, -0.89, 322.8, 295.6)">g</text><text xml:space="preserve" font-family="Helvetica,Helvetica" font-size="16.0" fill="#000000" transform="matrix(0.89, 0.00, -0.00, -0.89, 330.7, 295.6)">e</text><text xml:space="preserve" font-family="Helvetica,Helvetica" font-size="16.0" fill="#000000" transform="matrix(0.89, 0.00, -0.00, -0.89, 338.6, 295.6)"> </text><text xml:space="preserve" font-family="Helvetica,Helvetica" font-size="16.0" fill="#000000" transform="matrix(0.89, 0.00, -0.00, -0.89, 342.6, 295.6)">O</text><text xml:space="preserve" font-family="Helvetica,Helvetica" font-size="16.0" fill="#000000" transform="matrix(0.89, 0.00, -0.00, -0.89, 353.6, 295.6)">b</text><text xml:space="preserve" font-family="Helvetica,Helvetica" font-size="16.0" fill="#000000" transform="matrix(0.89, 0.00, -0.00, -0.89, 361.5, 295.6)">j</text><text xml:space="preserve" font-family="Helvetica,Helvetica" font-size="16.0" fill="#000000" transform="matrix(0.89, 0.00, -0.00, -0.89, 364.6, 295.6)">e</text><text xml:space="preserve" font-family="Helvetica,Helvetica" font-size="16.0" fill="#000000" transform="matrix(0.89, 0.00, -0.00, -0.89, 372.5, 295.6)">c</text><text xml:space="preserve" font-family="Helvetica,Helvetica" font-size="16.0" fill="#000000" transform="matrix(0.89, 0.00, -0.00, -0.89, 379.6, 295.6)">t</text><text xml:space="preserve" font-family="Helvetica,Helvetica" font-size="16.0" fill="#000000" transform="matrix(0.89, 0.00, -0.00, -0.89, 383.6, 295.6)"> </text><text xml:space="preserve" font-family="Helvetica,Helvetica" font-size="16.0" fill="#000000" transform="matrix(0.89, 0.00, -0.00, -0.89, 387.5, 295.6)">C</text><text xml:space="preserve" font-family="Helvetica,Helvetica" font-size="16.0" fill="#000000" transform="matrix(0.89, 0.00, -0.00, -0.89, 397.7, 295.6)">l</text><text xml:space="preserve" font-family="Helvetica,Helvetica" font-size="16.0" fill="#000000" transform="matrix(0.89, 0.00, -0.00, -0.89, 400.9, 295.6)">a</text><text xml:space="preserve" font-family="Helvetica,Helvetica" font-size="16.0" fill="#000000" transform="matrix(0.89, 0.00, -0.00, -0.89, 408.8, 295.6)">s</text><text xml:space="preserve" font-family="Helvetica,Helvetica" font-size="16.0" fill="#000000" transform="matrix(0.89, 0.00, -0.00, -0.89, 415.9, 295.6)">s</text><path d="M 97.6 241.3 L 93.2 241.3 L 93.2 260.9 L 88.5 260.9 L 95.4 274.2 L 102.3 260.9 L 97.6 260.9 Z M 97.6 241.3 " fill="#000000" fill-opacity="0.10"></path><path d="M 132.8 360.4 L 127.8 360.4 L 127.8 338.3 L 122.5 338.3 L 130.3 323.3 L 138.1 338.3 L 132.8 338.3 Z M 132.8 360.4 " fill="none" stroke="#000000" stroke-opacity="0.75" stroke-width="1.00" stroke-linecap="round" stroke-linejoin="round" transform="matrix(0.89, 0.00, 0.00, -0.89, -20.1, 560.8)"></path><path d="M 367.1 241.3 L 362.7 241.3 L 362.7 260.9 L 358.0 260.9 L 364.9 274.2 L 371.8 260.9 L 367.1 260.9 Z M 367.1 241.3 " fill="#000000" fill-opacity="0.10"></path><path d="M 436.7 360.4 L 431.7 360.4 L 431.7 338.3 L 426.4 338.3 L 434.2 323.3 L 442.0 338.3 L 436.7 338.3 Z M 436.7 360.4 " fill="none" stroke="#000000" stroke-opacity="0.75" stroke-width="1.00" stroke-linecap="round" stroke-linejoin="round" transform="matrix(0.89, 0.00, 0.00, -0.89, -20.1, 560.8)"></path><path d="M 126.5 323.7 L 123.3 327.4 L 186.7 382.5 L 183.4 386.3 L 198.4 389.3 L 193.3 375.0 L 189.9 378.8 Z M 126.5 323.7 " fill="#000000" fill-opacity="0.10"></path><path d="M 165.3 267.5 L 161.8 263.3 L 233.3 201.2 L 229.5 196.8 L 246.4 193.4 L 240.7 209.7 L 236.9 205.3 Z M 165.3 267.5 " fill="none" stroke="#000000" stroke-opacity="0.75" stroke-width="1.00" stroke-linecap="round" stroke-linejoin="round" transform="matrix(0.89, 0.00, 0.00, -0.89, -20.1, 560.8)"></path><path d="M 335.9 327.4 L 332.8 323.7 L 267.0 379.0 L 263.7 375.1 L 258.3 389.3 L 273.3 386.5 L 270.1 382.7 Z M 335.9 327.4 " fill="#000000" fill-opacity="0.10"></path><path d="M 401.6 263.3 L 398.1 267.5 L 323.8 205.1 L 320.1 209.5 L 314.1 193.4 L 331.0 196.6 L 327.3 201.0 Z M 401.6 263.3 " fill="none" stroke="#000000" stroke-opacity="0.75" stroke-width="1.00" stroke-linecap="round" stroke-linejoin="round" transform="matrix(0.89, 0.00, 0.00, -0.89, -20.1, 560.8)"></path><path d="M 146.0 370.9 C 176.6 364.6 176.6 354.5 146.0 348.3 C 115.3 342.1 65.7 342.1 35.0 348.3 C 4.4 354.5 4.4 364.6 35.0 370.9 C 65.7 377.1 115.3 377.1 146.0 370.9 " fill="#FEFFFF"></path><path d="M 187.3 214.3 C 221.9 221.3 221.9 232.7 187.3 239.7 C 152.8 246.8 96.7 246.8 62.2 239.7 C 27.6 232.7 27.6 221.3 62.2 214.3 C 96.7 207.2 152.8 207.2 187.3 214.3 " fill="none" stroke="#000000" stroke-width="1.00" stroke-linecap="round" stroke-linejoin="round" transform="matrix(0.89, 0.00, 0.00, -0.89, -20.1, 560.8)"></path><text xml:space="preserve" font-family="Helvetica,Helvetica" font-size="16.0" fill="#000000" transform="matrix(0.89, 0.00, -0.00, -0.89, 37.4, 355.2)">c</text><text xml:space="preserve" font-family="Helvetica,Helvetica" font-size="16.0" fill="#000000" transform="matrix(0.89, 0.00, -0.00, -0.89, 44.5, 355.2)">u</text><text xml:space="preserve" font-family="Helvetica,Helvetica" font-size="16.0" fill="#000000" transform="matrix(0.89, 0.00, -0.00, -0.89, 52.4, 355.2)">c</text><text xml:space="preserve" font-family="Helvetica,Helvetica" font-size="16.0" fill="#000000" transform="matrix(0.89, 0.00, -0.00, -0.89, 59.5, 355.2)">u</text><text xml:space="preserve" font-family="Helvetica,Helvetica" font-size="16.0" fill="#000000" transform="matrix(0.89, 0.00, -0.00, -0.89, 67.4, 355.2)">m</text><text xml:space="preserve" font-family="Helvetica,Helvetica" font-size="16.0" fill="#000000" transform="matrix(0.89, 0.00, -0.00, -0.89, 79.2, 355.2)">b</text><text xml:space="preserve" font-family="Helvetica,Helvetica" font-size="16.0" fill="#000000" transform="matrix(0.89, 0.00, -0.00, -0.89, 87.1, 355.2)">e</text><text xml:space="preserve" font-family="Helvetica,Helvetica" font-size="16.0" fill="#000000" transform="matrix(0.89, 0.00, -0.00, -0.89, 95.0, 355.2)">r</text><text xml:space="preserve" font-family="Helvetica,Helvetica" font-size="16.0" fill="#000000" transform="matrix(0.89, 0.00, -0.00, -0.89, 99.7, 355.2)"> </text><text xml:space="preserve" font-family="Helvetica,Helvetica" font-size="16.0" fill="#000000" transform="matrix(0.89, 0.00, -0.00, -0.89, 103.6, 355.2)">p</text><text xml:space="preserve" font-family="Helvetica,Helvetica" font-size="16.0" fill="#000000" transform="matrix(0.89, 0.00, -0.00, -0.89, 111.5, 355.2)">r</text><text xml:space="preserve" font-family="Helvetica,Helvetica" font-size="16.0" fill="#000000" transform="matrix(0.89, 0.00, -0.00, -0.89, 116.3, 355.2)">o</text><text xml:space="preserve" font-family="Helvetica,Helvetica" font-size="16.0" fill="#000000" transform="matrix(0.89, 0.00, -0.00, -0.89, 124.1, 355.2)">ﬁ</text><text xml:space="preserve" font-family="Helvetica,Helvetica" font-size="16.0" fill="#000000" transform="matrix(0.89, 0.00, -0.00, -0.89, 131.2, 355.2)">l</text><text xml:space="preserve" font-family="Helvetica,Helvetica" font-size="16.0" fill="#000000" transform="matrix(0.89, 0.00, -0.00, -0.89, 134.4, 355.2)">e</text><path d="M 420.4 370.9 C 451.0 364.6 451.0 354.5 420.4 348.3 C 389.7 342.1 340.1 342.1 309.4 348.3 C 278.8 354.5 278.8 364.6 309.4 370.9 C 340.1 377.1 389.7 377.1 420.4 370.9 " fill="#FEFFFF"></path><path d="M 496.8 214.3 C 531.4 221.3 531.4 232.7 496.8 239.7 C 462.3 246.8 406.2 246.8 371.7 239.7 C 337.1 232.7 337.1 221.3 371.7 214.3 C 406.2 207.2 462.3 207.2 496.8 214.3 " fill="none" stroke="#000000" stroke-width="1.00" stroke-linecap="round" stroke-linejoin="round" transform="matrix(0.89, 0.00, 0.00, -0.89, -20.1, 560.8)"></path><text xml:space="preserve" font-family="Helvetica,Helvetica" font-size="16.0" fill="#000000" transform="matrix(0.89, 0.00, -0.00, -0.89, 311.8, 355.2)">c</text><text xml:space="preserve" font-family="Helvetica,Helvetica" font-size="16.0" fill="#000000" transform="matrix(0.89, 0.00, -0.00, -0.89, 318.9, 355.2)">u</text><text xml:space="preserve" font-family="Helvetica,Helvetica" font-size="16.0" fill="#000000" transform="matrix(0.89, 0.00, -0.00, -0.89, 326.8, 355.2)">c</text><text xml:space="preserve" font-family="Helvetica,Helvetica" font-size="16.0" fill="#000000" transform="matrix(0.89, 0.00, -0.00, -0.89, 333.9, 355.2)">u</text><text xml:space="preserve" font-family="Helvetica,Helvetica" font-size="16.0" fill="#000000" transform="matrix(0.89, 0.00, -0.00, -0.89, 341.8, 355.2)">m</text><text xml:space="preserve" font-family="Helvetica,Helvetica" font-size="16.0" fill="#000000" transform="matrix(0.89, 0.00, -0.00, -0.89, 353.6, 355.2)">b</text><text xml:space="preserve" font-family="Helvetica,Helvetica" font-size="16.0" fill="#000000" transform="matrix(0.89, 0.00, -0.00, -0.89, 361.5, 355.2)">e</text><text xml:space="preserve" font-family="Helvetica,Helvetica" font-size="16.0" fill="#000000" transform="matrix(0.89, 0.00, -0.00, -0.89, 369.4, 355.2)">r</text><text xml:space="preserve" font-family="Helvetica,Helvetica" font-size="16.0" fill="#000000" transform="matrix(0.89, 0.00, -0.00, -0.89, 374.1, 355.2)"> </text><text xml:space="preserve" font-family="Helvetica,Helvetica" font-size="16.0" fill="#000000" transform="matrix(0.89, 0.00, -0.00, -0.89, 378.0, 355.2)">p</text><text xml:space="preserve" font-family="Helvetica,Helvetica" font-size="16.0" fill="#000000" transform="matrix(0.89, 0.00, -0.00, -0.89, 385.9, 355.2)">r</text><text xml:space="preserve" font-family="Helvetica,Helvetica" font-size="16.0" fill="#000000" transform="matrix(0.89, 0.00, -0.00, -0.89, 390.6, 355.2)">o</text><text xml:space="preserve" font-family="Helvetica,Helvetica" font-size="16.0" fill="#000000" transform="matrix(0.89, 0.00, -0.00, -0.89, 398.5, 355.2)">ﬁ</text><text xml:space="preserve" font-family="Helvetica,Helvetica" font-size="16.0" fill="#000000" transform="matrix(0.89, 0.00, -0.00, -0.89, 405.6, 355.2)">l</text><text xml:space="preserve" font-family="Helvetica,Helvetica" font-size="16.0" fill="#000000" transform="matrix(0.89, 0.00, -0.00, -0.89, 408.8, 355.2)">e</text><path d="M 167.5 527.1 L 288.2 527.1 C 292.6 527.1 296.1 523.6 296.1 519.2 L 296.1 484.5 C 296.1 480.1 292.6 476.5 288.2 476.5 L 167.5 476.5 C 163.1 476.5 159.6 480.1 159.6 484.5 C 159.6 484.5 159.6 484.5 159.6 484.5 L 159.6 519.2 C 159.6 523.6 163.1 527.1 167.5 527.1 C 167.5 527.1 167.5 527.1 167.5 527.1 Z M 167.5 527.1 " fill="#FEFFFF"></path><path d="M 211.6 38.0 L 347.7 38.0 C 352.7 38.0 356.7 42.0 356.7 47.0 L 356.7 86.1 C 356.7 91.1 352.7 95.1 347.7 95.1 L 211.6 95.1 C 206.7 95.1 202.6 91.1 202.6 86.1 C 202.6 86.1 202.6 86.1 202.6 86.1 L 202.6 47.0 C 202.6 42.0 206.7 38.0 211.6 38.0 C 211.6 38.0 211.6 38.0 211.6 38.0 Z M 211.6 38.0 " fill="none" stroke="#000000" stroke-width="1.00" stroke-linecap="round" stroke-linejoin="round" transform="matrix(0.89, 0.00, 0.00, -0.89, -20.1, 560.8)"></path><text xml:space="preserve" font-family="Helvetica,Helvetica" font-size="16.0" fill="#000000" transform="matrix(0.89, 0.00, -0.00, -0.89, 199.2, 497.5)">F</text><text xml:space="preserve" font-family="Helvetica,Helvetica" font-size="16.0" fill="#000000" transform="matrix(0.89, 0.00, -0.00, -0.89, 207.8, 497.5)">e</text><text xml:space="preserve" font-family="Helvetica,Helvetica" font-size="16.0" fill="#000000" transform="matrix(0.89, 0.00, -0.00, -0.89, 215.7, 497.5)">a</text><text xml:space="preserve" font-family="Helvetica,Helvetica" font-size="16.0" fill="#000000" transform="matrix(0.89, 0.00, -0.00, -0.89, 223.6, 497.5)">t</text><text xml:space="preserve" font-family="Helvetica,Helvetica" font-size="16.0" fill="#000000" transform="matrix(0.89, 0.00, -0.00, -0.89, 227.6, 497.5)">u</text><text xml:space="preserve" font-family="Helvetica,Helvetica" font-size="16.0" fill="#000000" transform="matrix(0.89, 0.00, -0.00, -0.89, 235.5, 497.5)">r</text><text xml:space="preserve" font-family="Helvetica,Helvetica" font-size="16.0" fill="#000000" transform="matrix(0.89, 0.00, -0.00, -0.89, 240.2, 497.5)">e</text><text xml:space="preserve" font-family="Helvetica,Helvetica" font-size="16.0" fill="#000000" transform="matrix(0.89, 0.00, -0.00, -0.89, 248.1, 497.5)">s</text><path d="M 161.6 146.1 L 293.8 146.1 C 298.2 146.1 301.7 142.6 301.7 138.1 L 301.7 103.5 C 301.7 99.1 298.2 95.5 293.8 95.5 L 161.6 95.5 C 157.2 95.5 153.7 99.1 153.7 103.5 C 153.7 103.5 153.7 103.5 153.7 103.5 L 153.7 138.1 C 153.7 142.6 157.2 146.1 161.6 146.1 C 161.6 146.1 161.6 146.1 161.6 146.1 Z M 161.6 146.1 " fill="#FEFFFF"></path><path d="M 205.0 467.8 L 354.0 467.8 C 359.0 467.8 363.0 471.8 363.0 476.8 L 363.0 515.9 C 363.0 520.9 359.0 524.9 354.0 524.9 L 205.0 524.9 C 200.0 524.9 196.0 520.9 196.0 515.9 C 196.0 515.9 196.0 515.9 196.0 515.9 L 196.0 476.8 C 196.0 471.8 200.0 467.8 205.0 467.8 C 205.0 467.8 205.0 467.8 205.0 467.8 Z M 205.0 467.8 " fill="none" stroke="#000000" stroke-width="1.00" stroke-linecap="round" stroke-linejoin="round" transform="matrix(0.89, 0.00, 0.00, -0.89, -20.1, 560.8)"></path><text xml:space="preserve" font-family="Helvetica,Helvetica" font-size="16.0" fill="#000000" transform="matrix(0.89, 0.00, -0.00, -0.89, 194.3, 116.5)">C</text><text xml:space="preserve" font-family="Helvetica,Helvetica" font-size="16.0" fill="#000000" transform="matrix(0.89, 0.00, -0.00, -0.89, 204.6, 116.5)">u</text><text xml:space="preserve" font-family="Helvetica,Helvetica" font-size="16.0" fill="#000000" transform="matrix(0.89, 0.00, -0.00, -0.89, 212.4, 116.5)">c</text><text xml:space="preserve" font-family="Helvetica,Helvetica" font-size="16.0" fill="#000000" transform="matrix(0.89, 0.00, -0.00, -0.89, 219.5, 116.5)">u</text><text xml:space="preserve" font-family="Helvetica,Helvetica" font-size="16.0" fill="#000000" transform="matrix(0.89, 0.00, -0.00, -0.89, 227.4, 116.5)">m</text><text xml:space="preserve" font-family="Helvetica,Helvetica" font-size="16.0" fill="#000000" transform="matrix(0.89, 0.00, -0.00, -0.89, 239.2, 116.5)">b</text><text xml:space="preserve" font-family="Helvetica,Helvetica" font-size="16.0" fill="#000000" transform="matrix(0.89, 0.00, -0.00, -0.89, 247.1, 116.5)">e</text><text xml:space="preserve" font-family="Helvetica,Helvetica" font-size="16.0" fill="#000000" transform="matrix(0.89, 0.00, -0.00, -0.89, 255.0, 116.5)">r</text><path d="M 227.3 440.2 L 222.9 440.2 L 222.9 459.8 L 218.2 459.8 L 225.1 473.0 L 232.0 459.8 L 227.3 459.8 Z M 227.3 440.2 " fill="#000000" fill-opacity="0.10"></path><path d="M 279.1 136.1 L 274.1 136.1 L 274.1 114.0 L 268.8 114.0 L 276.6 99.0 L 284.4 114.0 L 279.1 114.0 Z M 279.1 136.1 " fill="none" stroke="#000000" stroke-opacity="0.75" stroke-width="1.00" stroke-linecap="round" stroke-linejoin="round" transform="matrix(0.89, 0.00, 0.00, -0.89, -20.1, 560.8)"></path><path d="M 25.1 146.1 L 145.7 146.1 C 150.1 146.1 153.7 142.6 153.7 138.1 L 153.7 103.5 C 153.7 99.1 150.1 95.5 145.7 95.5 L 25.1 95.5 C 20.7 95.5 17.1 99.1 17.1 103.5 C 17.1 103.5 17.1 103.5 17.1 103.5 L 17.1 138.1 C 17.1 142.6 20.7 146.1 25.1 146.1 C 25.1 146.1 25.1 146.1 25.1 146.1 Z M 25.1 146.1 " fill="#FEFFFF"></path><path d="M 51.0 467.8 L 187.1 467.8 C 192.0 467.8 196.1 471.8 196.1 476.8 L 196.1 515.9 C 196.1 520.9 192.0 524.9 187.1 524.9 L 51.0 524.9 C 46.0 524.9 42.0 520.9 42.0 515.9 C 42.0 515.9 42.0 515.9 42.0 515.9 L 42.0 476.8 C 42.0 471.8 46.0 467.8 51.0 467.8 C 51.0 467.8 51.0 467.8 51.0 467.8 Z M 51.0 467.8 " fill="none" stroke="#000000" stroke-width="1.00" stroke-linecap="round" stroke-linejoin="round" transform="matrix(0.89, 0.00, 0.00, -0.89, -20.1, 560.8)"></path><text xml:space="preserve" font-family="Helvetica,Helvetica" font-size="16.0" fill="#000000" transform="matrix(0.89, 0.00, -0.00, -0.89, 43.7, 116.5)">A</text><text xml:space="preserve" font-family="Helvetica,Helvetica" font-size="16.0" fill="#000000" transform="matrix(0.89, 0.00, -0.00, -0.89, 53.2, 116.5)">n</text><text xml:space="preserve" font-family="Helvetica,Helvetica" font-size="16.0" fill="#000000" transform="matrix(0.89, 0.00, -0.00, -0.89, 61.1, 116.5)">d</text><text xml:space="preserve" font-family="Helvetica,Helvetica" font-size="16.0" fill="#000000" transform="matrix(0.89, 0.00, -0.00, -0.89, 69.0, 116.5)">r</text><text xml:space="preserve" font-family="Helvetica,Helvetica" font-size="16.0" fill="#000000" transform="matrix(0.89, 0.00, -0.00, -0.89, 73.7, 116.5)">o</text><text xml:space="preserve" font-family="Helvetica,Helvetica" font-size="16.0" fill="#000000" transform="matrix(0.89, 0.00, -0.00, -0.89, 81.6, 116.5)">i</text><text xml:space="preserve" font-family="Helvetica,Helvetica" font-size="16.0" fill="#000000" transform="matrix(0.89, 0.00, -0.00, -0.89, 84.8, 116.5)">d</text><text xml:space="preserve" font-family="Helvetica,Helvetica" font-size="16.0" fill="#000000" transform="matrix(0.89, 0.00, -0.00, -0.89, 92.7, 116.5)"> </text><text xml:space="preserve" font-family="Helvetica,Helvetica" font-size="16.0" fill="#000000" transform="matrix(0.89, 0.00, -0.00, -0.89, 96.6, 116.5)">S</text><text xml:space="preserve" font-family="Helvetica,Helvetica" font-size="16.0" fill="#000000" transform="matrix(0.89, 0.00, -0.00, -0.89, 106.1, 116.5)">D</text><text xml:space="preserve" font-family="Helvetica,Helvetica" font-size="16.0" fill="#000000" transform="matrix(0.89, 0.00, -0.00, -0.89, 116.3, 116.5)">K</text><path d="M 310.0 146.1 L 430.6 146.1 C 435.0 146.1 438.6 142.6 438.6 138.1 L 438.6 103.5 C 438.6 99.1 435.0 95.5 430.6 95.5 L 310.0 95.5 C 305.5 95.5 302.0 99.1 302.0 103.5 C 302.0 103.5 302.0 103.5 302.0 103.5 L 302.0 138.1 C 302.0 142.6 305.5 146.1 310.0 146.1 C 310.0 146.1 310.0 146.1 310.0 146.1 Z M 310.0 146.1 " fill="#FEFFFF"></path><path d="M 372.3 467.8 L 508.3 467.8 C 513.3 467.8 517.3 471.8 517.3 476.8 L 517.3 515.9 C 517.3 520.9 513.3 524.9 508.3 524.9 L 372.3 524.9 C 367.3 524.9 363.3 520.9 363.3 515.9 C 363.3 515.9 363.3 515.9 363.3 515.9 L 363.3 476.8 C 363.3 471.8 367.3 467.8 372.3 467.8 C 372.3 467.8 372.3 467.8 372.3 467.8 Z M 372.3 467.8 " fill="none" stroke="#000000" stroke-width="1.00" stroke-linecap="round" stroke-linejoin="round" transform="matrix(0.89, 0.00, 0.00, -0.89, -20.1, 560.8)"></path><text xml:space="preserve" font-family="Helvetica,Helvetica" font-size="16.0" fill="#000000" transform="matrix(0.89, 0.00, -0.00, -0.89, 341.2, 116.5)">i</text><text xml:space="preserve" font-family="Helvetica,Helvetica" font-size="16.0" fill="#000000" transform="matrix(0.89, 0.00, -0.00, -0.89, 344.4, 116.5)">O</text><text xml:space="preserve" font-family="Helvetica,Helvetica" font-size="16.0" fill="#000000" transform="matrix(0.89, 0.00, -0.00, -0.89, 355.4, 116.5)">S</text><text xml:space="preserve" font-family="Helvetica,Helvetica" font-size="16.0" fill="#000000" transform="matrix(0.89, 0.00, -0.00, -0.89, 364.9, 116.5)"> </text><text xml:space="preserve" font-family="Helvetica,Helvetica" font-size="16.0" fill="#000000" transform="matrix(0.89, 0.00, -0.00, -0.89, 368.8, 116.5)">S</text><text xml:space="preserve" font-family="Helvetica,Helvetica" font-size="16.0" fill="#000000" transform="matrix(0.89, 0.00, -0.00, -0.89, 378.3, 116.5)">D</text><text xml:space="preserve" font-family="Helvetica,Helvetica" font-size="16.0" fill="#000000" transform="matrix(0.89, 0.00, -0.00, -0.89, 388.5, 116.5)">K</text><path d="M 25.1 95.5 L 145.7 95.5 C 150.1 95.5 153.7 91.9 153.7 87.5 L 153.7 52.9 C 153.7 48.5 150.1 44.9 145.7 44.9 L 25.1 44.9 C 20.7 44.9 17.1 48.5 17.1 52.9 C 17.1 52.9 17.1 52.9 17.1 52.9 L 17.1 87.5 C 17.1 91.9 20.7 95.5 25.1 95.5 C 25.1 95.5 25.1 95.5 25.1 95.5 Z M 25.1 95.5 " fill="#FEFFFF"></path><path d="M 51.0 524.9 L 187.1 524.9 C 192.0 524.9 196.1 528.9 196.1 533.9 L 196.1 573.0 C 196.1 578.0 192.0 582.0 187.1 582.0 L 51.0 582.0 C 46.0 582.0 42.0 578.0 42.0 573.0 C 42.0 573.0 42.0 573.0 42.0 573.0 L 42.0 533.9 C 42.0 528.9 46.0 524.9 51.0 524.9 C 51.0 524.9 51.0 524.9 51.0 524.9 Z M 51.0 524.9 " fill="none" stroke="#000000" stroke-width="1.00" stroke-linecap="round" stroke-linejoin="round" transform="matrix(0.89, 0.00, 0.00, -0.89, -20.1, 560.8)"></path><text xml:space="preserve" font-family="Helvetica,Helvetica" font-size="16.0" fill="#000000" transform="matrix(0.89, 0.00, -0.00, -0.89, 54.4, 65.8)">R</text><text xml:space="preserve" font-family="Helvetica,Helvetica" font-size="16.0" fill="#000000" transform="matrix(0.89, 0.00, -0.00, -0.89, 64.6, 65.8)">o</text><text xml:space="preserve" font-family="Helvetica,Helvetica" font-size="16.0" fill="#000000" transform="matrix(0.89, 0.00, -0.00, -0.89, 72.5, 65.8)">b</text><text xml:space="preserve" font-family="Helvetica,Helvetica" font-size="16.0" fill="#000000" transform="matrix(0.89, 0.00, -0.00, -0.89, 80.4, 65.8)">o</text><text xml:space="preserve" font-family="Helvetica,Helvetica" font-size="16.0" fill="#000000" transform="matrix(0.89, 0.00, -0.00, -0.89, 88.3, 65.8)">t</text><text xml:space="preserve" font-family="Helvetica,Helvetica" font-size="16.0" fill="#000000" transform="matrix(0.89, 0.00, -0.00, -0.89, 92.3, 65.8)">i</text><text xml:space="preserve" font-family="Helvetica,Helvetica" font-size="16.0" fill="#000000" transform="matrix(0.89, 0.00, -0.00, -0.89, 95.4, 65.8)">u</text><text xml:space="preserve" font-family="Helvetica,Helvetica" font-size="16.0" fill="#000000" transform="matrix(0.89, 0.00, -0.00, -0.89, 103.3, 65.8)">m</text><path d="M 367.1 153.3 L 362.7 153.3 L 362.7 172.9 L 358.0 172.9 L 364.9 186.1 L 371.8 172.9 L 367.1 172.9 Z M 367.1 153.3 " fill="#000000" fill-opacity="0.10"></path><path d="M 436.7 459.7 L 431.7 459.7 L 431.7 437.6 L 426.4 437.6 L 434.2 422.7 L 442.0 437.6 L 436.7 437.6 Z M 436.7 459.7 " fill="none" stroke="#000000" stroke-opacity="0.75" stroke-width="1.00" stroke-linecap="round" stroke-linejoin="round" transform="matrix(0.89, 0.00, 0.00, -0.89, -20.1, 560.8)"></path><path d="M 97.6 151.8 L 93.2 151.8 L 93.2 171.4 L 88.5 171.4 L 95.4 184.6 L 102.3 171.4 L 97.6 171.4 Z M 97.6 151.8 " fill="#000000" fill-opacity="0.10"></path><path d="M 132.8 461.4 L 127.8 461.4 L 127.8 439.3 L 122.5 439.3 L 130.3 424.4 L 138.1 439.3 L 132.8 439.3 Z M 132.8 461.4 " fill="none" stroke="#000000" stroke-opacity="0.75" stroke-width="1.00" stroke-linecap="round" stroke-linejoin="round" transform="matrix(0.89, 0.00, 0.00, -0.89, -20.1, 560.8)"></path></g></g></g></svg>